<?xml version="1.0" encoding="UTF-8"?>
<svg id="Ebene_1" data-name="Ebene 1" xmlns="http://www.w3.org/2000/svg" version="1.1" xmlns:xlink="http://www.w3.org/1999/xlink" viewBox="0 0 240.94 155.91">
  <defs>
    <style>
      .cls-1 {
        fill: #86181c;
      }

      .cls-1, .cls-2, .cls-3 {
        stroke-width: 0px;
      }

      .cls-2 {
        fill: none;
      }

      .cls-3 {
        fill: #86171e;
      }

      .cls-4 {
        clip-path: url(#clippath);
      }
    </style>
    <clipPath id="clippath">
      <rect class="cls-2" x="3.84" y="31.49" width="233.27" height="92.92"/>
    </clipPath>
  </defs>
  <g class="cls-4">
    <path class="cls-1" d="M50.01,104.14c-4.53,6.82-13.75,7.04-14.73,7.04-1.42.01-8.85-.09-13.89-5.71-.72-.8-4.72-5.27-3.35-7.88,1.24-2.36,5.69-.96,17.09-.99,10.72-.03,15.32-1.28,16.65,1.18,1.09,2.03-.89,5.03-1.77,6.35M17.39,81.48c-.11-2.86,3.53-4.05,5.19-1.77.21.36.41.73.46,1.14.16.78,0,4.62-.05,5.4,0,2.55-3.01,3.89-4.82,2.08-.41-.42-.72-.99-.83-1.5-.11-.73.1-4.62.05-5.35M45.2,81.48c-.1-2.86,3.5-4.05,5.14-1.77.21.36.41.73.46,1.14.16.78,0,4.62-.05,5.4,0,2.55-2.99,3.89-4.79,2.08-.41-.42-.72-.99-.82-1.5-.1-.73.1-4.62.05-5.35M62.77,72.28c-6.39-24.45-26.51-39.88-29.28-38.05-2.11,1.4,6.78,12.18,3.27,26.52-1.65,6.75-6.08,14.41-6.99,14.09-.32-.11-.23-1.17-.1-2.07,1.1-7.7-2.45-14.33-3.45-16.45-1.57-3.34-5.21-9.23-7.53-8.61-1.93.52-1.41,5.17-2.91,11.46-2.03,8.52-5.81,12.25-8.27,16.84-5.81,10.83-5.54,30.82,6.7,41.37,11.46,9.88,30.54,8.98,41.66-.49,15.19-12.94,9-36.57,6.9-44.62"/>
    <path class="cls-3" d="M88.46,117.1c.92-.24,1.88-.45,2.9-.62-.23-2.2-.46-3.86-.68-4.97-.58,1.33-1.32,3.19-2.22,5.59M94.78,116.69c0,.25-.57.53-1.7.85.1,1.34.15,2.48.15,3.42,0,1.63-.21,2.44-.62,2.44-.22,0-.39-.14-.52-.41-.13-.27-.23-.74-.31-1.41-.09-1.24-.19-2.45-.29-3.63-.58.15-1.11.29-1.59.42-.48.12-1.2.32-2.16.59-1.13,2.96-1.8,4.45-2.01,4.45s-.43-.13-.67-.38c-.24-.25-.36-.52-.36-.8,0-.13.37-1.05,1.1-2.75h-.14c-.26,0-.49-.09-.69-.25s-.3-.38-.3-.63.64-.58,1.91-1c.21-.46.38-.88.5-1.25.3-.73.71-1.74,1.24-3.02.53-1.28.86-2.09,1.01-2.45.14-.35.39-.66.75-.91.35-.25.7-.38,1.03-.38.4,0,.76.64,1.07,1.91.32,1.28.57,2.86.76,4.74.36-.04.68-.06.95-.06.58,0,.87.17.87.5"/>
    <path class="cls-3" d="M101.15,115.37c.78-1.02,1.42-1.54,1.91-1.54s.97.26,1.41.79c.44.53.67,1.09.67,1.68,0,.93-.21,2.06-.64,3.4-.78,2.47-1.47,3.71-2.09,3.71-.28,0-.43-.19-.43-.58,0-.27.14-.82.42-1.65.28-.83.53-1.65.77-2.46.24-.81.36-1.41.36-1.82s-.06-.71-.18-.9c-.12-.19-.25-.29-.37-.29s-.25.04-.38.12c-.13.08-.27.21-.44.39-.16.18-.31.36-.45.53-.14.17-.32.42-.53.74-.21.32-.39.6-.53.82-.14.23-.35.55-.62.98-.27.42-.48.75-.62.96-.14.22-.33.52-.56.89-.23.37-.42.66-.55.87s-.29.43-.45.68c-.32.48-.58.71-.76.71s-.4-.14-.65-.44c-.25-.29-.37-.54-.37-.76,0-.06.04-.24.14-.52.24-.75.51-1.67.81-2.77.3-1.1.46-2.36.48-3.76.04-.94.17-1.41.41-1.41.28,0,.57.15.85.44.28.3.42.62.42.98s-.11,1.03-.32,2.05c-.21,1.01-.46,1.96-.75,2.83,1.24-2.1,2.25-3.66,3.03-4.69"/>
    <path class="cls-3" d="M109.01,111.08c0-.26.1-.5.31-.73.21-.23.42-.35.63-.35s.47.26.76.78c.29.52.44.96.44,1.31,0,.13-.06.25-.17.35-.12.1-.24.16-.37.16-.31,0-.65-.19-1.03-.56-.38-.38-.57-.69-.57-.95M108.91,113.83c.24,0,.48.15.69.44.22.3.33.59.33.87s-.19,1.13-.56,2.54c-.38,1.41-.85,2.99-1.41,4.75-.22.64-.49.97-.83.97-.18,0-.34-.08-.46-.22-.13-.15-.19-.32-.19-.5s.05-.48.15-.89c.1-.41.24-.95.43-1.62.18-.68.34-1.23.44-1.65.11-.43.22-.91.34-1.44s.21-.97.28-1.3c.07-.33.15-.66.24-.99.18-.63.36-.95.56-.95"/>
    <path class="cls-3" d="M123.65,113.83c.39,0,.73.27,1.03.8s.45,1.14.45,1.82-.12,1.56-.36,2.64c-.24,1.08-.56,2.08-.96,2.97-.4.9-.79,1.35-1.18,1.35-.27,0-.41-.18-.41-.53s.22-1.23.67-2.61c.44-1.39.66-2.49.66-3.31s-.13-1.23-.39-1.23c-.32,0-.69.29-1.11.85-.42.57-.87,1.25-1.35,2.05-.48.8-.73,1.23-.77,1.29-.04.06-.09.14-.14.24-.06.1-.12.21-.19.33-.07.12-.25.46-.54,1.04-.29.58-.55,1.03-.76,1.36-.22.33-.41.49-.57.49s-.34-.11-.53-.31c-.19-.21-.29-.4-.29-.58s.12-.55.35-1.12c.67-1.68,1.01-3.23,1.01-4.68,0-.27-.06-.5-.18-.69s-.25-.28-.39-.28-.29.06-.44.18c-.15.12-.35.34-.58.66-.23.32-.44.62-.62.9-.18.28-.45.72-.82,1.32-.37.6-.65,1.04-.83,1.33-.19.29-.4.63-.65,1.01-.24.38-.43.68-.57.88-.14.21-.29.43-.45.68-.35.48-.6.71-.76.71s-.37-.14-.63-.44c-.26-.29-.39-.51-.39-.66s.02-.33.08-.55c.05-.22.11-.43.16-.64.06-.21.15-.51.27-.92.12-.41.26-.88.42-1.43.16-.55.28-1.3.37-2.26.08-.96.15-1.66.18-2.11.04-.44.15-.66.33-.66.28,0,.56.15.84.44.28.3.42.59.42.89,0,1.13-.43,3-1.28,5.61,1.44-2.7,2.35-4.31,2.73-4.81.38-.5.7-.91.97-1.22.5-.55,1.01-.83,1.53-.83.31,0,.68.27,1.11.8s.65,1.07.65,1.62-.08,1.21-.23,2.01c1.52-2.95,2.9-4.43,4.14-4.43"/>
    <path class="cls-3" d="M132.56,117.23c0-1.2-.24-1.8-.72-1.8-.5,0-1.09.36-1.76,1.07-.67.72-1.24,1.53-1.7,2.43-.46.9-.69,1.62-.69,2.15,0,.22.09.39.27.53.18.14.39.2.64.2.61,0,1.29-.41,2.05-1.23.76-.82,1.29-1.81,1.58-2.99.04-.19.15-.31.33-.35v-.02ZM133.27,114.71c.49.59.73,1.12.73,1.59s-.16.95-.48,1.44c.15.19.23.36.23.5,0,.36-.08.98-.24,1.86-.16.88-.26,1.45-.29,1.72-.03.27-.06.49-.09.65-.03.16-.06.32-.1.47-.05.32-.17.48-.35.48-.23,0-.42-.21-.57-.61-.15-.41-.24-.93-.26-1.58-1.15,1.46-2.21,2.19-3.19,2.19-.59,0-1.18-.26-1.75-.76-.57-.51-.86-1.03-.86-1.58,0-.77.28-1.73.85-2.87.56-1.14,1.3-2.16,2.2-3.05s1.75-1.33,2.55-1.33c.58,0,1.11.29,1.6.88"/>
    <path class="cls-3" d="M137.76,121.49c0,.24.14.37.42.37.49,0,1.09-.14,1.79-.42.7-.28,1.09-.42,1.17-.42.23,0,.35.12.35.37,0,.37-.38.81-1.15,1.29-.77.49-1.46.73-2.09.73s-1.14-.17-1.55-.51c-.41-.34-.62-.69-.62-1.05s.08-.82.23-1.38c.16-.56.38-1.3.67-2.22.29-.92.52-1.68.69-2.29-.61.14-1.01.21-1.22.21s-.41-.11-.61-.32-.3-.42-.3-.61c0-.31.84-.61,2.51-.89.23-1.07.35-2.02.35-2.84,0-.39.13-.58.39-.58.22,0,.49.14.81.42.32.28.48.59.48.94s-.11.96-.33,1.83c.73-.06,1.32-.09,1.76-.09.77,0,1.16.17,1.16.5,0,.19-.21.35-.63.48-.42.13-1.3.33-2.64.6-.27,1.02-.61,2.18-1.02,3.49-.41,1.31-.62,2.1-.62,2.39"/>
    <path class="cls-3" d="M145.55,111.08c0-.26.1-.5.31-.73.21-.23.42-.35.63-.35s.47.26.76.78c.3.52.45.96.45,1.31,0,.13-.06.25-.17.35-.12.1-.24.16-.37.16-.31,0-.65-.19-1.03-.56-.38-.38-.57-.69-.57-.95M145.45,113.83c.24,0,.48.15.69.44.22.3.33.59.33.87s-.19,1.13-.56,2.54c-.38,1.41-.85,2.99-1.41,4.75-.22.64-.49.97-.83.97-.18,0-.34-.08-.46-.22-.13-.15-.19-.32-.19-.5s.05-.48.15-.89c.1-.41.24-.95.43-1.62.18-.68.34-1.23.44-1.65.11-.43.22-.91.34-1.44s.21-.97.28-1.3c.07-.33.15-.66.24-.99.18-.63.37-.95.56-.95"/>
    <path class="cls-3" d="M153.51,117.12c0-.44-.07-.85-.21-1.25-.14-.39-.35-.68-.62-.86-.89.25-1.65.93-2.29,2.06-.64,1.13-.96,2.19-.96,3.18s.24,1.61.73,1.86c.93-.18,1.72-.82,2.37-1.9s.98-2.12.98-3.08M148.44,117.29c.44-1.01,1.03-1.83,1.76-2.49.73-.65,1.48-.98,2.24-.98s1.41.32,1.92.98c.52.65.77,1.45.77,2.38s-.22,1.89-.68,2.86c-.45.97-1.07,1.78-1.87,2.42-.79.64-1.63.96-2.52.96-.66,0-1.2-.3-1.64-.91-.44-.61-.66-1.38-.66-2.31s.22-1.9.67-2.91"/>
    <path class="cls-3" d="M161.36,115.37c.78-1.02,1.42-1.54,1.91-1.54s.97.26,1.41.79c.45.53.67,1.09.67,1.68,0,.93-.21,2.06-.64,3.4-.78,2.47-1.47,3.71-2.09,3.71-.28,0-.43-.19-.43-.58,0-.27.14-.82.42-1.65.28-.83.53-1.65.77-2.46.24-.81.36-1.41.36-1.82s-.06-.71-.18-.9c-.12-.19-.25-.29-.37-.29s-.25.04-.38.12c-.13.08-.27.21-.44.39-.16.18-.31.36-.45.53-.14.17-.32.42-.53.74-.21.32-.39.6-.53.82-.14.23-.35.55-.62.98-.27.42-.48.75-.62.96-.14.22-.33.52-.56.89-.23.37-.42.66-.55.87s-.29.43-.45.68c-.32.48-.58.71-.76.71s-.4-.14-.65-.44c-.25-.29-.37-.54-.37-.76,0-.06.04-.24.14-.52.24-.75.51-1.67.81-2.77.3-1.1.46-2.36.48-3.76.04-.94.17-1.41.41-1.41.28,0,.57.15.85.44.28.3.42.62.42.98s-.11,1.03-.32,2.05c-.21,1.01-.46,1.96-.75,2.83,1.24-2.1,2.25-3.66,3.03-4.69"/>
    <path class="cls-3" d="M172.27,113.83c.44,0,.85.24,1.23.73.39.48.58.91.58,1.26,0,.22-.1.33-.31.33-.14,0-.36-.11-.66-.34-.29-.23-.6-.34-.91-.34s-.79.18-1.46.54c-.66.36-1,.74-1,1.14,0,.3.59.81,1.78,1.53.45.28.86.65,1.23,1.09.37.44.55.92.55,1.43s-.35,1.01-1.05,1.49c-.7.48-1.52.72-2.46.72s-1.76-.22-2.47-.68c-.71-.45-1.07-.88-1.07-1.28,0-.17.04-.3.13-.4.08-.1.19-.15.32-.15s.31.08.54.25c.7.5,1.42.76,2.18.76s1.3-.09,1.63-.26c.34-.18.5-.41.5-.7s-.19-.6-.56-.93c-.37-.33-.78-.62-1.23-.88-.44-.26-.85-.57-1.23-.95-.38-.38-.56-.75-.56-1.14,0-.68.54-1.39,1.62-2.13,1.08-.74,1.97-1.11,2.68-1.11"/>
    <path class="cls-3" d="M180.51,113.83c.44,0,.85.24,1.23.73.39.48.58.91.58,1.26,0,.22-.1.33-.31.33-.14,0-.36-.11-.66-.34-.29-.23-.6-.34-.91-.34s-.8.18-1.46.54c-.66.36-1,.74-1,1.14,0,.3.59.81,1.78,1.53.45.28.86.65,1.23,1.09.37.44.55.92.55,1.43s-.35,1.01-1.05,1.49c-.7.48-1.52.72-2.46.72s-1.76-.22-2.47-.68c-.71-.45-1.07-.88-1.07-1.28,0-.17.04-.3.13-.4.08-.1.19-.15.32-.15s.31.08.54.25c.7.5,1.42.76,2.18.76s1.3-.09,1.63-.26c.34-.18.5-.41.5-.7s-.19-.6-.56-.93c-.37-.33-.78-.62-1.23-.88-.44-.26-.85-.57-1.23-.95-.38-.38-.56-.75-.56-1.14,0-.68.54-1.39,1.62-2.13,1.08-.74,1.97-1.11,2.68-1.11"/>
    <path class="cls-3" d="M185.38,121.49c0,.24.14.37.42.37.49,0,1.09-.14,1.79-.42.7-.28,1.09-.42,1.17-.42.23,0,.35.12.35.37,0,.37-.38.81-1.15,1.29-.77.49-1.46.73-2.09.73s-1.14-.17-1.56-.51c-.41-.34-.62-.69-.62-1.05s.08-.82.23-1.38c.16-.56.38-1.3.67-2.22.29-.92.52-1.68.69-2.29-.61.14-1.01.21-1.22.21s-.41-.11-.61-.32c-.2-.21-.3-.42-.3-.61,0-.31.84-.61,2.51-.89.23-1.07.35-2.02.35-2.84,0-.39.13-.58.39-.58.22,0,.49.14.81.42.32.28.48.59.48.94s-.11.96-.33,1.83c.73-.06,1.32-.09,1.76-.09.77,0,1.16.17,1.16.5,0,.19-.21.35-.63.48-.42.13-1.3.33-2.64.6-.27,1.02-.61,2.18-1.02,3.49-.41,1.31-.62,2.1-.62,2.39"/>
    <path class="cls-3" d="M197.69,113.95c.05-.08.16-.12.34-.12s.38.17.63.5c.25.34.38.66.38.97,0,.17-.28,1.16-.85,2.98-.57,1.82-1.01,3.26-1.31,4.33-.15.54-.38.81-.66.81-.17,0-.31-.07-.43-.21s-.18-.4-.18-.77.15-1.05.45-2.03c-.54.88-1.13,1.6-1.76,2.16-.63.57-1.21.85-1.73.85s-1.01-.24-1.48-.73c-.46-.49-.7-.99-.7-1.51,0-1.22.36-2.75,1.08-4.59.71-1.84,1.31-2.76,1.79-2.76.23,0,.44.11.61.32.17.21.26.46.26.73,0,.12-.18.53-.52,1.25-.35.72-.69,1.55-1.04,2.51-.35.96-.52,1.8-.52,2.52,0,.21.06.38.19.51.13.14.28.2.46.2.49,0,1.07-.43,1.75-1.29.68-.86,1.29-1.87,1.85-3.02.55-1.15.97-2.21,1.24-3.19.05-.21.1-.35.15-.43"/>
    <path class="cls-3" d="M206.14,117.91c0-.7-.12-1.28-.36-1.76-.24-.48-.52-.71-.86-.71-.55,0-1.12.34-1.7,1.02-.58.68-1.04,1.47-1.38,2.35-.34.88-.51,1.65-.51,2.29,0,.23.08.42.25.56.17.14.37.21.6.21.5,0,1.18-.36,2.04-1.08.86-.72,1.48-1.58,1.87-2.55l.06-.23v-.09ZM208.27,108.42c.21,0,.46.19.76.57.31.38.46.74.46,1.07s-.16,1.29-.49,2.85c-.32,1.56-.69,3.19-1.12,4.86-.93,3.76-1.54,5.65-1.83,5.65-.18,0-.38-.11-.59-.34-.21-.23-.32-.42-.32-.59s.05-.51.14-1.01c-1.26,1.29-2.37,1.93-3.31,1.93-.57,0-1.08-.26-1.54-.77-.46-.52-.69-1.05-.69-1.6,0-.8.22-1.75.65-2.85.43-1.1,1.05-2.1,1.86-3.01.81-.9,1.68-1.35,2.59-1.35s1.55.55,1.91,1.65c.66-2.73,1.02-4.89,1.08-6.48,0-.39.14-.58.43-.58"/>
    <path class="cls-3" d="M212.12,111.08c0-.26.1-.5.31-.73.21-.23.42-.35.63-.35s.47.26.76.78c.29.52.44.96.44,1.31,0,.13-.06.25-.17.35-.12.1-.24.16-.37.16-.31,0-.65-.19-1.03-.56-.38-.38-.57-.69-.57-.95M212.02,113.83c.24,0,.48.15.69.44.22.3.33.59.33.87s-.19,1.13-.56,2.54c-.38,1.41-.85,2.99-1.41,4.75-.22.64-.49.97-.83.97-.18,0-.34-.08-.46-.22-.13-.15-.19-.32-.19-.5s.05-.48.15-.89c.1-.41.24-.95.43-1.62.18-.68.34-1.23.44-1.65.11-.43.22-.91.34-1.44s.21-.97.28-1.3c.07-.33.15-.66.24-.99.18-.63.36-.95.56-.95"/>
    <path class="cls-3" d="M220.08,117.12c0-.44-.07-.85-.21-1.25-.14-.39-.35-.68-.62-.86-.89.25-1.65.93-2.29,2.06-.64,1.13-.96,2.19-.96,3.18s.24,1.61.73,1.86c.93-.18,1.72-.82,2.37-1.9.65-1.09.98-2.12.98-3.08M215.01,117.29c.44-1.01,1.03-1.83,1.76-2.49.73-.65,1.48-.98,2.24-.98s1.41.32,1.92.98c.52.65.77,1.45.77,2.38s-.22,1.89-.68,2.86c-.45.97-1.07,1.78-1.86,2.42-.79.64-1.63.96-2.53.96-.66,0-1.2-.3-1.64-.91-.44-.61-.66-1.38-.66-2.31s.22-1.9.67-2.91"/>
    <path class="cls-3" d="M76.71,31.84c1.36-.23,3.44-.35,6.21-.35s4.89.23,6.36.68c1.47.45,2.2,1.09,2.2,1.91,0,.39-.15.66-.45.83-.3.17-.55.29-.77.39-.22.09-.52.17-.89.25-.38.08-.72.15-1.02.22-.31.06-.72.12-1.22.17-.5.05-.93.1-1.3.14-.36.04-.84.09-1.43.15-.59.06-1.13.12-1.62.17-.49.05-1.78.25-3.87.58v.04c0,.93-.4,3.39-1.2,7.39.34.03.95.04,1.84.04s2.05-.07,3.5-.21c1.44-.14,2.39-.21,2.84-.21s.83.12,1.14.35c.31.23.46.49.46.77,0,.7-.41,1.32-1.24,1.86-.82.54-1.86.97-3.09,1.28-2.47.62-4.65.95-6.54,1.01-.77,3.27-1.24,5.28-1.41,6.01s-.34,1.43-.52,2.11c-.34,1.31-.65,1.97-.93,1.97-.54,0-1.28-.61-2.2-1.82-.93-1.21-1.39-2.12-1.39-2.71,0-1.03.63-4.3,1.91-9.82,1.28-5.52,1.95-8.98,2.03-10.4v-.31c0-.33.04-.62.12-.85.28-.85,1.11-1.39,2.47-1.62"/>
    <path class="cls-3" d="M94.31,34.62c0-.67.3-1.36.91-2.07.61-.71,1.2-1.06,1.78-1.06s1.27.69,2.07,2.09c.8,1.39,1.2,2.4,1.2,3.03s-.21,1.12-.62,1.45c-.41.34-.84.5-1.28.5-.75,0-1.61-.49-2.59-1.47-.98-.98-1.47-1.8-1.47-2.47M94.89,39.46c.9,0,1.71.52,2.42,1.55.71,1.03,1.06,2.02,1.06,2.98,0,.49-.45,2.25-1.33,5.28-.89,3.03-1.77,5.9-2.65,8.6-.31,1.01-.94,1.51-1.89,1.51-.57,0-1.06-.21-1.49-.64-.42-.42-.64-.98-.64-1.66s.33-2.39.99-5.11c.66-2.72,1.16-5.04,1.51-6.96.35-1.92.67-3.32.97-4.21s.65-1.33,1.06-1.33"/>
    <path class="cls-3" d="M102.7,45.99l-.23-4.37c0-1.44.45-2.17,1.35-2.17.51,0,1.02.19,1.53.58.5.39.88.99,1.14,1.82.88-.77,1.84-1.4,2.88-1.88,1.04-.48,1.96-.71,2.76-.71,1.88,0,2.82.45,2.82,1.35,0,.46-.09.81-.25,1.02-.17.22-.29.38-.39.48-.09.1-.25.24-.46.41-.22.17-.38.29-.48.37-.59.39-1.02.66-1.28.81-1.16.72-2.15,1.59-2.98,2.61-.82,1.02-1.44,2.43-1.86,4.23-.69,2.96-1.37,5.17-2.03,6.63-.66,1.46-1.39,2.19-2.2,2.19s-1.42-.39-1.82-1.16c-.4-.77-.6-1.5-.6-2.18s.25-1.71.75-3.07c.5-1.37.85-2.55,1.05-3.54.19-.99.29-2.13.29-3.42"/>
    <path class="cls-3" d="M126.6,44.95c-.54-.49-1.05-.73-1.53-.73s-1.09.34-1.84,1.02-1.46,1.56-2.13,2.65c.23.03.57.04,1.01.04,3.53,0,5.3-.62,5.3-1.85,0-.26-.27-.63-.81-1.12M129.32,50.09c-1.71,1.01-3.47,1.51-5.28,1.51s-3.29-.13-4.45-.39c-.23.69-.35,1.39-.35,2.09s.12,1.19.35,1.49c.23.3.81.44,1.74.44,1.93,0,3.59-.18,4.97-.54,1.38-.36,2.09-.54,2.15-.54,1.06,0,1.59.35,1.59,1.05,0,1.01-.83,1.96-2.49,2.86-1.66.9-3.58,1.35-5.76,1.35s-3.93-.68-5.24-2.05c-1.31-1.36-1.97-2.98-1.97-4.85s.55-3.82,1.64-5.86c1.1-2.03,2.47-3.74,4.12-5.12,1.65-1.38,3.29-2.07,4.93-2.07s3.15.81,4.54,2.42c1.39,1.61,2.09,3.22,2.09,4.81,0,1.26-.86,2.4-2.57,3.4"/>
    <path class="cls-3" d="M140.59,31.84c1.36-.23,3.43-.35,6.21-.35s4.89.23,6.36.68c1.47.45,2.2,1.09,2.2,1.91,0,.39-.15.66-.45.83s-.55.29-.77.39c-.22.09-.52.17-.89.25-.38.08-.72.15-1.02.22-.31.06-.72.12-1.22.17-.5.05-.93.1-1.3.14-.36.04-.84.09-1.43.15-.59.06-1.13.12-1.62.17-.49.05-1.78.25-3.87.58v.04c0,.93-.4,3.39-1.2,7.39.34.03.95.04,1.84.04s2.05-.07,3.5-.21c1.44-.14,2.39-.21,2.84-.21s.83.12,1.14.35c.31.23.46.49.46.77,0,.7-.41,1.32-1.24,1.86-.83.54-1.86.97-3.09,1.28-2.47.62-4.66.95-6.54,1.01-.77,3.27-1.24,5.28-1.41,6.01s-.34,1.43-.52,2.11c-.34,1.31-.65,1.97-.93,1.97-.54,0-1.28-.61-2.2-1.82-.93-1.21-1.39-2.12-1.39-2.71,0-1.03.64-4.3,1.92-9.82,1.28-5.52,1.95-8.98,2.03-10.4v-.31c0-.33.04-.62.12-.85.28-.85,1.11-1.39,2.47-1.62"/>
    <path class="cls-3" d="M156.53,45.99l-.23-4.37c0-1.44.45-2.17,1.35-2.17.51,0,1.02.19,1.53.58.5.39.88.99,1.14,1.82.88-.77,1.84-1.4,2.88-1.88,1.04-.48,1.96-.71,2.76-.71,1.88,0,2.82.45,2.82,1.35,0,.46-.09.81-.25,1.02-.17.22-.29.38-.39.48-.09.1-.25.24-.46.41-.22.17-.38.29-.48.37-.59.39-1.02.66-1.28.81-1.16.72-2.15,1.59-2.98,2.61-.83,1.02-1.45,2.43-1.86,4.23-.69,2.96-1.37,5.17-2.03,6.63-.66,1.46-1.39,2.19-2.2,2.19s-1.42-.39-1.82-1.16c-.4-.77-.6-1.5-.6-2.18s.25-1.71.75-3.07c.5-1.37.85-2.55,1.05-3.54.19-.99.29-2.13.29-3.42"/>
    <path class="cls-3" d="M173.58,54.54c1.03,0,2.4-.7,4.12-2.11,1.71-1.41,2.78-3.17,3.19-5.31.02-.31.24-.49.66-.54-.08-1.47-.32-2.2-.73-2.2-1.03,0-2.19.67-3.46,2.01-1.28,1.34-2.32,2.77-3.13,4.29-.81,1.52-1.22,2.64-1.22,3.36,0,.21.03.34.1.41.06.06.22.09.48.09M184.83,48.43c.46.41.7.79.7,1.12s-.15,1.03-.46,2.09c-.31,1.06-.52,1.88-.62,2.46s-.19,1.04-.25,1.37c-.06.34-.11.6-.14.79-.03.19-.07.43-.14.72-.06.28-.12.51-.15.68-.04.17-.09.36-.16.58-.06.22-.14.39-.21.5-.08.12-.17.24-.27.37-.16.21-.41.31-.78.31s-.81-.36-1.33-1.08c-.53-.72-.92-1.6-1.18-2.63-2.42,2.47-4.46,3.71-6.11,3.71-1.11,0-2.31-.61-3.6-1.83-1.29-1.22-1.93-2.45-1.93-3.67s.55-2.97,1.66-5.24c1.11-2.27,2.62-4.37,4.54-6.3,1.92-1.93,3.82-2.9,5.7-2.9,1.08,0,2.33.63,3.75,1.89,1.42,1.26,2.13,2.42,2.13,3.46s-.39,2.25-1.16,3.62"/>
    <path class="cls-3" d="M214.14,39.46c1.01,0,1.84.67,2.51,2.01.67,1.34,1.01,2.56,1.01,3.67s-.21,2.75-.64,4.93c-.42,2.18-1.09,4.28-2.01,6.3-.92,2.02-1.9,3.03-2.96,3.03-.85,0-1.28-.58-1.28-1.74s.34-3.05,1.01-5.68c.67-2.63,1.01-4.36,1.01-5.18s-.13-1.24-.39-1.24c-.54,0-1.19.59-1.93,1.78-.75,1.18-1.65,2.77-2.69,4.76-1.05,1.99-1.7,3.26-1.95,3.83-.26.57-.47,1.02-.64,1.35-.17.34-.35.68-.56,1.05-.82,1.37-1.92,1.37-3.29,0-.7-.7-1.05-1.33-1.05-1.9,0-.1.21-1.09.64-2.96.42-1.87.64-4,.64-6.4,0-1.01-.12-1.51-.35-1.51-.31,0-.67.31-1.08.93-.41.62-1.04,1.74-1.89,3.36s-1.59,2.96-2.2,4.02c-2.16,3.69-3.82,5.53-4.95,5.53-.57,0-1.27-.48-2.11-1.43-.84-.95-1.25-1.68-1.25-2.19s.29-1.71.87-3.63c.58-1.92.95-3.96,1.12-6.13.17-2.17.32-3.86.46-5.07.14-1.21.45-1.82.91-1.82.98,0,1.93.41,2.84,1.22.92.81,1.37,1.55,1.37,2.22,0,1.52-.55,4.18-1.66,7.97,1.8-4.3,3.33-7.22,4.56-8.74,1.31-1.57,2.58-2.36,3.79-2.36.67,0,1.5.62,2.49,1.86.99,1.24,1.49,2.39,1.49,3.46s-.01,2-.04,2.8c.8-2.01,2.01-3.87,3.63-5.57,1.63-1.7,3.15-2.55,4.56-2.55"/>
    <path class="cls-3" d="M231.81,44.95c-.54-.49-1.05-.73-1.53-.73s-1.09.34-1.84,1.02-1.46,1.56-2.13,2.65c.23.03.57.04,1.01.04,3.53,0,5.3-.62,5.3-1.85,0-.26-.27-.63-.81-1.12M234.54,50.09c-1.71,1.01-3.47,1.51-5.28,1.51s-3.29-.13-4.45-.39c-.23.69-.35,1.39-.35,2.09s.12,1.19.35,1.49c.23.3.81.44,1.74.44,1.93,0,3.59-.18,4.97-.54,1.38-.36,2.09-.54,2.15-.54,1.06,0,1.59.35,1.59,1.05,0,1.01-.83,1.96-2.49,2.86-1.66.9-3.58,1.35-5.76,1.35s-3.93-.68-5.24-2.05c-1.32-1.36-1.98-2.98-1.98-4.85s.55-3.82,1.64-5.86c1.1-2.03,2.47-3.74,4.12-5.12,1.65-1.38,3.29-2.07,4.93-2.07s3.15.81,4.54,2.42c1.39,1.61,2.09,3.22,2.09,4.81,0,1.26-.86,2.4-2.57,3.4"/>
    <path class="cls-3" d="M110.35,88.96c0,2.19-1.04,4.07-3.13,5.64-2.09,1.57-4.47,2.36-7.15,2.36s-4.84-.66-6.48-1.99c-1.64-1.33-2.45-2.7-2.45-4.12s.4-2.13,1.2-2.13c.62,0,1.26.31,1.93.93.67.62,1.42,1.24,2.26,1.86.84.62,1.78.93,2.84.93s2.26-.44,3.6-1.32c1.34-.88,2.01-1.61,2.01-2.2s-.73-1.59-2.19-2.98c-1.46-1.39-2.91-2.83-4.37-4.31-1.46-1.48-2.19-2.63-2.19-3.44s.15-1.69.45-2.65c.3-.95.66-1.61,1.1-1.97,1.39-1.37,3.19-2.55,5.4-3.54,2.2-.99,4.14-1.49,5.82-1.49.98,0,1.79.42,2.43,1.26.64.84.97,1.71.97,2.61,0,.36-.29.65-.87.87-.58.22-1.42.44-2.52.68-1.09.23-2.21.57-3.34,1.01-2.63.98-3.94,1.8-3.94,2.47,0,.31.45.87,1.35,1.68.9.81,1.89,1.66,2.96,2.55,1.07.89,2.06,2.01,2.96,3.36.9,1.35,1.35,2.66,1.35,3.93"/>
    <path class="cls-3" d="M122.48,84.57c-.4,1.25-.89,2.82-1.47,4.7-.58,1.88-.87,2.88-.87,3s.21.18.64.18,1.43-.29,3.03-.87c1.6-.58,2.54-.87,2.82-.87.64,0,.97.44.97,1.31s-.86,1.93-2.59,3.15c-1.73,1.23-3.53,1.84-5.41,1.84-.83,0-1.8-.45-2.94-1.35-1.13-.9-1.7-1.82-1.7-2.75,0-.77.39-2.4,1.18-4.89.79-2.49,1.32-4.2,1.6-5.12-1.01.28-1.77.42-2.28.42s-1.06-.35-1.62-1.06c-.57-.71-.85-1.39-.85-2.03,0-.82,2-1.52,5.99-2.09.49-2.4.73-4.47.73-6.23,0-.77.39-1.16,1.16-1.16.67,0,1.53.41,2.57,1.22,1.04.81,1.56,1.61,1.56,2.4s-.16,1.89-.5,3.31c1.24-.05,2.18-.08,2.82-.08,1.93,0,2.9.44,2.9,1.31,0,.57-.56,1.05-1.68,1.45-1.12.4-2.84.83-5.16,1.3-.21.69-.51,1.67-.91,2.92"/>
    <path class="cls-3" d="M144.38,78.01c.21-.64.62-.96,1.24-.96s1.33.53,2.15,1.58c.81,1.06,1.22,1.97,1.22,2.75,0,.28-.59,2.18-1.78,5.68-1.19,3.5-2.1,6.28-2.75,8.31-.36,1.08-.97,1.62-1.82,1.62-.52,0-.95-.19-1.29-.56-.35-.37-.52-.96-.52-1.76s.15-1.93.46-3.4c-2.65,3.82-4.77,5.72-6.34,5.72-.82,0-1.82-.53-2.98-1.6-1.16-1.07-1.74-2.11-1.74-3.11,0-2.47.7-5.63,2.11-9.47,1.4-3.84,2.73-5.76,3.96-5.76.75,0,1.41.34,1.99,1.01.58.67.87,1.41.87,2.2,0,.31-.32,1.18-.96,2.59-1.96,4.25-2.94,7.26-2.94,9.01,0,.15.06.23.19.23.39,0,1.12-.61,2.19-1.84,1.07-1.22,2.27-2.98,3.6-5.26,1.33-2.28,2.38-4.61,3.15-6.98"/>
    <path class="cls-3" d="M154.7,92.09c.65,0,1.73-.55,3.27-1.66,1.53-1.11,2.67-2.51,3.42-4.22-.03-.21-.04-.66-.04-1.35s-.23-1.35-.7-1.97c-.46-.62-.89-.93-1.28-.93-.77,0-1.52.41-2.22,1.24-.71.82-1.27,1.8-1.68,2.94-.88,2.4-1.32,4.22-1.32,5.45,0,.21.03.34.1.41.06.06.21.09.44.09M166.11,66.22c.62,0,1.43.56,2.43,1.68,1.01,1.12,1.51,2.17,1.51,3.15,0,.49-.45,2.53-1.35,6.11-.9,3.59-1.45,5.75-1.62,6.5-2.06,8.89-3.57,13.34-4.53,13.34-.54,0-1.15-.32-1.82-.97-.67-.65-1.01-1.28-1.01-1.89,0-.13.01-.23.04-.31-2.58,2.12-4.43,3.17-5.55,3.17s-2.2-.6-3.25-1.8c-1.04-1.2-1.57-2.29-1.57-3.27s.14-2.07.41-3.27c.27-1.2.69-2.47,1.26-3.81.57-1.34,1.22-2.6,1.95-3.77.73-1.17,1.62-2.14,2.67-2.9,1.04-.76,2.12-1.14,3.23-1.14,1.65,0,3,.84,4.06,2.51,1.39-6.11,2.06-10.17,2.01-12.18,0-.77.37-1.16,1.12-1.16"/>
    <path class="cls-3" d="M174.23,72.21c0-.67.3-1.36.91-2.07.61-.71,1.2-1.06,1.78-1.06s1.27.69,2.07,2.09c.8,1.39,1.2,2.4,1.2,3.03s-.21,1.12-.62,1.45c-.41.34-.84.5-1.28.5-.75,0-1.61-.49-2.59-1.47-.98-.98-1.47-1.8-1.47-2.47M174.81,77.05c.9,0,1.71.52,2.42,1.55.71,1.03,1.06,2.02,1.06,2.98,0,.49-.44,2.25-1.33,5.28-.89,3.03-1.77,5.9-2.65,8.6-.31,1.01-.94,1.51-1.89,1.51-.57,0-1.06-.21-1.49-.64-.43-.42-.64-.98-.64-1.66s.33-2.39.99-5.11c.66-2.72,1.16-5.04,1.51-6.96.35-1.92.67-3.32.96-4.21.3-.89.65-1.33,1.06-1.33"/>
    <path class="cls-3" d="M189.58,89.3c1.03-1.88,1.55-3.65,1.55-5.3s-.23-2.78-.7-3.4c-1.11.65-2.21,2-3.3,4.06-1.1,2.06-1.64,3.87-1.64,5.43s.15,2.55.46,2.96c1.39-.62,2.6-1.87,3.63-3.75M183.3,81.34c2-2.89,3.98-4.33,5.94-4.33s3.61.69,4.95,2.07c1.34,1.38,2.01,3.04,2.01,4.99s-.46,3.92-1.39,5.94c-.93,2.01-2.23,3.68-3.9,5.01s-3.47,1.99-5.37,1.99c-1.42,0-2.64-.63-3.67-1.89-1.03-1.26-1.55-2.8-1.55-4.6,0-3.22,1-6.28,3-9.16"/>
    <path class="cls-3" d="M210.46,77.09c.98,0,1.95.58,2.9,1.74.95,1.16,1.43,2.2,1.43,3.13,0,.62-.27.93-.81.93-.31,0-.76-.12-1.35-.36-.59-.25-1.19-.37-1.8-.37s-1.5.21-2.67.62c-1.18.41-1.76.96-1.76,1.63,0,.26.35.63,1.05,1.12.7.49,1.46.99,2.28,1.51.83.52,1.59,1.23,2.28,2.15.69.92,1.04,1.91,1.04,2.98s-.78,2.15-2.34,3.23c-1.56,1.08-3.39,1.62-5.49,1.62s-3.9-.48-5.4-1.43c-1.49-.95-2.24-1.93-2.24-2.94s.41-1.51,1.24-1.51c.34,0,.73.13,1.2.39,1.29.75,2.89,1.12,4.81,1.12s2.88-.26,2.88-.77-.37-1.09-1.1-1.72c-.73-.63-1.53-1.22-2.4-1.76-.86-.54-1.66-1.21-2.4-1.99-.73-.79-1.11-1.55-1.11-2.3,0-1.39,1.26-2.9,3.79-4.54,2.53-1.64,4.51-2.46,5.96-2.46"/>
  </g>
</svg>