<?xml version="1.0" encoding="UTF-8"?>
<svg id="Ebene_1" xmlns="http://www.w3.org/2000/svg" viewBox="0 0 366.5 167.93">
  <defs>
    <style>
      .cls-1 {
        fill: #19576a;
      }

      .cls-2 {
        fill: #55929c;
      }

      .cls-3 {
        fill: #1d1d1b;
      }

      .cls-4 {
        fill: #669f88;
      }
    </style>
  </defs>
  <g>
    <path class="cls-3" d="M193.45,81.09c0,.43-.13.64-.39.64-.18,0-.46-.03-.84-.08s-.65-.08-.84-.08-.47.03-.85.08-.66.08-.85.08c-.26,0-.38-.28-.38-.85,0-2.17.04-5.42.12-9.76s.12-7.59.12-9.76c0-.32-.04-.49-.12-.49-.09,0-.16.09-.22.28-.52,1.86-1.76,6.83-3.71,14.91-.32,1.55-.78,3.49-1.37,5.81-.07.22-.44.33-1.11.33-.96,0-1.5-.15-1.6-.44-.35-1.38-.85-3.32-1.49-5.81-.85-3.38-2.16-8.42-3.93-15.11-.03-.12-.1-.24-.2-.36-.08.1-.12.29-.12.56,0,2.2.02,5.51.07,9.91.05,4.41.07,7.71.07,9.91,0,.56-.13.85-.38.85-.17,0-.44-.03-.8-.08s-.63-.08-.8-.08c-.18,0-.46.03-.82.08s-.64.08-.82.08c-.26,0-.38-.16-.38-.49,0-1.9.05-4.73.16-8.52.11-3.78.16-6.62.16-8.52s-.05-4.91-.16-8.85c-.11-3.93-.16-6.88-.16-8.85,0-.32.12-.51.35-.56,1.4-.31,2.45-.46,3.16-.46.1,0,.25.35.43,1.05,2.49,9.08,4.62,17.19,6.41,24.33.42,1.67.67,2.51.76,2.51.1,0,.32-.68.66-2.05,1.4-5.53,3.33-13.74,5.81-24.64.15-.67.32-1,.51-1,.35,0,.88.03,1.58.1s1.23.1,1.58.1c.26,0,.38.2.38.61,0,1.96-.04,4.91-.12,8.85-.08,3.94-.12,6.89-.12,8.85s.04,4.7.13,8.45c.09,3.76.13,6.56.13,8.43v.04Z"/>
    <path class="cls-3" d="M209.73,67.98c0,1.26-.33,2.11-.99,2.54-.44.27-3.62.78-9.54,1.51.13,1.5.63,2.78,1.49,3.84.82,1.01,1.7,1.51,2.65,1.51,1.62,0,3.11-.87,4.47-2.61l.49-.67c.08,0,.14.02.16.05s.22.63.58,1.78.54,1.77.54,1.86c0,.1-.08.3-.25.59-1.51,2.66-3.45,4-5.81,4s-4.28-1.18-5.7-3.55c-1.42-2.36-2.13-5.52-2.13-9.46,0-3.52.68-6.58,2.03-9.19,1.43-2.71,3.18-4.07,5.25-4.07,1.93,0,3.54,1.18,4.84,3.53,1.26,2.29,1.89,5.07,1.89,8.35h.03ZM206.06,66.41c0-1.42-.34-2.67-1.01-3.76-.67-1.09-1.43-1.64-2.27-1.64-.94,0-1.78.63-2.52,1.9s-1.1,2.68-1.1,4.25c0,.36.19.54.55.54,1.52,0,3.34-.26,5.45-.77.6-.14.89-.31.89-.51h0Z"/>
    <path class="cls-3" d="M226.69,46c0,2.2-.06,5.5-.18,9.9s-.18,7.69-.18,9.87c0,6.74.09,11.85.26,15.32l.02.33c.01.17-.13.28-.42.33-.2.03-.47.03-.83,0-.43-.05-.63-.08-.6-.08-.15,0-.38.03-.68.08s-.52.08-.68.08c-.14,0-.23-.59-.25-1.78-.03-1.19-.06-1.79-.12-1.8-.06.05-.14.16-.23.33-1.41,2.53-3.02,3.79-4.85,3.79-2.07,0-3.78-1.31-5.11-3.94-1.26-2.48-1.89-5.46-1.89-8.96s.64-6.69,1.91-9.17c1.34-2.6,3.08-3.89,5.22-3.89,1.29,0,2.42.63,3.39,1.9.44.63.88,1.27,1.31,1.92.08-.05.12-.17.12-.36v-8.3c0-.56-.02-1.42-.05-2.56s-.05-2.01-.05-2.59c0-.41.08-.61.25-.61.38,0,.94-.05,1.69-.17.75-.11,1.31-.17,1.68-.17.17,0,.26.18.26.54h0ZM222.84,69.31c0-2.05-.38-3.85-1.14-5.4-.81-1.66-1.82-2.48-3.02-2.48-1.26,0-2.31.82-3.13,2.46-.78,1.54-1.17,3.38-1.17,5.53s.41,3.83,1.22,5.35c.83,1.6,1.86,2.41,3.08,2.41s2.25-.81,3.05-2.43c.74-1.52,1.11-3.33,1.11-5.43h0Z"/>
    <path class="cls-3" d="M233.44,51.1c0,2.1-.7,3.15-2.11,3.15s-2.14-1.05-2.14-3.15c0-.94.22-1.72.66-2.33.41-.58.9-.87,1.48-.87s1.07.3,1.49.9c.42.6.62,1.37.62,2.3ZM233.33,58.04c0,1.31-.05,3.3-.15,5.96-.1,2.66-.15,4.65-.15,5.98,0,1.25.02,3.11.05,5.6.03,2.48.05,4.34.05,5.57,0,.36-.09.54-.28.54h-3c-.22,0-.32-.35-.32-1.05,0-1.18.02-2.95.05-5.31.04-2.36.05-4.15.05-5.34,0-1.33-.06-3.33-.18-5.99-.12-2.66-.18-4.66-.18-5.99,0-.29.11-.44.32-.44.18,0,.47.04.85.13.39.09.68.13.87.13s.48-.04.87-.13c.38-.09.68-.13.87-.13.17,0,.26.16.26.49l.02-.02Z"/>
    <path class="cls-3" d="M247.81,76.86c0,.09-.08.69-.23,1.82-.16,1.21-.26,1.96-.28,2.25-.04.6-.13.9-.28.9-.36,0-.84-.03-1.45-.1-.69-.09-1.17-.14-1.43-.15-.69-.03-1.67-.05-2.96-.05-1,0-2.1.07-3.31.2-1.52.17-2.17.26-1.96.26-.22,0-.35-.15-.42-.46-.14-.82-.22-1.78-.22-2.87,0-.15,0-.37.02-.65.01-.28.02-.49.02-.63,0-.24.11-.52.33-.86.22-.33,1.32-2.27,3.29-5.8,1-1.72,2.41-4.38,4.24-7.97h-6.79c-.16,0-.25-.18-.25-.54,0-.5.06-1.23.19-2.21.13-.98.19-1.71.19-2.19,0-.2.14-.31.43-.31.58,0,1.43.04,2.57.13s2,.13,2.57.13c2.81,0,4.4.03,4.76.1.26.05.39.23.39.54,0,2.58-.06,4.03-.19,4.35-.1.24-.99,1.92-2.67,5.05-1.08,2.03-2.71,5.05-4.88,9.07,3.42-.15,6.07-.23,7.95-.23.24,0,.35.08.35.23h.02Z"/>
    <path class="cls-3" d="M253.66,51.1c0,2.1-.7,3.15-2.11,3.15s-2.14-1.05-2.14-3.15c0-.94.22-1.72.66-2.33.41-.58.9-.87,1.48-.87s1.07.3,1.49.9c.42.6.62,1.37.62,2.3ZM253.56,58.04c0,1.31-.05,3.3-.15,5.96-.1,2.66-.15,4.65-.15,5.98,0,1.25.02,3.11.05,5.6.03,2.48.05,4.34.05,5.57,0,.36-.09.54-.28.54h-3c-.22,0-.32-.35-.32-1.05,0-1.18.02-2.95.05-5.31.04-2.36.05-4.15.05-5.34,0-1.33-.06-3.33-.18-5.99-.12-2.66-.18-4.66-.18-5.99,0-.29.11-.44.32-.44.18,0,.47.04.85.13.39.09.68.13.87.13s.48-.04.87-.13c.38-.09.68-.13.87-.13.17,0,.26.16.26.49l.02-.02Z"/>
    <path class="cls-3" d="M270.18,81.22c0,.38-.1.56-.31.56-.34,0-.85,0-1.52-.03-.67-.02-1.18-.03-1.52-.03-.19,0-.28-.25-.28-.74,0-.84.02-2.11.05-3.82s.05-2.99.05-3.84c0-.68,0-1.7-.02-3.06-.01-1.36-.02-2.38-.02-3.06,0-1.95-.17-3.32-.51-4.12-.41-.96-1.17-1.43-2.28-1.43-.51,0-1.23.48-2.14,1.43-.97,1.01-1.45,1.9-1.45,2.69v15.37c0,.43-.1.64-.29.64-.33,0-.82,0-1.48-.03-.66-.02-1.15-.03-1.48-.03-.22,0-.32-.2-.32-.59,0-1.35.01-3.37.04-6.07s.04-4.73.04-6.1c0-3.64-.23-6.99-.69-10.07-.03-.15-.05-.26-.05-.33,0-.17.07-.29.2-.36.07-.02.66-.17,1.76-.47s1.68-.45,1.73-.45c.06,0,.1.14.12.41.05,1.06.17,2.13.35,3.2.53-.7,1.24-1.57,2.11-2.61,1.08-1.09,2.12-1.64,3.13-1.64,1.93,0,3.25.93,3.96,2.79.52,1.37.79,3.58.79,6.63,0,.53,0,1.34-.02,2.43-.02,1.09-.02,1.91-.02,2.46,0,1.14.01,2.85.03,5.12.02,2.27.03,3.98.03,5.12v.03Z"/>
    <path class="cls-3" d="M283.43,76.73c0,.09-.07.73-.2,1.91-.14,1.27-.22,2.06-.24,2.37-.04.63-.12.94-.24.94-.31,0-.73-.04-1.26-.11-.6-.09-1.01-.14-1.24-.16-.6-.04-1.45-.05-2.57-.05-.86,0-1.82.07-2.88.22-1.32.18-1.89.27-1.7.27-.19,0-.31-.16-.36-.48-.12-.86-.19-1.87-.19-3.01,0-.16,0-.39.01-.69,0-.29.01-.52.01-.66,0-.25.1-.55.29-.9.19-.35,1.14-2.38,2.86-6.1.86-1.81,2.09-4.6,3.68-8.37h-5.9c-.14,0-.21-.19-.21-.57,0-.52.06-1.3.17-2.33.11-1.03.17-1.8.17-2.3,0-.22.12-.32.37-.32.5,0,1.24.04,2.23.13.99.09,1.73.13,2.23.13,2.44,0,3.82.04,4.13.11.22.05.33.24.33.57,0,2.71-.05,4.23-.16,4.58-.09.25-.86,2.02-2.31,5.3-.94,2.14-2.35,5.31-4.24,9.53,2.97-.16,5.27-.24,6.9-.24.2,0,.31.08.31.24h0Z"/>
    <path class="cls-3" d="M296.37,67.39c0,1.33-.29,2.22-.86,2.66-.38.29-3.14.82-8.28,1.59.12,1.58.55,2.92,1.3,4.04.71,1.06,1.48,1.59,2.3,1.59,1.41,0,2.7-.92,3.88-2.75l.43-.7c.07,0,.12.02.14.05s.19.66.5,1.87c.31,1.21.47,1.86.47,1.95,0,.11-.07.31-.21.62-1.31,2.8-2.99,4.2-5.04,4.2s-3.72-1.24-4.95-3.73c-1.23-2.48-1.85-5.8-1.85-9.94,0-3.7.59-6.92,1.77-9.66,1.24-2.85,2.76-4.28,4.56-4.28,1.68,0,3.08,1.24,4.2,3.71,1.1,2.4,1.65,5.33,1.65,8.77h0ZM293.18,65.74c0-1.49-.29-2.81-.88-3.96-.58-1.15-1.24-1.72-1.97-1.72-.82,0-1.55.66-2.19,1.99s-.96,2.82-.96,4.47c0,.38.16.57.48.57,1.32,0,2.9-.27,4.74-.81.52-.14.78-.32.78-.54Z"/>
    <path class="cls-3" d="M310.02,81.3c0,.39-.09.59-.27.59-.29,0-.73,0-1.32-.03-.58-.02-1.02-.03-1.32-.03-.16,0-.24-.26-.24-.78,0-.88.01-2.22.04-4.01s.04-3.14.04-4.04c0-.72,0-1.79-.01-3.22,0-1.43-.01-2.5-.01-3.22,0-2.05-.15-3.49-.44-4.33-.36-1-1.02-1.51-1.98-1.51-.45,0-1.07.5-1.86,1.51-.84,1.06-1.26,2-1.26,2.83v16.15c0,.45-.09.67-.25.67-.28,0-.71,0-1.28-.03-.57-.02-1-.03-1.28-.03-.19,0-.28-.21-.28-.62,0-1.42.01-3.54.03-6.38.02-2.84.03-4.97.03-6.41,0-3.82-.2-7.35-.6-10.58-.03-.16-.04-.28-.04-.35,0-.18.06-.31.17-.38.06-.02.57-.18,1.53-.5.96-.31,1.46-.47,1.5-.47.05,0,.09.14.11.43.04,1.11.15,2.23.31,3.36.46-.74,1.07-1.65,1.83-2.75.94-1.15,1.84-1.72,2.72-1.72,1.68,0,2.82.98,3.44,2.93.45,1.44.68,3.76.68,6.97,0,.56,0,1.41-.02,2.56-.01,1.15-.02,2.01-.02,2.58,0,1.2,0,3,.03,5.38.02,2.39.03,4.18.03,5.38v.05Z"/>
    <path class="cls-3" d="M320.02,76.89c0,.39-.02.93-.05,1.61-.04.84-.07,1.39-.08,1.64,0,.32-.02.52-.04.59-.04.13-.12.25-.25.38-.73.7-1.88,1.05-3.45,1.05-2.09,0-3.13-1.9-3.13-5.71,0-1.53.02-3.82.05-6.88.04-3.06.05-5.35.05-6.88,0-.74-.18-1.13-.55-1.18-.33,0-.65,0-.98-.03-.19-.09-.28-.83-.28-2.21,0-.52.02-1.07.05-1.64.03-.43.17-.69.43-.78.22,0,.44,0,.65-.03.41-.04.62-.4.62-1.1s-.01-1.81-.03-3.28-.03-2.57-.03-3.31c0-1.31.12-1.96.37-1.96.08,0,.92.28,2.51.83.2.05.31.25.31.59,0,.79-.03,1.97-.09,3.55s-.09,2.76-.09,3.55c0,.52.12.78.36.78h3.21c.15,0,.23.11.23.32s-.02.56-.05,1.04-.05.83-.05,1.06c0,.27,0,.68.01,1.24s.01.97.01,1.24c0,.34-.12.51-.37.51-.36,0-.9-.05-1.62-.15s-1.26-.15-1.62-.15c-.07,0-.12.51-.16,1.53-.04,1.27-.07,3.06-.07,5.36v4.01c0,1.54.07,2.62.21,3.23.21.93.66,1.4,1.32,1.4.28,0,.68-.12,1.22-.36s.93-.36,1.19-.36c.11,0,.16.16.16.48l.03.02Z"/>
    <path class="cls-3" d="M329.58,56.57c0,1.97-.07,3.77-.2,5.38-.03.41-.12.62-.27.62-.19,0-.47-.04-.85-.12s-.67-.12-.86-.12c-1.12,0-1.84.64-2.15,1.91-.19.77-.28,2.38-.28,4.82v2.96c0,1,.02,2.53.06,4.58s.06,3.57.06,4.58c0,.48-.1.73-.31.73-.28,0-.7,0-1.26-.03s-.98-.03-1.26-.03c-.21,0-.31-.22-.31-.67,0-1.45.01-3.64.03-6.57.02-2.92.03-5.12.03-6.59,0-4.43-.21-7.99-.62-10.69-.02-.14-.03-.25-.03-.32,0-.22.06-.37.17-.46.33-.07.79-.18,1.39-.32.96-.36,1.41-.54,1.34-.54.14,0,.24.53.28,1.59s.12,1.59.24,1.59c.02,0,.04-.02.07-.05.37-.47.73-.93,1.1-1.4.4-.48.81-.84,1.23-1.08.35-.22.79-.32,1.34-.32.7,0,1.04.19,1.04.57l.02-.02Z"/>
    <path class="cls-3" d="M343.44,57.43c0,1.31-.03,3.29-.08,5.94s-.08,4.63-.08,5.96.02,3.27.06,5.88c.04,2.61.06,4.57.06,5.88,0,.36-.09.59-.25.7-.07.04-.98.05-2.72.05-.11,0-.17-.67-.19-2.02s-.07-2.02-.15-2.02c-.04,0-.11.08-.2.24-1.49,2.6-2.96,3.9-4.41,3.9-1.97,0-3.27-1.44-3.91-4.31-.39-1.78-.59-4.97-.59-9.58,0-4.16.16-7.69.49-10.58.08-.7.23-1.05.44-1.05.26,0,.65,0,1.16.03s.91.03,1.16.03c.18,0,.27.2.27.59,0,.7-.06,1.87-.17,3.5-.13,1.74-.19,2.97-.2,3.69-.03,1.08-.04,2.26-.04,3.55,0,3.14.11,5.25.33,6.33.38,1.94,1.23,2.91,2.56,2.91.56,0,1.23-.56,1.99-1.67.81-1.17,1.23-2.29,1.26-3.36.04-1.35.07-6.08.07-14.21,0-.88.18-1.32.55-1.32h2.21c.26,0,.39.31.39.94h0Z"/>
    <path class="cls-3" d="M366.5,80.84c0,.7-.1,1.05-.31,1.05-.13,0-.34-.03-.61-.08s-.48-.08-.62-.08c-.15,0-.38.02-.68.05s-.53.05-.68.05c-.19,0-.28-.42-.28-1.27s.02-2.06.05-3.7.05-2.88.05-3.7c0-4.54,0-7.07-.03-7.59-.07-1.85-.26-3.12-.56-3.82-.35-.75-.97-1.13-1.86-1.13-.56,0-1.2.54-1.9,1.61-.73,1.13-1.11,2.24-1.14,3.34-.04,1.4-.05,3.96-.05,7.67,0,.88.02,2.2.05,3.96.04,1.76.05,3.08.05,3.96,0,.48-.08.73-.24.73s-.39-.03-.7-.08-.54-.08-.7-.08c-.14,0-.35.02-.63.05-.28.04-.49.05-.63.05-.18,0-.27-.26-.27-.78,0-.86.01-2.16.04-3.89s.04-3.03.04-3.89v-6.49c0-2.03-.12-3.47-.36-4.33-.34-1.22-.99-1.83-1.94-1.83-.56,0-1.23.48-2.01,1.43-.86,1.04-1.28,2.09-1.28,3.15v7.86c0,.9,0,2.23.01,4.01,0,1.78.01,3.1.01,3.98,0,.52-.1.78-.31.78h-2.49c-.18,0-.27-.24-.27-.73,0-1.45,0-3.64.01-6.55,0-2.92.01-5.1.01-6.55,0-3.28-.17-6.56-.52-9.82-.03-.23-.04-.42-.04-.57,0-.23.04-.37.12-.4.33-.07.81-.21,1.44-.4.29-.18.74-.38,1.32-.59l.11-.03c.11,0,.21.63.3,1.9.09,1.26.18,1.9.25,1.9l.67-1.18c.53-.92,1.05-1.64,1.58-2.18.76-.79,1.52-1.18,2.27-1.18,2.05,0,3.36,1.69,3.92,5.06.55-1.44,1.24-2.62,2.06-3.55.87-1,1.74-1.51,2.59-1.51,1.65,0,2.79.97,3.42,2.91.46,1.44.68,3.71.68,6.81,0,.59,0,1.51-.03,2.75s-.03,2.15-.03,2.75c0,1.13.01,2.83.04,5.1s.04,3.97.04,5.1l.04-.03Z"/>
  </g>
  <path class="cls-1" d="M187.55,88.4c.13-.49.81-.78,1.73-.78s1.49.21,1.54.78l1.81,19.08c.16,1.73.99,2.4,2.2,2.58.21.07.34.28.34.57,0,.32-.21.49-.39.49h-6.6c-.24,0-.39-.21-.39-.49s.13-.53.37-.57c1.02-.07,1.33-.88,1.33-2.05,0-.42-.03-.88-.08-1.31l-1.13-14.98c0-.11,0-.14-.03-.14s-.05.04-.05.14l-5.03,18.91c-.11.32-.63.71-1.1.71-.52,0-.99-.39-1.07-.74l-4.84-18.87c-.03-.11-.03-.14-.05-.14s-.05.04-.05.14c-.08,1.2-.16,2.37-.29,3.64l-1.13,11.73c-.03.35-.05.78-.05,1.13,0,1.48.68,1.77,1.81,1.84.26.07.39.25.39.57,0,.28-.16.49-.42.49h-5.42c-.18,0-.37-.18-.37-.49,0-.28.1-.49.34-.57,1.23-.14,1.86-.95,2.04-2.58l1.99-19.08c.1-.57.79-.78,1.7-.78s1.44.25,1.54.78l4.48,17.74c.03.14.05.18.1.18.03,0,.08-.04.1-.18l4.66-17.74h.02Z"/>
  <path class="cls-1" d="M198.14,100.48c-.65,0-1.49-.78-1.49-1.59s.86-2.23,1.44-2.93c1.2-1.45,2.72-2.26,4.29-2.26,2.25,0,4.32,1.73,4.35,5.79l-.21,6.93c0,1.7.55,2.93,1.6,2.93.29,0,.58-.07.65-.07.11.03.16.14.16.32,0,.92-1.68,1.73-2.67,1.73-1.7,0-2.23-1.77-2.23-3.32,0-.03-.03-.07-.08-.07s-.08.04-.08.07c-.76,2.3-2.33,3.46-3.93,3.46-2.17,0-3.51-2.33-3.51-5.3,0-2.16,4.35-3.89,6.99-4.52.31-.07.63-.21.63-1.02,0-3.39-1.28-4.52-2.85-4.52-.94,0-2.17.32-2.17,1.24,0,2.16-.26,3.14-.89,3.14h0ZM201.22,108.97c2.51,0,2.8-3.96,2.8-6.04,0-.11-.03-.18-.1-.18-.65,0-4.79,1.77-4.79,2.9,0,1.84.81,3.32,2.09,3.32h0Z"/>
  <path class="cls-1" d="M212.2,100.48c-.65,0-1.49-.78-1.49-1.59s.86-2.23,1.44-2.93c1.2-1.45,2.72-2.26,4.29-2.26,2.25,0,4.32,1.73,4.35,5.79l-.21,6.93c0,1.7.55,2.93,1.6,2.93.29,0,.58-.07.65-.07.11.03.16.14.16.32,0,.92-1.68,1.73-2.67,1.73-1.7,0-2.22-1.77-2.22-3.32,0-.03-.03-.07-.08-.07s-.08.04-.08.07c-.76,2.3-2.33,3.46-3.93,3.46-2.17,0-3.51-2.33-3.51-5.3,0-2.16,4.35-3.89,6.99-4.52.31-.07.63-.21.63-1.02,0-3.39-1.28-4.52-2.85-4.52-.94,0-2.17.32-2.17,1.24,0,2.16-.26,3.14-.89,3.14h-.01ZM215.29,108.97c2.51,0,2.8-3.96,2.8-6.04,0-.11-.03-.18-.11-.18-.65,0-4.79,1.77-4.79,2.9,0,1.84.81,3.32,2.09,3.32h.01Z"/>
  <path class="cls-1" d="M231.76,95.68h-1.73c-2.12,0-3.72.85-4.56,3.82-.1.25-.18.35-.34.35-.18,0-.26-.14-.31-.39-.03-.14-.03-.71-.03-1.06,0-2.51.18-4.24,2.44-4.24h7.78c.21,0,.39.18.39.6,0,.25-.08.35-.21.6-.26.46-.76,1.13-1.41,2.4l-5.99,11.8h2.2c2.12,0,3.85-.95,4.74-4.38.05-.18.18-.32.34-.32s.21.14.26.35c.05.28.08.78.08,1.31,0,2.79-.39,4.59-2.67,4.59h-8.32c-.21,0-.39-.14-.39-.57,0-.21.05-.35.21-.6.29-.42.76-1.13,1.41-2.4l6.13-11.87h-.02Z"/>
  <path class="cls-1" d="M250.1,101.62c0,4.77-2.33,9.86-6.89,9.86-3.95,0-5.71-3.75-5.71-7.84,0-4.77,2.43-9.97,6.91-9.97,3.82,0,5.68,3.85,5.68,7.95h.01ZM239.73,101.65c0,3.53,1.68,7.46,4.61,7.46,2.41,0,3.51-2.62,3.51-5.44,0-3.53-1.68-7.63-4.58-7.63-2.41,0-3.53,2.72-3.53,5.62h-.01Z"/>
  <path class="cls-1" d="M262.25,98.82c0-1.38-.6-1.87-1.94-1.87-.1-.11-.13-.32-.13-.49,0-.35.16-.67.5-.74.89-.21,1.81-.81,2.54-1.45.34-.32.68-.64,1.07-.64.31,0,.6.14.76.46l-.31,12.05c0,1.66.37,2.93,1.44,3.04h.84c.11.04.18.14.18.35,0,.14-.05.28-.13.35-.6.74-1.52,1.45-2.54,1.45-1.7,0-2.36-1.52-2.36-3.36,0-.39.03-.78.08-1.2,0-.11-.03-.14-.05-.14-.05,0-.08.03-.08.11-.81,2.83-2.67,4.77-4.82,4.77-2.93,0-3.72-3-3.72-5.94l.18-6.75c0-1.38-.68-1.87-1.99-1.87-.1-.11-.16-.32-.16-.49,0-.35.16-.67.52-.74.84-.21,1.81-.81,2.49-1.45.37-.32.65-.64,1.1-.64.29,0,.58.14.73.46l-.26,9.82c0,2.44.39,4.7,2.46,4.7,2.51,0,3.48-3.29,3.53-6.22l.05-3.57h.02Z"/>
  <path class="cls-1" d="M274.05,106.6c0,1.73.16,3.14,1.72,3.46.21.04.35.25.35.53,0,.32-.16.53-.4.53h-6.23c-.16,0-.34-.18-.37-.49,0-.32.13-.46.34-.57,1.7-.49,1.88-1.98,1.94-3.71l.4-15.72c0-1.34-.77-1.84-2.12-1.84-.08-.14-.13-.35-.13-.53,0-.32.19-.6.5-.71.9-.21,1.93-.81,2.65-1.45.37-.32.66-.64,1.14-.64.27,0,.56.14.72.46l-.5,20.67h-.01Z"/>
  <path class="cls-3" d="M12.5,128.88C-11.94,89.7.55,37.83,40.4,13.03,80.26-11.77,132.38-.11,156.83,39.07c1.26,2.02,2.43,4.07,3.49,6.16-.58-1.03-1.18-2.03-1.81-3.05-.08-.13-.16-.26-.25-.38-.06-.12-.14-.24-.21-.35C135.52,5.33,87.24-5.26,50.21,17.77,13.18,40.81,1.44,88.75,23.97,124.87c22.53,36.11,70.8,46.71,107.83,23.67.71-.44,1.4-.89,2.09-1.34.63-.36,1.24-.74,1.86-1.12,10.32-6.42,18.49-15.03,24.27-24.89-6.84,13.37-17.33,25.16-31.09,33.72-39.85,24.8-91.98,13.14-116.43-26.05v.02Z"/>
  <path class="cls-2" d="M30.69,82.5h36.3c.43,0,.83-.25,1.02-.63l5.61-11.46c.44-.91,1.76-.82,2.09.13l5.04,14.92c.36,1.05,1.86,1.01,2.16-.05l6.28-22.17c.3-1.07,1.82-1.1,2.16-.04l7,21.63c.33,1.03,1.79,1.05,2.14.02l.25-.73c.33-.95,1.22-1.59,2.23-1.59h46.31c.62,0,1.13-.51,1.13-1.13v-20.44c0-.62-.49-1.13-1.12-1.13h-33c-.62,0-1.13-.51-1.13-1.13V25.39c0-.62-.51-1.13-1.13-1.13h-46.74c-.62,0-1.13.51-1.13,1.13v33.31c0,.62-.51,1.13-1.13,1.13H31.82c-.62,0-1.13.51-1.13,1.13v21.53"/>
  <path class="cls-4" d="M31.92,85.81h37.65c.34,0,.66-.19.81-.5l3.28-6.57c.36-.71,1.4-.65,1.66.1l6.42,18.18c.3.84,1.49.79,1.72-.06l6.14-22.69c.23-.86,1.43-.9,1.73-.06l7.45,21.46c.28.81,1.44.81,1.71,0l3.15-9.41c.12-.37.47-.62.86-.62h45.42c.5,0,.91.41.9.91l-.06,21.34c0,.5-.41.9-.9.9h-33.55c-.5,0-.9.4-.9.9v33.3c0,.5-.4.9-.9.9h-47.33c-.5,0-.9-.4-.9-.9v-33.3c0-.5-.4-.9-.9-.9H31.84c-.5,0-.91-.41-.9-.91l.08-21.16c0-.5.41-.9.9-.9h0Z"/>
</svg>