<?xml version="1.0" encoding="UTF-8"?>
<svg id="Ebene_1" xmlns="http://www.w3.org/2000/svg" xmlns:xlink="http://www.w3.org/1999/xlink" viewBox="0 0 270.72 85.99">
  <defs>
    <style>
      .cls-1 {
        fill: #52c1dd;
      }

      .cls-2 {
        fill: none;
      }

      .cls-3 {
        clip-path: url(#clippath-1);
      }

      .cls-4 {
        clip-path: url(#clippath-2);
      }

      .cls-5 {
        clip-path: url(#clippath);
      }
    </style>
    <clipPath id="clippath">
      <rect class="cls-2" width="270.72" height="85.99"/>
    </clipPath>
    <clipPath id="clippath-1">
      <rect class="cls-2" width="270.72" height="85.99"/>
    </clipPath>
    <clipPath id="clippath-2">
      <rect class="cls-2" width="270.72" height="85.99"/>
    </clipPath>
  </defs>
  <g class="cls-5">
    <path class="cls-1" d="M30.48,16.5l1.13-6.47h-10.31c-2.34,0-4.1.78-4.52,3.18-.43,2.45,1.04,3.29,3.38,3.29h10.31ZM38.42,39.03h-11.88l2.43-13.88h-8.08l-7.34,13.88H0l8.69-15.22c-3.87-1.78-5.67-5.52-4.72-10.98C5.38,4.8,11.63,0,20.1,0h25.14l-6.83,39.03Z"/>
  </g>
  <polygon class="cls-1" points="48.65 0 41.83 39.03 74.89 39.03 76.64 28.99 56.18 28.99 56.96 24.53 77.42 24.53 79.18 14.5 58.72 14.5 59.5 10.03 79.96 10.03 81.71 0 48.65 0"/>
  <polygon class="cls-1" points="113.22 0 101.28 28.43 100.22 28.43 98.28 0 85.12 0 88.67 39.03 109.01 39.03 126.21 0 113.22 0"/>
  <g class="cls-3">
    <path class="cls-1" d="M149.65,19.46c.8-4.6-1.61-7.91-6.15-7.91s-8.12,3.31-8.92,7.91c-.81,4.65,1.6,7.96,6.14,7.96s8.12-3.31,8.93-7.96M122.12,19.46C124.19,7.64,134.29,0,145.63,0s18.77,7.64,16.7,19.46c-2.16,12.35-12.2,19.57-23.53,19.57s-18.84-7.22-16.68-19.57"/>
  </g>
  <polygon class="cls-1" points="169.19 0 162.36 39.03 190.63 39.03 192.39 28.99 176.94 28.99 182.01 0 169.19 0"/>
  <polygon class="cls-1" points="221.24 0 209.29 28.43 208.24 28.43 206.3 0 193.14 0 196.68 39.03 217.03 39.03 234.23 0 221.24 0"/>
  <polygon class="cls-1" points="237.66 0 230.83 39.03 263.89 39.03 265.65 28.99 245.19 28.99 245.97 24.53 266.43 24.53 268.18 14.5 247.72 14.5 248.5 10.03 268.96 10.03 270.72 0 237.66 0"/>
  <polygon class="cls-1" points="0 46.39 0 50.85 11.6 50.85 11.6 85.99 16.34 85.99 16.34 50.85 27.94 50.85 27.94 46.39 0 46.39"/>
  <polygon class="cls-1" points="38 46.39 35.3 46.39 35.3 85.99 40.04 85.99 60.74 85.99 60.74 81.52 40.04 81.52 40.04 68.56 57.74 68.56 57.74 64.09 40.04 64.09 40.04 50.85 60.74 50.85 60.74 46.39 38 46.39"/>
  <g class="cls-4">
    <path class="cls-1" d="M74.64,84.2c-2.08-1.19-3.69-2.88-4.84-5.07-1.14-2.19-1.72-4.72-1.72-7.6v-10.65c0-2.88.57-5.42,1.72-7.61,1.14-2.19,2.76-3.88,4.84-5.08,2.08-1.2,4.49-1.8,7.23-1.8,2.27,0,4.36.46,6.26,1.39,1.91.92,3.5,2.24,4.78,3.95,1.28,1.71,2.15,3.68,2.6,5.93h-4.79c-.4-1.34-1.05-2.52-1.95-3.56-.9-1.04-1.95-1.85-3.16-2.41-1.21-.57-2.46-.85-3.75-.85-1.8,0-3.37.42-4.72,1.25-1.35.84-2.4,2.01-3.15,3.52-.74,1.51-1.12,3.27-1.12,5.28v10.65c0,1.99.37,3.75,1.12,5.27.74,1.52,1.79,2.7,3.15,3.52,1.35.83,2.93,1.24,4.72,1.24,1.31,0,2.56-.27,3.76-.8,1.2-.53,2.25-1.32,3.15-2.35.9-1.03,1.55-2.26,1.95-3.68h4.79c-.45,2.24-1.33,4.22-2.62,5.92-1.29,1.71-2.89,3.02-4.79,3.95-1.91.92-3.99,1.39-6.24,1.39-2.74,0-5.15-.6-7.23-1.79"/>
  </g>
  <polygon class="cls-1" points="126.19 46.39 126.19 64.2 107.61 64.2 107.61 46.39 102.88 46.39 102.88 85.99 107.61 85.99 107.61 68.72 126.19 68.72 126.19 85.99 130.93 85.99 130.93 46.39 126.19 46.39"/>
</svg>