<?xml version="1.0" encoding="UTF-8"?>
<svg id="Ebene_1" xmlns="http://www.w3.org/2000/svg" xmlns:xlink="http://www.w3.org/1999/xlink" viewBox="0 0 823.82 279.18">
  <defs>
    <style>
      .cls-1 {
        fill: #2178ab;
      }

      .cls-2 {
        fill: none;
      }

      .cls-3 {
        clip-path: url(#clippath);
      }

      .cls-4 {
        fill: #d7731a;
      }
    </style>
    <clipPath id="clippath">
      <rect class="cls-2" x="0" y=".01" width="823.8" height="279.17"/>
    </clipPath>
  </defs>
  <g class="cls-3">
    <g>
      <path class="cls-1" d="M141.19,204.89c3.42,0,9.12-.49,14.81-1.14,6.67-.82,10.25-1.14,14.32-2.76,3.26-1.3,8.46-3.91,13.83-9.61-.66,2.93-1.95,7.49-5.04,12.21-1.3,1.79-4.88,7.33-11.4,10.91-7,3.91-14,3.42-16.77,3.42-72.93-.33-109.39-.16-113.29,0-1.14,0-4.72.16-6.67-2.28-1.79-2.12-2.12-5.86-.49-8.13,1.96-2.76,6.34-2.61,7.98-2.61,16.93-.16,31.58-.16,50.3-.16"/>
      <path class="cls-1" d="M71.51,102.33c4.24,1.14,8.79,1.63,11.24,1.79,14.98.16,28.16.16,29.95.16,19.37-.33,34.18,10.42,37.27,12.53,4.07,2.93,17.58,12.86,21.81,29.63,1.3,4.88,2.76,11.73-.66,18.56-3.09,6.19-8.79,9.12-11.23,10.09.33-4.72.49-12.21-2.28-20.83-3.91-12.7-11.4-20.35-12.86-21.81-1.79-1.79-10.09-9.77-23.6-13.35-6.34-1.63-7.33-.97-26.86-1.14-21.81-.16-25.23-2.12-27.51-3.25-10.42-4.72-15.95-13.35-17.9-16.61-6.34-11.23-5.37-22.47-5.04-26.05h13.83c-.16,3.42-1.3,10.74.97,17.9,1.63,5.86,5.04,10.09,12.86,12.37M146.23,177.05h-13.67c.16-3.42,0-10.25-3.75-17.25-1.46-2.76-4.72-8.95-11.72-12.21-3.91-1.79-7.49-1.95-9.77-1.95-14.81-.33-27.84,0-29.63,0-19.37.33-34.51-10.42-37.44-12.7-4.07-2.93-17.58-12.86-21.81-29.63-1.3-4.88-2.76-11.73.66-18.56,3.09-6.19,8.79-9.12,11.24-10.09-.33,4.72-.49,12.21,2.28,20.83,3.91,12.7,11.4,20.35,12.86,21.81,1.79,1.79,10.09,9.77,23.6,13.35,6.34,1.63,7.16,1.3,26.86,1.14,21.49,0,25.23,2.12,27.51,3.09,10.42,4.72,15.95,13.35,17.9,16.6,6.34,11.07,5.37,21.98,4.88,25.56M83.88,72.55c14.16-.49,21.16-.66,31.75-.33,4.07.16,10.42,0,23.27-.16,14.98-.16,22.63-.33,25.72-1.46,8.62-3.09,19.53-11.24,22.79-24.58,3.58-15.31-5.37-27.35-6.67-29.14-5.86-7.49-13.19-10.58-18.56-12.53-9.77-3.75-17.09-3.09-36.13-3.09-32.88,0-40.37-.66-56,1.79-7,1.14-14,2.61-22.3,6.19-7.82,3.58-13.67,7.65-17.41,10.74,3.42-.82,8.62-1.79,14.81-2.93,6.67-1.14,20.51-.82,24.09-.82,13.35,0,42.81.16,80.25-.16,1.46,0,11.4.16,18.23,8.13.33.49,8.46,10.42,4.4,20.84-2.93,7.82-7.49,10.09-14.49,12.37-6.19,1.95-11.24,1.79-12.53,1.79-12.86.16-53.71.33-109.23,0-5.04.16-14.49,1.14-22.3,8.3-17.58,16.11-6.83,46.55-6.19,48.18,8.13,21.98,28.98,31.58,37.6,35.48,11.24,5.21,21.49,6.67,23.6,7,19.37,2.76,40.21-1.14,45.74,5.04,2.45,2.76,2.45,5.7,2.45,5.7,0,.33,0,2.93-1.96,5.04-2.28,2.61-6.19,2.45-7.81,2.45h-51.12c-21.81.16-32.23-.82-41.51,6.34C5.9,189.25-.61,200.81.05,213.34c.97,15.62,12.86,25.23,14.81,26.69,10.74,8.46,17.9,6.67,66.57,6.67,25.72,0,28.98.33,41.84-1.3,19.53-2.28,35.16-15.46,35.16-15.46,0,0-7.82.66-23.11,1.96-9.94.82-11.88.97-31.09.97h-58.28c-11.56,0-17.25-.49-22.3-4.07-11.56-8.46-12.21-20.02-7-29.14,2.93-5.05,8.13-7.65,9.94-8.46,5.86-2.76,11.07-2.76,13.35-2.76,6.19,0,79.27.97,106.95.16,5.21-.16,13.51-.49,21.49-5.7,12.86-8.46,15.62-19.7,15.79-25.23.49-14.32-5.04-25.39-10.09-33.69-2.28-3.91-12.7-20.35-35.33-28.98-13.02-5.04-26.05-5.37-34.51-5.7-17.58-.66-26.86,1.46-30.93-3.42-2.28-2.61-2.93-7.49-.82-10.09,2.76-2.93,7.33-3.09,11.4-3.25"/>
      <path class="cls-1" d="M47.74,44.22c-3.42,0-9.12.49-14.81,1.14-6.67.82-10.25,1.14-14.32,2.76-3.25,1.3-8.46,3.91-13.83,9.61.66-2.93,1.95-7.49,5.04-12.21,1.3-1.79,4.72-7.49,11.4-10.91,7-3.58,14-3.42,16.77-3.42,72.93.33,109.39,0,113.29-.16,1.14,0,4.72-.16,6.67,2.28,1.79,2.12,2.12,5.86.49,8.13-1.96,2.76-6.34,2.61-7.98,2.61-16.93.16-31.58.16-50.3.16"/>
      <path class="cls-1" d="M262.22,122.19c-7.75,0-14.64-1.08-20.67-3.23-6.03-2.15-11.79-5.71-17.28-10.66-1.19-.86-2.08-1.91-2.67-3.15s-.89-2.5-.89-3.79c0-2.04.75-3.88,2.27-5.49,1.5-1.62,3.39-2.43,5.65-2.43,1.72,0,3.34.59,4.84,1.78,4.09,3.77,8.37,6.62,12.84,8.56s9.71,2.9,15.74,2.9c4.3,0,8.26-.7,11.86-2.1,3.6-1.4,6.48-3.28,8.64-5.65,2.15-2.36,3.23-5.12,3.23-8.24,0-3.88-1.1-7.08-3.32-9.61-2.2-2.53-5.38-4.63-9.52-6.3-4.14-1.66-9.12-3.09-14.94-4.28-5.38-.97-10.2-2.32-14.46-4.04s-7.89-3.9-10.9-6.54c-3.02-2.64-5.33-5.78-6.95-9.45-1.61-3.65-2.43-7.91-2.43-12.75,0-6.57,1.73-12.21,5.17-16.96,3.44-4.73,8.12-8.4,14.05-10.98,5.92-2.58,12.59-3.88,20.02-3.88,6.78,0,13.13,1.05,19.06,3.15s10.71,4.93,14.37,8.47c2.58,2.27,3.88,4.68,3.88,7.27,0,1.94-.78,3.74-2.34,5.41s-3.37,2.5-5.41,2.5c-1.5,0-2.8-.42-3.88-1.29-1.73-1.83-4.04-3.47-6.94-4.93s-6.01-2.66-9.29-3.63c-3.28-.97-6.43-1.45-9.45-1.45-4.84,0-8.99.68-12.44,2.02s-6.08,3.18-7.91,5.49c-1.83,2.32-2.74,5.03-2.74,8.16,0,3.66,1.05,6.67,3.15,9.05,2.1,2.37,5.03,4.28,8.8,5.73,3.77,1.45,8.07,2.78,12.91,3.95,5.92,1.29,11.23,2.74,15.91,4.36,4.68,1.61,8.64,3.69,11.86,6.22,3.23,2.53,5.71,5.68,7.43,9.45s2.58,8.45,2.58,14.05c0,6.46-1.83,12.12-5.49,16.96-3.66,4.84-8.47,8.61-14.46,11.3-5.97,2.69-12.63,4.04-19.95,4.04"/>
      <path class="cls-1" d="M362.98,34.18c7.43,0,13.19,1.59,17.28,4.77s6.97,7.46,8.64,12.84c1.67,5.38,2.5,11.3,2.5,17.76v42.79c0,2.37-.78,4.33-2.34,5.89s-3.47,2.34-5.73,2.34-4.3-.78-5.82-2.34c-1.5-1.56-2.27-3.53-2.27-5.89v-42.79c0-3.77-.51-7.21-1.54-10.34s-2.8-5.59-5.33-7.43c-2.53-1.83-6.06-2.74-10.58-2.74-4.19,0-7.93.91-11.22,2.74-3.28,1.83-5.82,4.3-7.58,7.43-1.78,3.12-2.67,6.57-2.67,10.34v42.79c0,2.37-.78,4.33-2.34,5.89-1.57,1.56-3.47,2.34-5.73,2.34s-4.31-.78-5.82-2.34c-1.5-1.56-2.27-3.53-2.27-5.89V9.32c0-2.36.75-4.33,2.27-5.89,1.5-1.56,3.44-2.34,5.82-2.34s4.17.78,5.73,2.34c1.56,1.57,2.34,3.53,2.34,5.89v44.09l-2.9,1.61c.75-2.36,2.02-4.79,3.79-7.27,1.78-2.48,3.98-4.73,6.62-6.78s5.57-3.69,8.8-4.93c3.23-1.24,6.67-1.85,10.34-1.85"/>
      <path class="cls-1" d="M429.02,112.34c0,2.37-.75,4.33-2.27,5.89-1.5,1.56-3.44,2.34-5.82,2.34s-4.17-.78-5.73-2.34c-1.56-1.56-2.34-3.53-2.34-5.89V43.23c0-2.36.78-4.33,2.34-5.89s3.47-2.34,5.73-2.34,4.3.78,5.82,2.34c1.5,1.57,2.27,3.53,2.27,5.89v69.11ZM420.78,24.34c-3.12,0-5.38-.56-6.78-1.69s-2.1-3.04-2.1-5.73v-2.58c0-2.69.75-4.58,2.26-5.66,1.5-1.07,3.77-1.61,6.78-1.61,3.23,0,5.54.56,6.94,1.69,1.4,1.13,2.1,2.99,2.1,5.57v2.58c0,2.8-.73,4.73-2.18,5.82s-3.79,1.61-7.02,1.61"/>
      <path class="cls-1" d="M490.37,122.19c-8.94,0-16.68-1.85-23.25-5.57s-11.65-8.82-15.26-15.34c-3.61-6.51-5.41-13.97-5.41-22.37,0-9.47,1.91-17.57,5.73-24.3,3.82-6.73,8.8-11.9,14.94-15.5,6.13-3.6,12.65-5.41,19.53-5.41,5.27,0,10.27,1.05,15.02,3.15,4.73,2.1,8.96,5.01,12.68,8.72,3.72,3.72,6.65,8.07,8.8,13.08,2.15,5.01,3.28,10.47,3.39,16.39-.11,2.15-.96,3.93-2.58,5.33s-3.51,2.1-5.66,2.1h-62.81l-3.88-13.73h60.71l-3.07,2.9v-4.04c-.21-3.77-1.45-7.08-3.72-9.94-2.26-2.85-5.06-5.06-8.4-6.62-3.34-1.56-6.84-2.34-10.5-2.34-3.23,0-6.32.51-9.28,1.54-2.97,1.03-5.6,2.67-7.91,4.93-2.32,2.26-4.14,5.24-5.49,8.96s-2.02,8.31-2.02,13.8c0,5.92,1.24,11.09,3.72,15.5,2.48,4.42,5.82,7.83,10.01,10.25,4.21,2.43,8.82,3.63,13.89,3.63,3.98,0,7.27-.4,9.85-1.21s4.73-1.8,6.46-2.99c1.72-1.19,3.23-2.31,4.52-3.39,1.61-.96,3.23-1.45,4.84-1.45,1.94,0,3.55.68,4.84,2.02,1.29,1.35,1.94,2.93,1.94,4.77,0,2.37-1.19,4.52-3.55,6.46-2.9,2.8-6.92,5.27-12.03,7.43-5.12,2.15-10.47,3.23-16.07,3.23"/>
      <path class="cls-1" d="M562.23,112.34c0,2.37-.78,4.33-2.34,5.89-1.56,1.56-3.47,2.34-5.73,2.34s-4.17-.78-5.73-2.34c-1.56-1.56-2.34-3.53-2.34-5.89V9.32c0-2.36.81-4.33,2.43-5.89,1.61-1.56,3.55-2.34,5.82-2.34s4.28.78,5.73,2.34,2.18,3.53,2.18,5.89v103.02h-.01Z"/>
      <path class="cls-1" d="M621.32,107.33c5.17,0,9.66-1.29,13.48-3.88,3.81-2.58,6.81-6.08,8.96-10.5,2.15-4.41,3.23-9.42,3.23-15.02s-1.08-10.6-3.23-15.02c-2.16-4.42-5.17-7.91-9.05-10.5s-8.35-3.88-13.4-3.88-9.34,1.29-13.16,3.88c-3.82,2.58-6.84,6.08-9.05,10.5-2.2,4.42-3.3,9.42-3.3,15.02s1.1,10.6,3.3,15.02,5.22,7.91,9.05,10.5c3.81,2.58,8.21,3.88,13.16,3.88M654.27,1.08c2.36,0,4.3.75,5.82,2.26,1.5,1.5,2.27,3.5,2.27,5.97v103.02c0,2.37-.75,4.33-2.27,5.89-1.5,1.56-3.44,2.34-5.82,2.34s-4.17-.78-5.73-2.34c-1.57-1.56-2.34-3.53-2.34-5.89v-11.63l3.39.16c0,1.94-.78,4.12-2.34,6.54-1.57,2.43-3.69,4.77-6.38,7.02-2.69,2.26-5.87,4.12-9.52,5.57-3.66,1.45-7.58,2.18-11.79,2.18-7.43,0-14.11-1.91-20.02-5.73-5.92-3.82-10.6-9.05-14.05-15.67-3.44-6.62-5.17-14.24-5.17-22.85s1.72-16.23,5.17-22.85c3.44-6.62,8.1-11.84,13.97-15.67,5.87-3.82,12.4-5.73,19.62-5.73,4.52,0,8.75.75,12.68,2.27,3.93,1.5,7.35,3.44,10.25,5.82s5.17,4.87,6.78,7.51c1.61,2.64,2.43,5.14,2.43,7.51l-5.01.49V9.31c0-2.36.77-4.33,2.34-5.89,1.56-1.56,3.47-2.34,5.73-2.34"/>
      <path class="cls-1" d="M241.06,245.18c-6.03-2.2-11.79-5.78-17.28-10.74-2.27-1.94-3.39-4.14-3.39-6.62,0-1.94.75-3.69,2.27-5.25,1.5-1.56,3.28-2.34,5.33-2.34,1.83,0,3.39.59,4.68,1.78,4.3,3.98,8.75,6.92,13.33,8.8,4.58,1.89,9.77,2.83,15.58,2.83,6.78,0,12.52-1.56,17.19-4.68,4.68-3.12,7.02-7.05,7.02-11.79-.11-5.59-2.45-9.94-7.02-13-4.58-3.07-11.55-5.62-20.91-7.67-11.09-2.27-19.62-5.97-25.59-11.14-5.97-5.17-8.96-12.33-8.96-21.48,0-6.34,1.67-11.92,5.01-16.71,3.34-4.79,7.97-8.48,13.89-11.06,5.92-2.58,12.59-3.88,20.02-3.88,6.67,0,12.98,1.08,18.9,3.23,5.92,2.16,10.71,5.01,14.37,8.56,2.47,2.15,3.71,4.47,3.71,6.95,0,1.94-.73,3.66-2.18,5.17s-3.2,2.27-5.24,2.27c-1.5,0-2.74-.42-3.72-1.29-2.8-2.8-6.67-5.17-11.62-7.11-4.96-1.94-9.69-2.9-14.21-2.9-7.21,0-12.94,1.48-17.19,4.44-4.26,2.97-6.38,6.86-6.38,11.7,0,5.27,2.13,9.31,6.38,12.11,4.25,2.8,10.58,5.17,18.97,7.11,8.4,1.83,15.25,3.98,20.59,6.46,5.33,2.48,9.45,5.92,12.35,10.34,2.91,4.42,4.36,10.18,4.36,17.28,0,6.24-1.75,11.79-5.25,16.63-3.5,4.84-8.26,8.61-14.29,11.3s-12.65,4.04-19.86,4.04c-7.86,0-14.81-1.1-20.84-3.3"/>
      <path class="cls-1" d="M338.74,179.62c-4.42,3.39-7.32,8.64-8.72,15.74h47.63v-1.29c-.54-5.71-3.09-10.39-7.67-14.05-4.58-3.65-9.77-5.49-15.58-5.49s-11.25,1.69-15.67,5.08M391.56,206.27c-1.5,1.35-3.28,2.02-5.33,2.02h-56.84c.75,7.86,3.74,14.15,8.96,18.9,5.22,4.73,11.6,7.11,19.13,7.11,5.17,0,9.36-.75,12.59-2.26,3.23-1.5,6.08-3.44,8.56-5.82,1.61-.96,3.18-1.45,4.68-1.45,1.83,0,3.37.65,4.61,1.94,1.24,1.29,1.85,2.8,1.85,4.52,0,2.27-1.08,4.31-3.23,6.13-3.12,3.12-7.27,5.76-12.44,7.91-5.17,2.15-10.44,3.23-15.82,3.23-8.72,0-16.39-1.83-23.01-5.49-6.62-3.65-11.74-8.77-15.34-15.34-3.61-6.57-5.41-13.99-5.41-22.29,0-9.05,1.85-16.98,5.57-23.82,3.71-6.83,8.61-12.09,14.69-15.74s12.63-5.49,19.62-5.49,13.35,1.77,19.37,5.33c6.03,3.55,10.87,8.45,14.53,14.69,3.65,6.24,5.54,13.24,5.66,20.99-.11,1.94-.92,3.58-2.43,4.93"/>
      <path class="cls-1" d="M469.78,164.36c5.65,2.69,8.47,6.13,8.47,10.34,0,1.83-.59,3.47-1.78,4.93s-2.69,2.18-4.52,2.18c-1.4,0-2.5-.21-3.3-.65-.81-.42-1.92-1.13-3.32-2.1-.65-.65-1.67-1.4-3.07-2.27-1.29-.65-3.12-1.19-5.49-1.61-2.37-.42-4.52-.65-6.46-.65-5.6,0-10.55,1.29-14.86,3.88-4.3,2.58-7.65,6.16-10.01,10.74-2.37,4.58-3.55,9.66-3.55,15.26s1.15,10.81,3.47,15.34c2.31,4.52,5.57,8.07,9.77,10.66s8.98,3.88,14.37,3.88,10.12-.86,13.57-2.58c.75-.42,1.77-1.13,3.07-2.1,1.07-.86,2.02-1.5,2.83-1.94.81-.42,1.8-.65,2.99-.65,2.15,0,3.85.68,5.08,2.02,1.24,1.35,1.85,3.09,1.85,5.25s-1.43,4.49-4.28,6.7c-2.85,2.2-6.67,4.01-11.46,5.41-4.79,1.4-9.94,2.1-15.42,2.1-8.18,0-15.39-1.91-21.64-5.73-6.24-3.82-11.06-9.1-14.45-15.82s-5.08-14.24-5.08-22.52,1.78-15.8,5.33-22.53c3.55-6.73,8.51-12,14.86-15.82,6.34-3.82,13.62-5.73,21.8-5.73s15.58,1.35,21.24,4.04"/>
      <path class="cls-1" d="M563.28,164.53c1.45,1.5,2.18,3.34,2.18,5.49v42.95c0,11.2-3.09,19.89-9.29,26.08-6.19,6.2-14.94,9.28-26.24,9.28s-19.86-3.09-26-9.28c-6.13-6.19-9.2-14.88-9.2-26.08v-42.95c0-2.15.73-3.98,2.18-5.49s3.25-2.27,5.41-2.27c2.27,0,4.12.75,5.57,2.27,1.45,1.5,2.18,3.34,2.18,5.49v42.95c0,14.11,6.62,21.15,19.86,21.15,6.57,0,11.57-1.78,15.02-5.33,3.44-3.55,5.17-8.82,5.17-15.82v-42.95c0-2.15.73-3.98,2.18-5.49s3.25-2.27,5.41-2.27c2.27,0,4.12.75,5.57,2.27"/>
      <path class="cls-1" d="M637.8,162.51c2.04,1.45,3.07,3.26,3.07,5.41,0,2.58-.68,4.54-2.02,5.89-1.35,1.35-2.99,2.02-4.93,2.02-.97,0-2.43-.33-4.36-.96-2.26-.75-4.04-1.13-5.33-1.13-3.34,0-6.6,1.17-9.77,3.47-3.18,2.32-5.76,5.49-7.75,9.52s-2.99,8.53-2.99,13.48v38.92c0,2.15-.73,3.98-2.18,5.49s-3.32,2.26-5.57,2.26-4.1-.73-5.49-2.18c-1.4-1.45-2.1-3.32-2.1-5.57v-69.11c0-2.15.72-3.98,2.18-5.49,1.45-1.5,3.25-2.26,5.41-2.26s4.12.75,5.57,2.26,2.18,3.34,2.18,5.49v8.24c2.36-5.27,5.92-9.55,10.66-12.84s10.12-4.98,16.15-5.08c2.8,0,5.22.73,7.27,2.18"/>
      <path class="cls-1" d="M667.42,244.62c-1.45,1.5-3.3,2.27-5.57,2.27s-3.95-.75-5.41-2.27c-1.45-1.5-2.18-3.34-2.18-5.49v-69.92c0-2.15.73-3.98,2.18-5.49s3.25-2.26,5.41-2.26c2.27,0,4.12.75,5.57,2.26s2.18,3.34,2.18,5.49v69.92c0,2.16-.73,3.98-2.18,5.49M655.16,149.11c-1.35-1.13-2.02-2.93-2.02-5.41v-2.58c0-2.58.73-4.42,2.18-5.49s3.69-1.61,6.7-1.61,5.19.56,6.54,1.69c1.35,1.13,2.02,2.93,2.02,5.41v2.58c0,2.58-.7,4.42-2.1,5.49-1.4,1.08-3.61,1.61-6.62,1.61s-5.36-.57-6.7-1.69"/>
      <path class="cls-1" d="M714.65,177.28v48.12c0,5.38,2.43,8.07,7.27,8.07.75,0,1.78-.18,3.07-.56,1.29-.37,2.31-.56,3.07-.56,1.4,0,2.58.59,3.55,1.78s1.45,2.69,1.45,4.52c0,2.27-1.29,4.19-3.88,5.82-2.58,1.61-5.49,2.43-8.72,2.43-3.55,0-6.81-.38-9.77-1.13-2.97-.75-5.6-2.67-7.91-5.73-2.32-3.07-3.47-7.72-3.47-13.97v-48.77h-9.36c-2.04,0-3.74-.67-5.08-2.02-1.35-1.35-2.02-3.04-2.02-5.08s.67-3.71,2.02-5c1.35-1.29,3.04-1.94,5.08-1.94h9.36v-13.56c0-2.15.73-3.98,2.18-5.49s3.32-2.27,5.57-2.27,3.95.75,5.4,2.27c1.45,1.5,2.18,3.34,2.18,5.49v13.56h13.4c2.04,0,3.74.68,5.08,2.02s2.02,3.04,2.02,5.08-.68,3.72-2.02,5.01c-1.35,1.29-3.04,1.94-5.08,1.94h-13.4v-.02Z"/>
      <path class="cls-1" d="M821.64,163.71c1.45,1.5,2.18,3.34,2.18,5.49v69.76c0,13.45-3.71,23.51-11.14,30.2-7.43,6.67-17.22,10.01-29.38,10.01-3.98,0-7.91-.38-11.79-1.13-3.88-.75-7.05-1.77-9.52-3.07-3.98-1.83-5.97-4.3-5.97-7.43,0-.54.11-1.24.33-2.1.65-1.83,1.56-3.23,2.74-4.21,1.19-.96,2.53-1.45,4.04-1.45.86,0,1.66.16,2.43.49,3.34,1.5,6.3,2.69,8.89,3.55s5.59,1.29,9.05,1.29c16.68,0,25.03-8.56,25.03-25.68v-3.23c-2.9,3.88-6.65,6.9-11.22,9.05-4.58,2.15-9.83,3.23-15.74,3.23-8.94,0-15.91-2.85-20.91-8.56-5.01-5.71-7.51-13.19-7.51-22.45v-48.28c0-2.27.7-4.12,2.1-5.57s3.23-2.18,5.49-2.18,4.12.75,5.57,2.26,2.18,3.34,2.18,5.49v44.24c0,7.11,1.56,12.35,4.68,15.74s7.86,5.08,14.21,5.08,11.2-1.94,15.18-5.82c3.98-3.88,5.97-8.88,5.97-15.02v-44.24c0-2.27.7-4.12,2.1-5.57s3.23-2.18,5.49-2.18,4.12.75,5.57,2.26"/>
      <path class="cls-4" d="M199.01,241.6c0,2.91,2.36,5.29,5.29,5.29s5.27-2.36,5.27-5.29V5.29c0-2.91-2.36-5.29-5.27-5.29s-5.29,2.36-5.29,5.29v236.31Z"/>
    </g>
  </g>
</svg>