<?xml version="1.0" encoding="UTF-8"?>
<svg id="Ebene_1" data-name="Ebene 1" xmlns="http://www.w3.org/2000/svg" version="1.1" xmlns:xlink="http://www.w3.org/1999/xlink" viewBox="0 0 841.89 1190.55">
  <defs>
    <style>
      .cls-1 {
        fill: #d7731a;
      }

      .cls-1, .cls-2, .cls-3 {
        stroke-width: 0px;
      }

      .cls-2 {
        fill: none;
      }

      .cls-3 {
        fill: #2178ab;
      }

      .cls-4 {
        clip-path: url(#clippath);
      }
    </style>
    <clipPath id="clippath">
      <rect class="cls-2" x="32.07" y="463.5" width="777.74" height="263.56"/>
    </clipPath>
  </defs>
  <g class="cls-4">
    <path class="cls-3" d="M165.36,656.92c3.23,0,8.61-.46,13.98-1.08,6.3-.77,9.68-1.08,13.52-2.61,3.08-1.23,7.99-3.69,13.06-9.07-.62,2.77-1.84,7.07-4.76,11.53-1.23,1.69-4.61,6.92-10.76,10.3-6.61,3.69-13.22,3.23-15.83,3.23-68.85-.31-103.27-.15-106.96,0-1.08,0-4.46.15-6.3-2.15-1.69-2-2-5.53-.46-7.68,1.85-2.61,5.99-2.46,7.53-2.46,15.98-.15,29.81-.15,47.49-.15"/>
    <path class="cls-3" d="M99.58,560.1c4,1.08,8.3,1.54,10.61,1.69,14.14.15,26.59.15,28.28.15,18.29-.31,32.27,9.84,35.19,11.83,3.84,2.77,16.6,12.14,20.59,27.97,1.23,4.61,2.61,11.07-.62,17.52-2.92,5.84-8.3,8.61-10.6,9.53.31-4.46.46-11.53-2.15-19.67-3.69-11.99-10.76-19.21-12.14-20.59-1.69-1.69-9.53-9.22-22.28-12.6-5.99-1.54-6.92-.92-25.36-1.08-20.59-.15-23.82-2-25.97-3.07-9.84-4.46-15.06-12.6-16.9-15.68-5.99-10.6-5.07-21.21-4.76-24.59h13.06c-.15,3.23-1.23,10.14.92,16.9,1.54,5.53,4.76,9.53,12.14,11.68M170.12,630.64h-12.91c.15-3.23,0-9.68-3.54-16.29-1.38-2.61-4.46-8.45-11.06-11.53-3.69-1.69-7.07-1.84-9.22-1.84-13.98-.31-26.28,0-27.97,0-18.29.31-32.58-9.84-35.35-11.99-3.84-2.77-16.6-12.14-20.59-27.97-1.23-4.61-2.61-11.07.62-17.52,2.92-5.84,8.3-8.61,10.61-9.53-.31,4.46-.46,11.53,2.15,19.67,3.69,11.99,10.76,19.21,12.14,20.59,1.69,1.69,9.53,9.22,22.28,12.6,5.99,1.54,6.76,1.23,25.36,1.08,20.29,0,23.82,2,25.97,2.92,9.84,4.46,15.06,12.6,16.9,15.67,5.99,10.45,5.07,20.75,4.61,24.13M111.26,531.98c13.37-.46,19.98-.62,29.97-.31,3.84.15,9.84,0,21.97-.15,14.14-.15,21.36-.31,24.28-1.38,8.14-2.92,18.44-10.61,21.52-23.21,3.38-14.45-5.07-25.82-6.3-27.51-5.53-7.07-12.45-9.99-17.52-11.83-9.22-3.54-16.13-2.92-34.11-2.92-31.04,0-38.11-.62-52.87,1.69-6.61,1.08-13.22,2.46-21.05,5.84-7.38,3.38-12.91,7.22-16.44,10.14,3.23-.77,8.14-1.69,13.98-2.77,6.3-1.08,19.36-.77,22.74-.77,12.6,0,40.42.15,75.76-.15,1.38,0,10.76.15,17.21,7.68.31.46,7.99,9.84,4.15,19.67-2.77,7.38-7.07,9.53-13.68,11.68-5.84,1.84-10.61,1.69-11.83,1.69-12.14.15-50.71.31-103.12,0-4.76.15-13.68,1.08-21.05,7.84-16.6,15.21-6.45,43.95-5.84,45.49,7.68,20.75,27.36,29.81,35.5,33.5,10.61,4.92,20.29,6.3,22.28,6.61,18.29,2.61,37.96-1.08,43.18,4.76,2.31,2.61,2.31,5.38,2.31,5.38,0,.31,0,2.77-1.85,4.76-2.15,2.46-5.84,2.31-7.37,2.31h-48.26c-20.59.15-30.43-.77-39.19,5.99-7.99,6.15-14.14,17.06-13.52,28.89.92,14.75,12.14,23.82,13.98,25.2,10.14,7.99,16.9,6.3,62.85,6.3,24.28,0,27.36.31,39.5-1.23,18.44-2.15,33.19-14.6,33.19-14.6,0,0-7.38.62-21.82,1.85-9.38.77-11.22.92-29.35.92h-55.02c-10.91,0-16.29-.46-21.05-3.84-10.91-7.99-11.53-18.9-6.61-27.51,2.77-4.77,7.68-7.22,9.38-7.99,5.53-2.61,10.45-2.61,12.6-2.61,5.84,0,74.84.92,100.97.15,4.92-.15,12.75-.46,20.29-5.38,12.14-7.99,14.75-18.6,14.91-23.82.46-13.52-4.76-23.97-9.53-31.81-2.15-3.69-11.99-19.21-33.35-27.36-12.29-4.76-24.59-5.07-32.58-5.38-16.6-.62-25.36,1.38-29.2-3.23-2.15-2.46-2.77-7.07-.77-9.53,2.61-2.77,6.92-2.92,10.76-3.07"/>
    <path class="cls-3" d="M77.14,505.24c-3.23,0-8.61.46-13.98,1.08-6.3.77-9.68,1.08-13.52,2.61-3.07,1.23-7.99,3.69-13.06,9.07.62-2.77,1.84-7.07,4.76-11.53,1.23-1.69,4.46-7.07,10.76-10.3,6.61-3.38,13.22-3.23,15.83-3.23,68.85.31,103.27,0,106.96-.15,1.08,0,4.46-.15,6.3,2.15,1.69,2,2,5.53.46,7.68-1.85,2.61-5.99,2.46-7.53,2.46-15.98.15-29.81.15-47.49.15"/>
    <path class="cls-3" d="M279.62,578.85c-7.32,0-13.82-1.02-19.51-3.05-5.69-2.03-11.13-5.39-16.31-10.06-1.12-.81-1.96-1.8-2.52-2.97-.56-1.17-.84-2.36-.84-3.58,0-1.93.71-3.66,2.14-5.18,1.42-1.53,3.2-2.29,5.33-2.29,1.62,0,3.15.56,4.57,1.68,3.86,3.56,7.9,6.25,12.12,8.08,4.22,1.83,9.17,2.74,14.86,2.74,4.06,0,7.8-.66,11.2-1.98,3.4-1.32,6.12-3.1,8.16-5.33,2.03-2.23,3.05-4.83,3.05-7.78,0-3.66-1.04-6.68-3.13-9.07-2.08-2.39-5.08-4.37-8.99-5.95-3.91-1.57-8.61-2.92-14.1-4.04-5.08-.92-9.63-2.19-13.65-3.81-4.02-1.62-7.45-3.68-10.29-6.17-2.85-2.49-5.03-5.46-6.56-8.92-1.52-3.45-2.29-7.47-2.29-12.04,0-6.2,1.63-11.53,4.88-16.01,3.25-4.47,7.67-7.93,13.26-10.37,5.59-2.44,11.89-3.66,18.9-3.66,6.4,0,12.4.99,17.99,2.97,5.59,1.98,10.11,4.65,13.57,8,2.44,2.14,3.66,4.42,3.66,6.86,0,1.83-.74,3.53-2.21,5.11-1.47,1.58-3.18,2.36-5.11,2.36-1.42,0-2.64-.4-3.66-1.22-1.63-1.73-3.81-3.28-6.55-4.65s-5.67-2.51-8.77-3.43c-3.1-.92-6.07-1.37-8.92-1.37-4.57,0-8.49.64-11.74,1.91-3.25,1.27-5.74,3-7.47,5.18-1.73,2.19-2.59,4.75-2.59,7.7,0,3.46.99,6.3,2.97,8.54,1.98,2.24,4.75,4.04,8.31,5.41,3.56,1.37,7.62,2.62,12.19,3.73,5.59,1.22,10.6,2.59,15.02,4.12,4.42,1.52,8.16,3.48,11.2,5.87,3.05,2.39,5.39,5.36,7.01,8.92,1.62,3.56,2.44,7.98,2.44,13.26,0,6.1-1.73,11.44-5.18,16.01-3.46,4.57-8,8.13-13.65,10.67-5.64,2.54-11.92,3.81-18.83,3.81"/>
    <path class="cls-3" d="M374.75,495.76c7.01,0,12.45,1.5,16.31,4.5,3.86,3,6.58,7.04,8.16,12.12,1.58,5.08,2.36,10.67,2.36,16.77v40.4c0,2.24-.74,4.09-2.21,5.56-1.47,1.47-3.28,2.21-5.41,2.21s-4.06-.74-5.49-2.21c-1.42-1.47-2.14-3.33-2.14-5.56v-40.4c0-3.56-.48-6.81-1.45-9.76-.97-2.95-2.64-5.28-5.03-7.01-2.39-1.73-5.72-2.59-9.99-2.59-3.96,0-7.49.86-10.59,2.59-3.1,1.73-5.49,4.06-7.16,7.01-1.68,2.95-2.52,6.2-2.52,9.76v40.4c0,2.24-.74,4.09-2.21,5.56-1.48,1.47-3.28,2.21-5.41,2.21s-4.07-.74-5.49-2.21c-1.42-1.47-2.14-3.33-2.14-5.56v-97.26c0-2.23.71-4.09,2.14-5.56,1.42-1.47,3.25-2.21,5.49-2.21s3.94.74,5.41,2.21c1.47,1.48,2.21,3.33,2.21,5.56v41.62l-2.74,1.52c.71-2.23,1.91-4.52,3.58-6.86,1.68-2.34,3.76-4.47,6.25-6.4,2.49-1.93,5.26-3.48,8.31-4.65,3.05-1.17,6.3-1.75,9.76-1.75"/>
    <path class="cls-3" d="M437.1,569.55c0,2.24-.71,4.09-2.14,5.56-1.42,1.47-3.25,2.21-5.49,2.21s-3.94-.74-5.41-2.21c-1.47-1.47-2.21-3.33-2.21-5.56v-65.25c0-2.23.74-4.09,2.21-5.56,1.47-1.47,3.28-2.21,5.41-2.21s4.06.74,5.49,2.21c1.42,1.48,2.14,3.33,2.14,5.56v65.25ZM429.32,486.47c-2.95,0-5.08-.53-6.4-1.6-1.32-1.07-1.98-2.87-1.98-5.41v-2.44c0-2.54.71-4.32,2.13-5.34,1.42-1.01,3.56-1.52,6.4-1.52,3.05,0,5.23.53,6.55,1.6,1.32,1.07,1.98,2.82,1.98,5.26v2.44c0,2.64-.69,4.47-2.06,5.49-1.37,1.02-3.58,1.52-6.63,1.52"/>
    <path class="cls-3" d="M495.02,578.85c-8.44,0-15.75-1.75-21.95-5.26-6.2-3.51-11-8.33-14.41-14.48-3.41-6.15-5.11-13.19-5.11-21.12,0-8.94,1.8-16.59,5.41-22.94,3.61-6.35,8.31-11.23,14.1-14.63,5.79-3.4,11.94-5.11,18.44-5.11,4.98,0,9.7.99,14.18,2.97,4.47,1.98,8.46,4.73,11.97,8.23,3.51,3.51,6.28,7.62,8.31,12.35,2.03,4.73,3.1,9.88,3.2,15.47-.1,2.03-.91,3.71-2.44,5.03s-3.31,1.98-5.34,1.98h-59.3l-3.66-12.96h57.32l-2.9,2.74v-3.81c-.2-3.56-1.37-6.68-3.51-9.38-2.13-2.69-4.78-4.78-7.93-6.25-3.15-1.47-6.46-2.21-9.91-2.21-3.05,0-5.97.48-8.76,1.45-2.8.97-5.29,2.52-7.47,4.65-2.19,2.13-3.91,4.95-5.18,8.46-1.27,3.51-1.91,7.85-1.91,13.03,0,5.59,1.17,10.47,3.51,14.63,2.34,4.17,5.49,7.39,9.45,9.68,3.97,2.29,8.33,3.43,13.11,3.43,3.76,0,6.86-.38,9.3-1.14,2.44-.76,4.47-1.7,6.1-2.82,1.62-1.12,3.05-2.18,4.27-3.2,1.52-.91,3.05-1.37,4.57-1.37,1.83,0,3.35.64,4.57,1.91,1.22,1.27,1.83,2.77,1.83,4.5,0,2.24-1.12,4.27-3.35,6.1-2.74,2.64-6.53,4.98-11.36,7.01-4.83,2.03-9.88,3.05-15.17,3.05"/>
    <path class="cls-3" d="M562.86,569.55c0,2.24-.74,4.09-2.21,5.56-1.47,1.47-3.28,2.21-5.41,2.21s-3.94-.74-5.41-2.21c-1.47-1.47-2.21-3.33-2.21-5.56v-97.26c0-2.23.76-4.09,2.29-5.56,1.52-1.47,3.35-2.21,5.49-2.21s4.04.74,5.41,2.21c1.37,1.47,2.06,3.33,2.06,5.56v97.26Z"/>
    <path class="cls-3" d="M618.65,564.82c4.88,0,9.12-1.22,12.73-3.66,3.6-2.44,6.43-5.74,8.46-9.91,2.03-4.16,3.05-8.89,3.05-14.18s-1.02-10.01-3.05-14.18c-2.04-4.17-4.88-7.47-8.54-9.91-3.66-2.44-7.88-3.66-12.65-3.66s-8.82,1.22-12.42,3.66c-3.61,2.44-6.46,5.74-8.54,9.91-2.08,4.17-3.12,8.89-3.12,14.18s1.04,10.01,3.12,14.18c2.08,4.17,4.93,7.47,8.54,9.91,3.6,2.44,7.75,3.66,12.42,3.66M649.75,464.51c2.23,0,4.06.71,5.49,2.13,1.42,1.42,2.14,3.3,2.14,5.64v97.26c0,2.24-.71,4.09-2.14,5.56-1.42,1.47-3.25,2.21-5.49,2.21s-3.94-.74-5.41-2.21c-1.48-1.47-2.21-3.33-2.21-5.56v-10.98l3.2.15c0,1.83-.74,3.89-2.21,6.17-1.48,2.29-3.48,4.5-6.02,6.63-2.54,2.13-5.54,3.89-8.99,5.26-3.46,1.37-7.16,2.06-11.13,2.06-7.01,0-13.32-1.8-18.9-5.41-5.59-3.61-10.01-8.54-13.26-14.79-3.25-6.25-4.88-13.44-4.88-21.57s1.62-15.32,4.88-21.57c3.25-6.25,7.65-11.18,13.19-14.79,5.54-3.61,11.71-5.41,18.52-5.41,4.27,0,8.26.71,11.97,2.14,3.71,1.42,6.94,3.25,9.68,5.49,2.74,2.24,4.88,4.6,6.4,7.09,1.52,2.49,2.29,4.85,2.29,7.09l-4.73.46v-45.28c0-2.23.73-4.09,2.21-5.56,1.47-1.47,3.28-2.21,5.41-2.21"/>
    <path class="cls-3" d="M259.65,694.96c-5.69-2.08-11.13-5.46-16.31-10.14-2.14-1.83-3.2-3.91-3.2-6.25,0-1.83.71-3.48,2.14-4.96,1.42-1.47,3.1-2.21,5.03-2.21,1.73,0,3.2.56,4.42,1.68,4.06,3.76,8.26,6.53,12.58,8.31,4.32,1.78,9.22,2.67,14.71,2.67,6.4,0,11.82-1.47,16.23-4.42,4.42-2.95,6.63-6.66,6.63-11.13-.1-5.28-2.31-9.38-6.63-12.27-4.32-2.9-10.9-5.31-19.74-7.24-10.47-2.14-18.52-5.64-24.16-10.52-5.64-4.88-8.46-11.64-8.46-20.28,0-5.99,1.58-11.25,4.73-15.78,3.15-4.52,7.52-8.01,13.11-10.44,5.59-2.44,11.89-3.66,18.9-3.66,6.3,0,12.25,1.02,17.84,3.05,5.59,2.04,10.11,4.73,13.57,8.08,2.33,2.03,3.5,4.22,3.5,6.56,0,1.83-.69,3.46-2.06,4.88-1.37,1.42-3.02,2.14-4.95,2.14-1.42,0-2.59-.4-3.51-1.22-2.64-2.64-6.3-4.88-10.97-6.71-4.68-1.83-9.15-2.74-13.42-2.74-6.81,0-12.22,1.4-16.23,4.19-4.02,2.8-6.02,6.48-6.02,11.05,0,4.98,2.01,8.79,6.02,11.43,4.01,2.64,9.99,4.88,17.91,6.71,7.93,1.73,14.4,3.76,19.44,6.1,5.03,2.34,8.92,5.59,11.66,9.76,2.75,4.17,4.12,9.61,4.12,16.31,0,5.89-1.65,11.13-4.96,15.7-3.3,4.57-7.8,8.13-13.49,10.67-5.69,2.54-11.94,3.81-18.75,3.81-7.42,0-13.98-1.04-19.67-3.12"/>
    <path class="cls-3" d="M351.87,633.07c-4.17,3.2-6.91,8.16-8.23,14.86h44.97v-1.22c-.51-5.39-2.92-9.81-7.24-13.26-4.32-3.45-9.22-5.18-14.71-5.18s-10.62,1.6-14.79,4.8M401.73,658.23c-1.42,1.27-3.1,1.91-5.03,1.91h-53.66c.71,7.42,3.53,13.36,8.46,17.84,4.93,4.47,10.95,6.71,18.06,6.71,4.88,0,8.84-.71,11.89-2.13,3.05-1.42,5.74-3.25,8.08-5.49,1.52-.91,3-1.37,4.42-1.37,1.73,0,3.18.61,4.35,1.83,1.17,1.22,1.75,2.64,1.75,4.27,0,2.14-1.02,4.07-3.05,5.79-2.95,2.95-6.86,5.44-11.74,7.47-4.88,2.03-9.86,3.05-14.94,3.05-8.23,0-15.47-1.73-21.72-5.18-6.25-3.45-11.08-8.28-14.48-14.48-3.41-6.2-5.11-13.21-5.11-21.04,0-8.54,1.75-16.03,5.26-22.49,3.5-6.45,8.13-11.41,13.87-14.86,5.74-3.45,11.92-5.18,18.52-5.18s12.6,1.67,18.29,5.03c5.69,3.35,10.26,7.98,13.72,13.87,3.45,5.89,5.23,12.5,5.34,19.82-.1,1.83-.87,3.38-2.29,4.65"/>
    <path class="cls-3" d="M475.58,618.66c5.33,2.54,8,5.79,8,9.76,0,1.73-.56,3.28-1.68,4.65-1.12,1.37-2.54,2.06-4.27,2.06-1.32,0-2.36-.2-3.12-.61-.76-.4-1.81-1.07-3.13-1.98-.61-.61-1.58-1.32-2.9-2.14-1.22-.61-2.95-1.12-5.18-1.52-2.24-.4-4.27-.61-6.1-.61-5.29,0-9.96,1.22-14.03,3.66-4.06,2.44-7.22,5.82-9.45,10.14-2.24,4.32-3.35,9.12-3.35,14.41s1.09,10.21,3.28,14.48c2.18,4.27,5.26,7.62,9.22,10.06,3.96,2.44,8.48,3.66,13.57,3.66s9.55-.81,12.81-2.44c.71-.4,1.67-1.07,2.9-1.98,1.01-.81,1.91-1.42,2.67-1.83.76-.4,1.7-.61,2.82-.61,2.03,0,3.63.64,4.8,1.91,1.17,1.27,1.75,2.92,1.75,4.96,0,2.13-1.35,4.24-4.04,6.33-2.69,2.08-6.3,3.79-10.82,5.11-4.52,1.32-9.38,1.98-14.56,1.98-7.72,0-14.53-1.8-20.43-5.41-5.89-3.61-10.44-8.59-13.64-14.94-3.2-6.35-4.8-13.44-4.8-21.26s1.68-14.92,5.03-21.27c3.35-6.35,8.03-11.33,14.03-14.94,5.99-3.61,12.86-5.41,20.58-5.41s14.71,1.27,20.05,3.81"/>
    <path class="cls-3" d="M563.85,618.82c1.37,1.42,2.06,3.15,2.06,5.18v40.55c0,10.57-2.92,18.78-8.77,24.62-5.84,5.85-14.1,8.76-24.77,8.76s-18.75-2.92-24.55-8.76c-5.79-5.84-8.69-14.05-8.69-24.62v-40.55c0-2.03.69-3.76,2.06-5.18,1.37-1.42,3.07-2.14,5.11-2.14,2.14,0,3.89.71,5.26,2.14,1.37,1.42,2.06,3.15,2.06,5.18v40.55c0,13.32,6.25,19.97,18.75,19.97,6.2,0,10.92-1.68,14.18-5.03,3.25-3.35,4.88-8.33,4.88-14.94v-40.55c0-2.03.69-3.76,2.06-5.18,1.37-1.42,3.07-2.14,5.11-2.14,2.14,0,3.89.71,5.26,2.14"/>
    <path class="cls-3" d="M634.2,616.91c1.93,1.37,2.9,3.08,2.9,5.11,0,2.44-.64,4.29-1.91,5.56-1.27,1.27-2.82,1.91-4.65,1.91-.92,0-2.29-.31-4.12-.91-2.13-.71-3.81-1.07-5.03-1.07-3.15,0-6.23,1.1-9.22,3.28-3,2.19-5.44,5.18-7.32,8.99-1.88,3.81-2.82,8.05-2.82,12.73v36.74c0,2.03-.69,3.76-2.06,5.18-1.37,1.42-3.13,2.13-5.26,2.13s-3.87-.69-5.18-2.06c-1.32-1.37-1.98-3.13-1.98-5.26v-65.25c0-2.03.68-3.76,2.06-5.18,1.37-1.42,3.07-2.13,5.11-2.13s3.89.71,5.26,2.13c1.37,1.42,2.06,3.15,2.06,5.18v7.78c2.23-4.98,5.59-9.02,10.06-12.12,4.47-3.1,9.55-4.7,15.25-4.8,2.64,0,4.93.69,6.86,2.06"/>
    <path class="cls-3" d="M662.17,694.43c-1.37,1.42-3.12,2.14-5.26,2.14s-3.73-.71-5.11-2.14c-1.37-1.42-2.06-3.15-2.06-5.18v-66.01c0-2.03.69-3.76,2.06-5.18,1.37-1.42,3.07-2.13,5.11-2.13,2.14,0,3.89.71,5.26,2.13,1.37,1.42,2.06,3.15,2.06,5.18v66.01c0,2.04-.69,3.76-2.06,5.18M650.59,604.26c-1.27-1.07-1.91-2.77-1.91-5.11v-2.44c0-2.44.69-4.17,2.06-5.18,1.37-1.01,3.48-1.52,6.33-1.52s4.9.53,6.17,1.6c1.27,1.07,1.91,2.77,1.91,5.11v2.44c0,2.44-.66,4.17-1.98,5.18-1.32,1.02-3.41,1.52-6.25,1.52s-5.06-.54-6.33-1.6"/>
    <path class="cls-3" d="M706.76,630.86v45.43c0,5.08,2.29,7.62,6.86,7.62.71,0,1.68-.17,2.9-.53,1.22-.35,2.18-.53,2.9-.53,1.32,0,2.44.56,3.35,1.68.91,1.12,1.37,2.54,1.37,4.27,0,2.14-1.22,3.96-3.66,5.49-2.44,1.52-5.18,2.29-8.23,2.29-3.35,0-6.43-.36-9.22-1.07-2.8-.71-5.29-2.52-7.47-5.41-2.19-2.9-3.28-7.29-3.28-13.19v-46.04h-8.84c-1.93,0-3.53-.63-4.8-1.91-1.27-1.27-1.91-2.87-1.91-4.8s.63-3.5,1.91-4.72c1.27-1.22,2.87-1.83,4.8-1.83h8.84v-12.8c0-2.03.69-3.76,2.06-5.18,1.37-1.42,3.13-2.14,5.26-2.14s3.73.71,5.1,2.14c1.37,1.42,2.06,3.15,2.06,5.18v12.8h12.65c1.93,0,3.53.64,4.8,1.91,1.27,1.27,1.91,2.87,1.91,4.8s-.64,3.51-1.91,4.73c-1.27,1.22-2.87,1.83-4.8,1.83h-12.65Z"/>
    <path class="cls-3" d="M807.76,618.05c1.37,1.42,2.06,3.15,2.06,5.18v65.86c0,12.7-3.5,22.2-10.52,28.51-7.01,6.3-16.26,9.45-27.74,9.45-3.76,0-7.47-.36-11.13-1.07-3.66-.71-6.66-1.67-8.99-2.9-3.76-1.73-5.64-4.06-5.64-7.01,0-.51.1-1.17.31-1.98.61-1.73,1.47-3.05,2.59-3.97,1.12-.91,2.39-1.37,3.81-1.37.81,0,1.57.15,2.29.46,3.15,1.42,5.95,2.54,8.39,3.35,2.44.81,5.28,1.22,8.54,1.22,15.75,0,23.63-8.08,23.63-24.24v-3.05c-2.74,3.66-6.28,6.51-10.59,8.54-4.32,2.03-9.28,3.05-14.86,3.05-8.44,0-15.02-2.69-19.74-8.08-4.73-5.39-7.09-12.45-7.09-21.19v-45.58c0-2.14.66-3.89,1.98-5.26,1.32-1.37,3.05-2.06,5.18-2.06s3.89.71,5.26,2.13c1.37,1.42,2.06,3.15,2.06,5.18v41.77c0,6.71,1.47,11.66,4.42,14.86,2.95,3.2,7.42,4.8,13.42,4.8s10.57-1.83,14.33-5.49c3.76-3.66,5.64-8.38,5.64-14.18v-41.77c0-2.14.66-3.89,1.98-5.26,1.32-1.37,3.05-2.06,5.18-2.06s3.89.71,5.26,2.13"/>
    <path class="cls-1" d="M219.95,691.58c0,2.75,2.23,4.99,4.99,4.99s4.98-2.23,4.98-4.99v-223.1c0-2.75-2.23-4.99-4.98-4.99s-4.99,2.23-4.99,4.99v223.1Z"/>
  </g>
</svg>