<?xml version="1.0" encoding="UTF-8"?>
<svg id="Ebene_1" xmlns="http://www.w3.org/2000/svg" xmlns:xlink="http://www.w3.org/1999/xlink" viewBox="0 0 346.52 305.94">
  <defs>
    <style>
      .cls-1 {
        fill: #c4a62e;
      }

      .cls-2 {
        fill: #ddc74f;
      }

      .cls-3 {
        clip-path: url(#clippath-6);
      }

      .cls-4 {
        clip-path: url(#clippath-7);
      }

      .cls-5 {
        fill: #e7d45d;
      }

      .cls-6 {
        fill: #c2a32b;
      }

      .cls-7 {
        fill: #d8c048;
      }

      .cls-8 {
        fill: #c5a72f;
      }

      .cls-9 {
        fill: #cbaf37;
      }

      .cls-10 {
        fill: #f2e46d;
      }

      .cls-11 {
        clip-path: url(#clippath-15);
      }

      .cls-12 {
        fill: #dfca53;
      }

      .cls-13 {
        clip-path: url(#clippath-4);
      }

      .cls-14 {
        fill: #b7941d;
      }

      .cls-15 {
        fill: #ccb139;
      }

      .cls-16 {
        fill: #d4bb43;
      }

      .cls-17 {
        fill: #f0e16b;
      }

      .cls-18 {
        fill: #b7951e;
      }

      .cls-19 {
        fill: #d7bf47;
      }

      .cls-20 {
        fill: #1d1d1b;
      }

      .cls-21 {
        clip-path: url(#clippath-9);
      }

      .cls-22 {
        fill: #ba9821;
      }

      .cls-23 {
        clip-path: url(#clippath-10);
      }

      .cls-24 {
        fill: #efe069;
      }

      .cls-25 {
        fill: #dcc64e;
      }

      .cls-26 {
        fill: #be9e26;
      }

      .cls-27 {
        fill: #d5bc44;
      }

      .cls-28 {
        fill: #ead962;
      }

      .cls-29 {
        fill: #d5bd45;
      }

      .cls-30 {
        fill: #cdb23a;
      }

      .cls-31 {
        fill: #b5921b;
      }

      .cls-32 {
        fill: #d6be46;
      }

      .cls-33 {
        fill: #e9d861;
      }

      .cls-34 {
        fill: #c6a931;
      }

      .cls-35 {
        clip-path: url(#clippath-11);
      }

      .cls-36 {
        fill: none;
      }

      .cls-37 {
        fill: #d3ba42;
      }

      .cls-38 {
        fill: #bfa028;
      }

      .cls-39 {
        fill: #bd9d25;
      }

      .cls-40 {
        fill: #f1e26c;
      }

      .cls-41 {
        clip-path: url(#clippath-1);
      }

      .cls-42 {
        fill: #d0b73f;
      }

      .cls-43 {
        fill: #e5d25b;
      }

      .cls-44 {
        fill: #edde67;
      }

      .cls-45 {
        fill: #c9ad35;
      }

      .cls-46 {
        fill: #d2b941;
      }

      .cls-47 {
        fill: #dec851;
      }

      .cls-48 {
        clip-path: url(#clippath-5);
      }

      .cls-49 {
        clip-path: url(#clippath-8);
      }

      .cls-50 {
        fill: #bc9b24;
      }

      .cls-51 {
        fill: #c2a42c;
      }

      .cls-52 {
        fill: #b6931c;
      }

      .cls-53 {
        fill: #eedf68;
      }

      .cls-54 {
        fill: #caae36;
      }

      .cls-55 {
        fill: #b99720;
      }

      .cls-56 {
        fill: #b08c14;
      }

      .cls-57 {
        clip-path: url(#clippath-3);
      }

      .cls-58 {
        fill: #c5a830;
      }

      .cls-59 {
        fill: #d9c14a;
      }

      .cls-60 {
        fill: #c3a52d;
      }

      .cls-61 {
        fill: #e3d059;
      }

      .cls-62 {
        clip-path: url(#clippath-12);
      }

      .cls-63 {
        fill: #c8ab33;
      }

      .cls-64 {
        fill: #d9c34b;
      }

      .cls-65 {
        fill: #e1cc55;
      }

      .cls-66 {
        clip-path: url(#clippath-14);
      }

      .cls-67 {
        fill: #bf9f27;
      }

      .cls-68 {
        fill: #d1b840;
      }

      .cls-69 {
        fill: #c0a129;
      }

      .cls-70 {
        fill: #b39018;
      }

      .cls-71 {
        fill: #e4d15a;
      }

      .cls-72 {
        fill: #ebda63;
      }

      .cls-73 {
        fill: #e8d760;
      }

      .cls-74 {
        fill: #ba9922;
      }

      .cls-75 {
        fill: #d81c1c;
      }

      .cls-76 {
        fill: #b28f17;
      }

      .cls-77 {
        fill: #e0cb54;
      }

      .cls-78 {
        fill: #cfb53c;
      }

      .cls-79 {
        fill: #d0b63d;
      }

      .cls-80 {
        fill: #c9ac34;
      }

      .cls-81 {
        fill: #ecdc66;
      }

      .cls-82 {
        fill: #b18d15;
      }

      .cls-83 {
        fill: #ecdb65;
      }

      .cls-84 {
        fill: #bb9a23;
      }

      .cls-85 {
        fill: #b49119;
      }

      .cls-86 {
        fill: #b8961f;
      }

      .cls-87 {
        fill: #ceb33b;
      }

      .cls-88 {
        clip-path: url(#clippath-2);
      }

      .cls-89 {
        fill: #c7aa32;
      }

      .cls-90 {
        fill: #ccb038;
      }

      .cls-91 {
        fill: #e2cf58;
      }

      .cls-92 {
        fill: #dbc54d;
      }

      .cls-93 {
        fill: #e6d35c;
      }

      .cls-94 {
        clip-path: url(#clippath-13);
      }

      .cls-95 {
        fill: #dac44c;
      }

      .cls-96 {
        fill: #bd9c25;
      }

      .cls-97 {
        fill: #dec952;
      }

      .cls-98 {
        clip-path: url(#clippath);
      }

      .cls-99 {
        fill: #c1a22a;
      }

      .cls-100 {
        fill: #b28e16;
      }

      .cls-101 {
        fill: #e7d55f;
      }

      .cls-102 {
        fill: #e2ce56;
      }

      .cls-103 {
        fill: #b5911a;
      }
    </style>
    <clipPath id="clippath">
      <path class="cls-36" d="M131.62,274.61c84.25-86.32,67.91,31.33,143.9-26.38-80.61,12.33-57.97-51.07-149.17,20.15l5.28,6.24h0Z"/>
    </clipPath>
    <clipPath id="clippath-1">
      <path class="cls-36" d="M210.28,236.72c40.12-15.04,11.61-6.54,57.56-38.85-14.97,22.7-12.68,33.48-36.45,38.85,36.16-8.49,39.25,6.5,72.43-17.75-22.24,22.08-25.54,38.5-93.54,17.75h0Z"/>
    </clipPath>
    <clipPath id="clippath-2">
      <path class="cls-36" d="M254.1,229.75c27.23-33.09,7.75-29.22,36.66-66.74-9.29,28.58-.48,39.65-18.38,56.19,27.07-25.43,33.89-8.24,55.29-42.95-8.22,30.24-4.3,37.48-73.57,53.5h0Z"/>
    </clipPath>
    <clipPath id="clippath-3">
      <path class="cls-36" d="M287.01,203.04c12.79-32.2,5.05-56.04,14.68-73.25,5.76,29.88,5.98,39.38-.29,55.46,14.08-29.8,19.95-13.52,38.4-51.89,1.29,31.74-16.17,48.04-52.79,69.69h0Z"/>
    </clipPath>
    <clipPath id="clippath-4">
      <path class="cls-36" d="M310.82,164.03c4.02-34.41-7.7-25.7-10.53-74.08,18.1,30.25,19.81,37.92,17.91,55.08,5.89-32.43,10.97-20.15,18.86-61.98,9.46,30.32,3.54,50.59-26.24,80.98h0Z"/>
    </clipPath>
    <clipPath id="clippath-5">
      <path class="cls-36" d="M321.16,121.09c-6.46-33.8-27.04-28.58-30.31-64.51,10.92,25.01,24.63,10.88,29.63,43.77-2.7-32.85,7.3-43.88-1.66-61.87,22.26,22.53,12.19,40.28,2.33,82.61h0Z"/>
    </clipPath>
    <clipPath id="clippath-6">
      <path class="cls-36" d="M315.88,80.31c-10.78-31.4-36.64-17.55-39.9-53.48,10.92,16.86,20.79,9.44,34.91,36.1-7.5-20.38,1.07-21.82-17.49-47,23.7,12.93,25.62,23.01,22.48,64.38Z"/>
    </clipPath>
    <clipPath id="clippath-7">
      <path class="cls-36" d="M302.13,45.09C273.93,24.83,287.33,26.71,259.92,0c41.51,16.75,31.25,21.76,42.21,45.09Z"/>
    </clipPath>
    <clipPath id="clippath-8">
      <path class="cls-36" d="M214.9,274.61l5.28-6.24c-91.2-71.21-68.56-7.81-149.17-20.15,75.99,57.71,59.64-59.94,143.9,26.38h0Z"/>
    </clipPath>
    <clipPath id="clippath-9">
      <path class="cls-36" d="M136.24,236.72c-68,20.76-71.3,4.33-93.54-17.75,33.18,24.25,36.27,9.26,72.43,17.75-23.77-5.37-21.48-16.15-36.45-38.85,45.94,32.31,17.44,23.81,57.56,38.85h0Z"/>
    </clipPath>
    <clipPath id="clippath-10">
      <path class="cls-36" d="M92.41,229.75c-69.26-16.02-65.35-23.26-73.57-53.5,21.4,34.71,28.22,17.52,55.29,42.95-17.9-16.54-9.09-27.61-18.38-56.19,28.91,37.53,9.43,33.65,36.66,66.74h0Z"/>
    </clipPath>
    <clipPath id="clippath-11">
      <path class="cls-36" d="M59.51,203.04C22.88,181.39,5.43,165.09,6.72,133.35c18.45,38.37,24.31,22.09,38.4,51.89-6.28-16.08-6.06-25.58-.29-55.46,9.63,17.22,1.89,41.06,14.68,73.25h0Z"/>
    </clipPath>
    <clipPath id="clippath-12">
      <path class="cls-36" d="M35.7,164.03C5.92,133.64,0,113.37,9.46,83.05c7.89,41.83,12.97,29.55,18.86,61.98-1.9-17.16-.19-24.83,17.91-55.08-2.83,48.38-14.55,39.67-10.53,74.08h0Z"/>
    </clipPath>
    <clipPath id="clippath-13">
      <path class="cls-36" d="M25.36,121.08c-9.86-42.33-19.93-60.08,2.33-82.61-8.96,17.99,1.05,29.02-1.66,61.87,5-32.89,18.71-18.76,29.63-43.77-3.26,35.93-23.84,30.71-30.31,64.51h0Z"/>
    </clipPath>
    <clipPath id="clippath-14">
      <path class="cls-36" d="M53.11,15.93c-18.56,25.18-9.99,26.62-17.49,47,14.12-26.66,23.99-19.24,34.91-36.1-3.26,35.93-29.12,22.08-39.9,53.48-3.15-41.37-1.22-51.45,22.48-64.38Z"/>
    </clipPath>
    <clipPath id="clippath-15">
      <path class="cls-36" d="M86.6,0c-27.41,26.71-14.01,24.83-42.21,45.09,10.96-23.33.7-28.34,42.21-45.09Z"/>
    </clipPath>
  </defs>
  <g class="cls-98">
    <rect class="cls-34" x="126.34" y="188.29" width="1.83" height="117.64"/>
    <rect class="cls-89" x="128.17" y="188.29" width="4.18" height="117.64"/>
    <rect class="cls-63" x="132.34" y="188.29" width="4.18" height="117.64"/>
    <rect class="cls-80" x="136.52" y="188.29" width="4.18" height="117.64"/>
    <rect class="cls-45" x="140.69" y="188.29" width="4.18" height="117.64"/>
    <rect class="cls-54" x="144.87" y="188.29" width="4.18" height="117.64"/>
    <rect class="cls-9" x="149.05" y="188.29" width="4.18" height="117.64"/>
    <rect class="cls-90" x="153.22" y="188.29" width="4.18" height="117.64"/>
    <rect class="cls-15" x="157.4" y="188.29" width="4.18" height="117.64"/>
    <rect class="cls-30" x="161.57" y="188.29" width="4.18" height="117.64"/>
    <rect class="cls-87" x="165.75" y="188.29" width="4.18" height="117.64"/>
    <rect class="cls-78" x="169.93" y="188.29" width="4.18" height="117.64"/>
    <rect class="cls-79" x="174.1" y="188.29" width="4.18" height="117.64"/>
    <rect class="cls-42" x="178.28" y="188.29" width="4.18" height="117.64"/>
    <rect class="cls-68" x="182.45" y="188.29" width="4.18" height="117.64"/>
    <rect class="cls-46" x="186.63" y="188.29" width="4.18" height="117.64"/>
    <rect class="cls-37" x="190.81" y="188.29" width="4.18" height="117.64"/>
    <rect class="cls-16" x="194.98" y="188.29" width="4.18" height="117.64"/>
    <rect class="cls-27" x="199.16" y="188.29" width="4.18" height="117.64"/>
    <rect class="cls-29" x="203.33" y="188.29" width="4.18" height="117.64"/>
    <rect class="cls-32" x="207.51" y="188.29" width="4.18" height="117.64"/>
    <rect class="cls-19" x="211.69" y="188.29" width="4.18" height="117.64"/>
    <rect class="cls-7" x="215.86" y="188.29" width="4.18" height="117.64"/>
    <rect class="cls-59" x="220.04" y="188.29" width="4.18" height="117.64"/>
    <rect class="cls-64" x="224.21" y="188.29" width="4.18" height="117.64"/>
    <rect class="cls-95" x="228.39" y="188.29" width="4.18" height="117.64"/>
    <rect class="cls-92" x="232.57" y="188.29" width="4.18" height="117.64"/>
    <rect class="cls-25" x="236.74" y="188.29" width="4.18" height="117.64"/>
    <rect class="cls-2" x="240.92" y="188.29" width="4.18" height="117.64"/>
    <rect class="cls-47" x="245.09" y="188.29" width="4.18" height="117.64"/>
    <rect class="cls-97" x="249.27" y="188.29" width="4.18" height="117.64"/>
    <rect class="cls-12" x="253.45" y="188.29" width="4.18" height="117.64"/>
    <rect class="cls-77" x="257.62" y="188.29" width="4.18" height="117.64"/>
    <rect class="cls-65" x="261.8" y="188.29" width="4.18" height="117.64"/>
    <rect class="cls-102" x="265.98" y="188.29" width="4.18" height="117.64"/>
    <rect class="cls-91" x="270.15" y="188.29" width="4.18" height="117.64"/>
    <rect class="cls-61" x="274.33" y="188.29" width="1.18" height="117.64"/>
  </g>
  <g class="cls-41">
    <rect class="cls-32" x="210.28" y="197.87" width="1.41" height="59.61"/>
    <rect class="cls-19" x="211.69" y="197.87" width="4.18" height="59.61"/>
    <rect class="cls-7" x="215.86" y="197.87" width="4.18" height="59.61"/>
    <rect class="cls-59" x="220.04" y="197.87" width="4.18" height="59.61"/>
    <rect class="cls-64" x="224.21" y="197.87" width="4.18" height="59.61"/>
    <rect class="cls-95" x="228.39" y="197.87" width="4.18" height="59.61"/>
    <rect class="cls-92" x="232.57" y="197.87" width="4.18" height="59.61"/>
    <rect class="cls-25" x="236.74" y="197.87" width="4.18" height="59.61"/>
    <rect class="cls-2" x="240.92" y="197.87" width="4.18" height="59.61"/>
    <rect class="cls-47" x="245.09" y="197.87" width="4.18" height="59.61"/>
    <rect class="cls-97" x="249.27" y="197.87" width="4.18" height="59.61"/>
    <rect class="cls-12" x="253.45" y="197.87" width="4.18" height="59.61"/>
    <rect class="cls-77" x="257.62" y="197.87" width="4.18" height="59.61"/>
    <rect class="cls-65" x="261.8" y="197.87" width="4.18" height="59.61"/>
    <rect class="cls-102" x="265.98" y="197.87" width="4.18" height="59.61"/>
    <rect class="cls-91" x="270.15" y="197.87" width="4.18" height="59.61"/>
    <rect class="cls-61" x="274.33" y="197.87" width="4.18" height="59.61"/>
    <rect class="cls-71" x="278.5" y="197.87" width="4.18" height="59.61"/>
    <rect class="cls-43" x="282.68" y="197.87" width="4.18" height="59.61"/>
    <rect class="cls-93" x="286.86" y="197.87" width="4.18" height="59.61"/>
    <rect class="cls-5" x="291.03" y="197.87" width="4.18" height="59.61"/>
    <rect class="cls-101" x="295.21" y="197.87" width="4.18" height="59.61"/>
    <rect class="cls-73" x="299.38" y="197.87" width="4.18" height="59.61"/>
    <rect class="cls-33" x="303.56" y="197.87" width=".25" height="59.61"/>
  </g>
  <g class="cls-88">
    <rect class="cls-12" x="254.1" y="163.01" width="3.52" height="66.74"/>
    <rect class="cls-77" x="257.62" y="163.01" width="4.18" height="66.74"/>
    <rect class="cls-65" x="261.8" y="163.01" width="4.18" height="66.74"/>
    <rect class="cls-102" x="265.98" y="163.01" width="4.18" height="66.74"/>
    <rect class="cls-91" x="270.15" y="163.01" width="4.18" height="66.74"/>
    <rect class="cls-61" x="274.33" y="163.01" width="4.18" height="66.74"/>
    <rect class="cls-71" x="278.5" y="163.01" width="4.18" height="66.74"/>
    <rect class="cls-43" x="282.68" y="163.01" width="4.18" height="66.74"/>
    <rect class="cls-93" x="286.86" y="163.01" width="4.18" height="66.74"/>
    <rect class="cls-5" x="291.03" y="163.01" width="4.18" height="66.74"/>
    <rect class="cls-101" x="295.21" y="163.01" width="4.18" height="66.74"/>
    <rect class="cls-73" x="299.38" y="163.01" width="4.18" height="66.74"/>
    <rect class="cls-33" x="303.56" y="163.01" width="4.18" height="66.74"/>
    <rect class="cls-28" x="307.74" y="163.01" width="4.18" height="66.74"/>
    <rect class="cls-72" x="311.91" y="163.01" width="4.18" height="66.74"/>
    <rect class="cls-83" x="316.09" y="163.01" width="4.18" height="66.74"/>
    <rect class="cls-81" x="320.26" y="163.01" width="4.18" height="66.74"/>
    <rect class="cls-44" x="324.44" y="163.01" width="3.23" height="66.74"/>
  </g>
  <g class="cls-57">
    <rect class="cls-93" x="287.01" y="129.78" width="4.02" height="73.25"/>
    <rect class="cls-5" x="291.03" y="129.78" width="4.18" height="73.25"/>
    <rect class="cls-101" x="295.21" y="129.78" width="4.18" height="73.25"/>
    <rect class="cls-73" x="299.38" y="129.78" width="4.18" height="73.25"/>
    <rect class="cls-33" x="303.56" y="129.78" width="4.18" height="73.25"/>
    <rect class="cls-28" x="307.74" y="129.78" width="4.18" height="73.25"/>
    <rect class="cls-72" x="311.91" y="129.78" width="4.18" height="73.25"/>
    <rect class="cls-83" x="316.09" y="129.78" width="4.18" height="73.25"/>
    <rect class="cls-81" x="320.26" y="129.78" width="4.18" height="73.25"/>
    <rect class="cls-44" x="324.44" y="129.78" width="4.18" height="73.25"/>
    <rect class="cls-53" x="328.62" y="129.78" width="4.18" height="73.25"/>
    <rect class="cls-24" x="332.79" y="129.78" width="4.18" height="73.25"/>
    <rect class="cls-17" x="336.97" y="129.78" width="4.12" height="73.25"/>
  </g>
  <g class="cls-13">
    <rect class="cls-73" x="300.29" y="83.05" width="3.27" height="80.98"/>
    <rect class="cls-33" x="303.56" y="83.05" width="4.18" height="80.98"/>
    <rect class="cls-28" x="307.74" y="83.05" width="4.18" height="80.98"/>
    <rect class="cls-72" x="311.91" y="83.05" width="4.18" height="80.98"/>
    <rect class="cls-83" x="316.09" y="83.05" width="4.18" height="80.98"/>
    <rect class="cls-81" x="320.26" y="83.05" width="4.18" height="80.98"/>
    <rect class="cls-44" x="324.44" y="83.05" width="4.18" height="80.98"/>
    <rect class="cls-53" x="328.62" y="83.05" width="4.18" height="80.98"/>
    <rect class="cls-24" x="332.79" y="83.05" width="4.18" height="80.98"/>
    <rect class="cls-17" x="336.97" y="83.05" width="4.18" height="80.98"/>
    <rect class="cls-40" x="341.14" y="83.05" width="4.18" height="80.98"/>
    <rect class="cls-10" x="345.32" y="83.05" width="1.2" height="80.98"/>
  </g>
  <g class="cls-48">
    <rect class="cls-93" x="290.85" y="38.48" width=".18" height="82.61"/>
    <rect class="cls-5" x="291.03" y="38.48" width="4.18" height="82.61"/>
    <rect class="cls-101" x="295.21" y="38.48" width="4.18" height="82.61"/>
    <rect class="cls-73" x="299.38" y="38.48" width="4.18" height="82.61"/>
    <rect class="cls-33" x="303.56" y="38.48" width="4.18" height="82.61"/>
    <rect class="cls-28" x="307.74" y="38.48" width="4.18" height="82.61"/>
    <rect class="cls-72" x="311.91" y="38.48" width="4.18" height="82.61"/>
    <rect class="cls-83" x="316.09" y="38.48" width="4.18" height="82.61"/>
    <rect class="cls-81" x="320.26" y="38.48" width="4.18" height="82.61"/>
    <rect class="cls-44" x="324.44" y="38.48" width="4.18" height="82.61"/>
    <rect class="cls-53" x="328.62" y="38.48" width="4.18" height="82.61"/>
    <rect class="cls-24" x="332.79" y="38.48" width="4.18" height="82.61"/>
    <rect class="cls-17" x="336.97" y="38.48" width="4.12" height="82.61"/>
  </g>
  <g class="cls-3">
    <rect class="cls-61" x="275.98" y="15.93" width="2.52" height="64.38"/>
    <rect class="cls-71" x="278.5" y="15.93" width="4.18" height="64.38"/>
    <rect class="cls-43" x="282.68" y="15.93" width="4.18" height="64.38"/>
    <rect class="cls-93" x="286.86" y="15.93" width="4.18" height="64.38"/>
    <rect class="cls-5" x="291.03" y="15.93" width="4.18" height="64.38"/>
    <rect class="cls-101" x="295.21" y="15.93" width="4.18" height="64.38"/>
    <rect class="cls-73" x="299.38" y="15.93" width="4.18" height="64.38"/>
    <rect class="cls-33" x="303.56" y="15.93" width="4.18" height="64.38"/>
    <rect class="cls-28" x="307.74" y="15.93" width="4.18" height="64.38"/>
    <rect class="cls-72" x="311.91" y="15.93" width="4.18" height="64.38"/>
    <rect class="cls-83" x="316.09" y="15.93" width="2.94" height="64.38"/>
  </g>
  <g class="cls-4">
    <rect class="cls-77" x="259.92" y="0" width="1.88" height="45.09"/>
    <rect class="cls-65" x="261.8" y="0" width="4.18" height="45.09"/>
    <rect class="cls-102" x="265.98" y="0" width="4.18" height="45.09"/>
    <rect class="cls-91" x="270.15" y="0" width="4.18" height="45.09"/>
    <rect class="cls-61" x="274.33" y="0" width="4.18" height="45.09"/>
    <rect class="cls-71" x="278.5" y="0" width="4.18" height="45.09"/>
    <rect class="cls-43" x="282.68" y="0" width="4.18" height="45.09"/>
    <rect class="cls-93" x="286.86" y="0" width="4.18" height="45.09"/>
    <rect class="cls-5" x="291.03" y="0" width="4.18" height="45.09"/>
    <rect class="cls-101" x="295.21" y="0" width="4.18" height="45.09"/>
    <rect class="cls-73" x="299.38" y="0" width="2.74" height="45.09"/>
  </g>
  <path class="cls-75" d="M91.91,112.72c-4.21,0-9.56-1.23-13.35-1.64v-17.06h1.85c.51,6.78,4.21,16.24,11.51,16.24,6.48,0,8.84-5.14,8.84-9.87,0-17.37-23.43-24.05-23.43-42.34,0-9.46,6.99-17.16,16.65-17.16,4.01,0,8.53.82,11.2,1.44v13.87h-1.95c-.51-5.14-2.88-12.85-9.97-12.85-5.55,0-8.64,4.94-8.64,10.07,0,15.1,23.12,22.4,23.12,40.59,0,9.04-5.24,18.7-15.82,18.7Z"/>
  <path class="cls-75" d="M146.29,57.64h-1.74c-1.44-13.36-7.71-13.57-11.51-13.57h-1.13v60.33c0,2.46.31,5.44,4.32,5.44h1.64v1.75h-21.06v-1.75h1.75c3.8,0,3.8-2.98,3.8-5.44v-60.33h-1.13c-3.81,0-10.07.21-11.51,13.57h-1.74v-15.62h38.32v15.62Z"/>
  <path class="cls-75" d="M146.01,76.44c0-19.12,8.33-35.56,20.86-35.56s20.86,16.44,20.86,35.56c0,17.47-7.81,36.27-20.86,36.27s-20.86-18.29-20.86-36.27ZM156.08,76.96c0,25.49,4.11,33.4,10.79,33.4s10.79-7.91,10.79-33.4-4.32-33.7-10.79-33.7-10.79,8.33-10.79,33.7Z"/>
  <path class="cls-75" d="M219.08,69.04l7.83,35.05c1.24,3.9,2.68,5.75,5.86,5.75v1.75h-11.1c-2.06,0-2.98-1.64-3.19-2.26l-7.61-37.03c-.51-1.85-1.85-2.77-3.39-2.77l-4.21-.1v34.98c0,2.26.2,5.44,3.9,5.44h1.24v1.75h-19.73v-1.75h.92c4.01,0,4.11-3.18,4.11-5.44v-55.7c0-2.06,0-5.04-4.11-5.04h-.92v-1.64h20.45c9.66,0,16.73,5.95,16.69,14.73-.03,6.68-3.91,11.53-6.74,12.29ZM203.28,44.18v22.78s2.67.1,3.49.1c8.33,0,10.02-3.03,10.02-9.81,0-13.67-6.32-13.07-10.33-13.07h-3.18Z"/>
  <path class="cls-75" d="M249.59,67.05h1.81c3.5,0,6.89-2.16,6.89-6.58v-2.26h2.06v21.48h-2.06v-3.29c0-4.32-3.09-7.09-6.89-7.09h-1.81l-.22,37.15c0,2.67,1.64,2.88,2.47,2.88h4.62c4.63,0,9.35-1.13,10.89-15.31h1.85v17.57h-34.52v-1.75h1.33c3.6,0,3.81-3.18,3.81-5.44v-55.7c0-2.06,0-5.04-4.01-5.04h-1.13v-1.64h33.29v15.62h-1.85c-.72-7.2-2.98-13.36-10.99-13.36h-5.76l.22,22.77Z"/>
  <path class="cls-75" d="M92.99,186.38c0,2.85,1.75,3.07,2.63,3.07h4.6c4.94,0,9.98-1.21,11.62-16.33h1.97v18.74h-36.49v-1.87h1.42c3.84,0,4.06-3.4,4.06-5.81v-59.41c0-2.19,0-5.37-4.71-5.37h-.66v-1.75h20.5v1.75h-.99c-3.94,0-3.94,3.18-3.94,5.37v61.6Z"/>
  <path class="cls-75" d="M136.53,119.42h-.55c-4.16,0-4.27,3.18-4.27,5.37v59.41c0,2.63.12,5.81,4.06,5.81h.98v1.87h-20.93v-1.87h1.31c4.17,0,4.38-3.18,4.38-5.81v-59.41c0-2.19,0-5.37-4.6-5.37h-.77v-1.75h20.39v1.75Z"/>
  <path class="cls-75" d="M149.14,155.26c0,30.8,5.27,35.29,11.29,35.29,3.61,0,6.58-2.3,6.58-5.59v-34.14c0-2.3,0-4.49-4.27-4.49h-.77v-1.97h20.05v1.97h-.65c-4.17,0-4.27,2.3-4.27,4.49v41.04h-1.97c0-1.53-2.53-2.3-3.73-2.3-3.72,0-5.92,3.51-10.96,3.51-13.59,0-22.14-19.4-22.14-38.8s10.85-37.81,23.78-37.81c2.86,0,4.83,1.64,7.24,1.64,1.1,0,2.3,0,2.74-1.53h1.87v17.76h-1.87c-1.53-8.33-4.38-15.46-9.86-15.46-7.24,0-13.05,10.85-13.05,36.39Z"/>
  <path class="cls-75" d="M226.54,119.42h-.55c-3.94,0-4.05,3.18-4.05,5.37v59.41c0,2.63.11,5.81,3.94,5.81h.87v1.87h-19.72v-1.87h1.2c3.94,0,4.17-3.18,4.17-5.81v-36.99h-16.22v36.99c0,2.63.11,5.81,3.84,5.81h.98v1.87h-19.72v-1.87h1.09c4.06,0,4.17-3.18,4.17-5.81v-59.41c0-2.19,0-5.37-4.27-5.37h-.77v-1.75h19.29v1.75h-.55c-3.94,0-4.05,3.18-4.05,5.37v19.57h16.22v-19.57c0-2.19,0-5.37-4.39-5.37h-.77v-1.75h19.29v1.75Z"/>
  <path class="cls-75" d="M269.2,134.32h-1.86c-1.53-14.25-8.22-14.47-12.28-14.47h-1.2v64.34c0,2.63.33,5.81,4.6,5.81h1.75v1.87h-22.46v-1.87h1.87c4.05,0,4.05-3.18,4.05-5.81v-64.34h-1.2c-4.06,0-10.74.22-12.28,14.47h-1.86v-16.66h40.87v16.66Z"/>
  <g class="cls-49">
    <rect class="cls-96" x="71" y="188.29" width="2.87" height="117.64"/>
    <rect class="cls-39" x="73.88" y="188.29" width="4.18" height="117.64"/>
    <rect class="cls-26" x="78.05" y="188.29" width="4.18" height="117.64"/>
    <rect class="cls-67" x="82.23" y="188.29" width="4.18" height="117.64"/>
    <rect class="cls-38" x="86.4" y="188.29" width="4.18" height="117.64"/>
    <rect class="cls-69" x="90.58" y="188.29" width="4.18" height="117.64"/>
    <rect class="cls-99" x="94.76" y="188.29" width="4.18" height="117.64"/>
    <rect class="cls-6" x="98.93" y="188.29" width="4.18" height="117.64"/>
    <rect class="cls-51" x="103.11" y="188.29" width="4.18" height="117.64"/>
    <rect class="cls-60" x="107.28" y="188.29" width="4.18" height="117.64"/>
    <rect class="cls-1" x="111.46" y="188.29" width="4.18" height="117.64"/>
    <rect class="cls-8" x="115.64" y="188.29" width="4.18" height="117.64"/>
    <rect class="cls-58" x="119.81" y="188.29" width="4.18" height="117.64"/>
    <rect class="cls-34" x="123.99" y="188.29" width="4.18" height="117.64"/>
    <rect class="cls-89" x="128.17" y="188.29" width="4.18" height="117.64"/>
    <rect class="cls-63" x="132.34" y="188.29" width="4.18" height="117.64"/>
    <rect class="cls-80" x="136.52" y="188.29" width="4.18" height="117.64"/>
    <rect class="cls-45" x="140.69" y="188.29" width="4.18" height="117.64"/>
    <rect class="cls-54" x="144.87" y="188.29" width="4.18" height="117.64"/>
    <rect class="cls-9" x="149.05" y="188.29" width="4.18" height="117.64"/>
    <rect class="cls-90" x="153.22" y="188.29" width="4.18" height="117.64"/>
    <rect class="cls-15" x="157.4" y="188.29" width="4.18" height="117.64"/>
    <rect class="cls-30" x="161.57" y="188.29" width="4.18" height="117.64"/>
    <rect class="cls-87" x="165.75" y="188.29" width="4.18" height="117.64"/>
    <rect class="cls-78" x="169.93" y="188.29" width="4.18" height="117.64"/>
    <rect class="cls-79" x="174.1" y="188.29" width="4.18" height="117.64"/>
    <rect class="cls-42" x="178.28" y="188.29" width="4.18" height="117.64"/>
    <rect class="cls-68" x="182.45" y="188.29" width="4.18" height="117.64"/>
    <rect class="cls-46" x="186.63" y="188.29" width="4.18" height="117.64"/>
    <rect class="cls-37" x="190.81" y="188.29" width="4.18" height="117.64"/>
    <rect class="cls-16" x="194.98" y="188.29" width="4.18" height="117.64"/>
    <rect class="cls-27" x="199.16" y="188.29" width="4.18" height="117.64"/>
    <rect class="cls-29" x="203.33" y="188.29" width="4.18" height="117.64"/>
    <rect class="cls-32" x="207.51" y="188.29" width="4.18" height="117.64"/>
    <rect class="cls-19" x="211.69" y="188.29" width="4.18" height="117.64"/>
    <rect class="cls-7" x="215.86" y="188.29" width="4.18" height="117.64"/>
    <rect class="cls-59" x="220.04" y="188.29" width=".14" height="117.64"/>
  </g>
  <g class="cls-21">
    <rect class="cls-18" x="42.7" y="197.87" width="1.94" height="59.61"/>
    <rect class="cls-86" x="44.64" y="197.87" width="4.18" height="59.61"/>
    <rect class="cls-55" x="48.82" y="197.87" width="4.18" height="59.61"/>
    <rect class="cls-22" x="53" y="197.87" width="4.18" height="59.61"/>
    <rect class="cls-74" x="57.17" y="197.87" width="4.18" height="59.61"/>
    <rect class="cls-84" x="61.35" y="197.87" width="4.18" height="59.61"/>
    <rect class="cls-50" x="65.52" y="197.87" width="4.18" height="59.61"/>
    <rect class="cls-96" x="69.7" y="197.87" width="4.18" height="59.61"/>
    <rect class="cls-39" x="73.88" y="197.87" width="4.18" height="59.61"/>
    <rect class="cls-26" x="78.05" y="197.87" width="4.18" height="59.61"/>
    <rect class="cls-67" x="82.23" y="197.87" width="4.18" height="59.61"/>
    <rect class="cls-38" x="86.4" y="197.87" width="4.18" height="59.61"/>
    <rect class="cls-69" x="90.58" y="197.87" width="4.18" height="59.61"/>
    <rect class="cls-99" x="94.76" y="197.87" width="4.18" height="59.61"/>
    <rect class="cls-6" x="98.93" y="197.87" width="4.18" height="59.61"/>
    <rect class="cls-51" x="103.11" y="197.87" width="4.18" height="59.61"/>
    <rect class="cls-60" x="107.28" y="197.87" width="4.18" height="59.61"/>
    <rect class="cls-1" x="111.46" y="197.87" width="4.18" height="59.61"/>
    <rect class="cls-8" x="115.64" y="197.87" width="4.18" height="59.61"/>
    <rect class="cls-58" x="119.81" y="197.87" width="4.18" height="59.61"/>
    <rect class="cls-34" x="123.99" y="197.87" width="4.18" height="59.61"/>
    <rect class="cls-89" x="128.17" y="197.87" width="4.18" height="59.61"/>
    <rect class="cls-63" x="132.34" y="197.87" width="3.9" height="59.61"/>
  </g>
  <g class="cls-23">
    <rect class="cls-70" x="18.85" y="163.01" width=".74" height="66.74"/>
    <rect class="cls-85" x="19.59" y="163.01" width="4.18" height="66.74"/>
    <rect class="cls-103" x="23.76" y="163.01" width="4.18" height="66.74"/>
    <rect class="cls-31" x="27.94" y="163.01" width="4.18" height="66.74"/>
    <rect class="cls-52" x="32.12" y="163.01" width="4.18" height="66.74"/>
    <rect class="cls-14" x="36.29" y="163.01" width="4.18" height="66.74"/>
    <rect class="cls-18" x="40.47" y="163.01" width="4.18" height="66.74"/>
    <rect class="cls-86" x="44.64" y="163.01" width="4.18" height="66.74"/>
    <rect class="cls-55" x="48.82" y="163.01" width="4.18" height="66.74"/>
    <rect class="cls-22" x="53" y="163.01" width="4.18" height="66.74"/>
    <rect class="cls-74" x="57.17" y="163.01" width="4.18" height="66.74"/>
    <rect class="cls-84" x="61.35" y="163.01" width="4.18" height="66.74"/>
    <rect class="cls-50" x="65.52" y="163.01" width="4.18" height="66.74"/>
    <rect class="cls-96" x="69.7" y="163.01" width="4.18" height="66.74"/>
    <rect class="cls-39" x="73.88" y="163.01" width="4.18" height="66.74"/>
    <rect class="cls-26" x="78.05" y="163.01" width="4.18" height="66.74"/>
    <rect class="cls-67" x="82.23" y="163.01" width="4.18" height="66.74"/>
    <rect class="cls-38" x="86.4" y="163.01" width="4.18" height="66.74"/>
    <rect class="cls-69" x="90.58" y="163.01" width="1.84" height="66.74"/>
  </g>
  <g class="cls-35">
    <rect class="cls-82" x="5.43" y="129.78" width="1.63" height="73.25"/>
    <rect class="cls-100" x="7.06" y="129.78" width="4.18" height="73.25"/>
    <rect class="cls-76" x="11.24" y="129.78" width="4.18" height="73.25"/>
    <rect class="cls-70" x="15.41" y="129.78" width="4.18" height="73.25"/>
    <rect class="cls-85" x="19.59" y="129.78" width="4.18" height="73.25"/>
    <rect class="cls-103" x="23.76" y="129.78" width="4.18" height="73.25"/>
    <rect class="cls-31" x="27.94" y="129.78" width="4.18" height="73.25"/>
    <rect class="cls-52" x="32.12" y="129.78" width="4.18" height="73.25"/>
    <rect class="cls-14" x="36.29" y="129.78" width="4.18" height="73.25"/>
    <rect class="cls-18" x="40.47" y="129.78" width="4.18" height="73.25"/>
    <rect class="cls-86" x="44.64" y="129.78" width="4.18" height="73.25"/>
    <rect class="cls-55" x="48.82" y="129.78" width="4.18" height="73.25"/>
    <rect class="cls-22" x="53" y="129.78" width="4.18" height="73.25"/>
    <rect class="cls-74" x="57.17" y="129.78" width="2.33" height="73.25"/>
  </g>
  <g class="cls-62">
    <rect class="cls-56" y="83.05" width="2.88" height="80.98"/>
    <rect class="cls-82" x="2.88" y="83.05" width="4.18" height="80.98"/>
    <rect class="cls-100" x="7.06" y="83.05" width="4.18" height="80.98"/>
    <rect class="cls-76" x="11.24" y="83.05" width="4.18" height="80.98"/>
    <rect class="cls-70" x="15.41" y="83.05" width="4.18" height="80.98"/>
    <rect class="cls-85" x="19.59" y="83.05" width="4.18" height="80.98"/>
    <rect class="cls-103" x="23.76" y="83.05" width="4.18" height="80.98"/>
    <rect class="cls-31" x="27.94" y="83.05" width="4.18" height="80.98"/>
    <rect class="cls-52" x="32.12" y="83.05" width="4.18" height="80.98"/>
    <rect class="cls-14" x="36.29" y="83.05" width="4.18" height="80.98"/>
    <rect class="cls-18" x="40.47" y="83.05" width="4.18" height="80.98"/>
    <rect class="cls-86" x="44.64" y="83.05" width="1.59" height="80.98"/>
  </g>
  <g class="cls-94">
    <rect class="cls-82" x="5.43" y="38.48" width="1.63" height="82.61"/>
    <rect class="cls-100" x="7.06" y="38.48" width="4.18" height="82.61"/>
    <rect class="cls-76" x="11.24" y="38.48" width="4.18" height="82.61"/>
    <rect class="cls-70" x="15.41" y="38.48" width="4.18" height="82.61"/>
    <rect class="cls-85" x="19.59" y="38.48" width="4.18" height="82.61"/>
    <rect class="cls-103" x="23.76" y="38.48" width="4.18" height="82.61"/>
    <rect class="cls-31" x="27.94" y="38.48" width="4.18" height="82.61"/>
    <rect class="cls-52" x="32.12" y="38.48" width="4.18" height="82.61"/>
    <rect class="cls-14" x="36.29" y="38.48" width="4.18" height="82.61"/>
    <rect class="cls-18" x="40.47" y="38.48" width="4.18" height="82.61"/>
    <rect class="cls-86" x="44.64" y="38.48" width="4.18" height="82.61"/>
    <rect class="cls-55" x="48.82" y="38.48" width="4.18" height="82.61"/>
    <rect class="cls-22" x="53" y="38.48" width="2.67" height="82.61"/>
  </g>
  <g class="cls-66">
    <rect class="cls-103" x="27.49" y="15.93" width=".45" height="64.38"/>
    <rect class="cls-31" x="27.94" y="15.93" width="4.18" height="64.38"/>
    <rect class="cls-52" x="32.12" y="15.93" width="4.18" height="64.38"/>
    <rect class="cls-14" x="36.29" y="15.93" width="4.18" height="64.38"/>
    <rect class="cls-18" x="40.47" y="15.93" width="4.18" height="64.38"/>
    <rect class="cls-86" x="44.64" y="15.93" width="4.18" height="64.38"/>
    <rect class="cls-55" x="48.82" y="15.93" width="4.18" height="64.38"/>
    <rect class="cls-22" x="53" y="15.93" width="4.18" height="64.38"/>
    <rect class="cls-74" x="57.17" y="15.93" width="4.18" height="64.38"/>
    <rect class="cls-84" x="61.35" y="15.93" width="4.18" height="64.38"/>
    <rect class="cls-50" x="65.52" y="15.93" width="4.18" height="64.38"/>
    <rect class="cls-96" x="69.7" y="15.93" width=".83" height="64.38"/>
  </g>
  <g class="cls-11">
    <rect class="cls-18" x="44.39" y="0" width=".25" height="45.09"/>
    <rect class="cls-86" x="44.64" y="0" width="4.18" height="45.09"/>
    <rect class="cls-55" x="48.82" y="0" width="4.18" height="45.09"/>
    <rect class="cls-22" x="53" y="0" width="4.18" height="45.09"/>
    <rect class="cls-74" x="57.17" y="0" width="4.18" height="45.09"/>
    <rect class="cls-84" x="61.35" y="0" width="4.18" height="45.09"/>
    <rect class="cls-50" x="65.52" y="0" width="4.18" height="45.09"/>
    <rect class="cls-96" x="69.7" y="0" width="4.18" height="45.09"/>
    <rect class="cls-39" x="73.88" y="0" width="4.18" height="45.09"/>
    <rect class="cls-26" x="78.05" y="0" width="4.18" height="45.09"/>
    <rect class="cls-67" x="82.23" y="0" width="4.18" height="45.09"/>
    <rect class="cls-38" x="86.4" y="0" width=".2" height="45.09"/>
  </g>
  <g>
    <path class="cls-20" d="M147.24,210.95h.75c.88,0,1.73-.54,1.73-1.65v-.57h.51v5.38h-.51v-.82c0-1.08-.77-1.77-1.73-1.77h-.75v7.43c0,.67.41.72.62.72h1.16c1.16,0,2.34-.28,2.73-3.83h.46v4.4h-8.64v-.44h.34c.9,0,.95-.8.95-1.36v-13.94c0-.52,0-1.26-1-1.26h-.28v-.41h8.34v3.91h-.46c-.18-1.8-.75-3.34-2.75-3.34h-1.44v7.56Z"/>
    <path class="cls-20" d="M153.26,216.9c.05.82.31,3.06,2.16,3.06.93,0,1.49-.75,1.49-1.67,0-2.8-4.32-3.71-4.32-7,0-1.8,1.67-3.01,3.32-3.01.75,0,1.62.18,2.29.41v2.8h-.54c-.08-1.08-.46-2.78-1.9-2.78-1,0-1.49.85-1.49,1.54,0,2.44,4.37,3.7,4.37,6.89,0,1.88-1.55,3.24-3.22,3.24-1.21,0-2.39-.36-2.67-.49v-3.01h.51Z"/>
    <path class="cls-20" d="M162.17,205.81v2.65h2.37v.59h-2.37v9.08c0,.95.41,1.49,1.18,1.49.23,0,.72-.13,1.06-.77l.34.26c-.62.93-1.26,1.29-2.16,1.29-1.44,0-2.6-.77-2.6-2.65v-8.69h-1.13v-.41c.36-.05.75-.13,1.05-.33.77-.49,1.39-1.36,1.77-2.5h.49Z"/>
    <path class="cls-20" d="M169.14,205.86c.36-.9,1.57-3.32,4.27-3.32s3.6,1.78,3.6,3.73c0,2.06-1.21,4.04-2.21,5.68-1.8,2.93-4.11,6.02-4.11,6.02h4.24c1.08,0,1.39-.87,1.42-1.83h.46v4.09h-7.97v-1.03c2.11-2.67,6.12-7.95,6.12-11.88,0-1.93-.98-3.06-2.57-3.06-1.9,0-3.01,1.72-3.01,1.72l-.23-.13Z"/>
    <path class="cls-20" d="M177.79,211.44c0-4.78,2.06-8.9,5.12-8.9s5.12,4.12,5.12,8.9c0,4.37-1.9,9.08-5.12,9.08s-5.12-4.58-5.12-9.08ZM180.44,211.78c0,6.38.82,8.16,2.47,8.16s2.47-1.78,2.47-8.16-.88-8.64-2.47-8.64-2.47,2.29-2.47,8.64Z"/>
    <path class="cls-20" d="M192.05,202.39v16.05c0,.62.03,1.36.95,1.36h.23v.44h-4.91v-.44h.31c.98,0,1.03-.75,1.03-1.36v-12.71c0-.57-.28-.69-.64-.69-.21,0-.64.05-.64.05v-.44c1.26-.23,2.6-1.21,3.42-2.26h.26Z"/>
    <path class="cls-20" d="M202.96,214.86c0,3.37-1.67,5.66-4.32,5.66-3.29,0-4.68-3.32-4.68-6.51,0-5.32,3.24-11.11,7.72-11.14v.26c-3.29.44-4.53,4.32-4.99,7.61.52-.59,1.36-.98,2.24-.98,2.52,0,4.04,2.11,4.04,5.09ZM198.33,210.49c-1.93.21-1.9,3.22-1.9,4.17,0,4.27.93,5.3,2.29,5.3,1.9,0,1.9-3.71,1.9-4.86,0-4.12-1.29-4.71-2.29-4.61Z"/>
  </g>
</svg>