<?xml version="1.0" encoding="UTF-8"?>
<svg id="Logos" xmlns="http://www.w3.org/2000/svg" version="1.1" viewBox="0 0 595.28 841.89">
  <defs>
    <style>
      .cls-1 {
        fill: #1d1d1b;
      }

      .cls-1, .cls-2, .cls-3 {
        stroke-width: 0px;
      }

      .cls-2 {
        fill: #fff;
      }

      .cls-3 {
        fill: #ce1417;
      }
    </style>
  </defs>
  <g id="Normal">
    <path id="Agentur_Inneres" data-name="Agentur Inneres" class="cls-2" d="M341.48,437.05c-.97,0-1.83-.61-2.14-1.52-.34-1-.76-2.61-1.36-5.24-.76-3.51-1.94-4.98-4.09-5.06h-2.07c-.35,7.21-4.4,11.81-10.51,11.81-3.75,0-10.05-1.51-10.05-11.6v-10.83h-5.44c-.14,0-.25.11-.25.25v19.91c0,1.25-1.02,2.26-2.26,2.26h-1.33c-.78,0-1.5-.4-1.92-1.06l-7.63-12.19c-1.07-1.7-1.98-3.23-2.76-4.63.03,1.96.06,4.25.06,6.12v9.51c0,1.25-1.02,2.26-2.26,2.26h-19.36c-4.26,0-7.57-1.15-10.1-3.53-1.2-1.13-2.14-2.58-2.81-4.3-.03-.09-.13-.15-.23-.15l-7.17.05c-.11,0-.2.07-.24.17l-2.05,6.21c-.31.93-1.17,1.55-2.15,1.55h-.7c-.73,0-1.42-.35-1.84-.94-.42-.59-.54-1.36-.3-2.05l7.7-22.67c.31-.92,1.17-1.53,2.14-1.53h2.13c.97,0,1.83.62,2.14,1.53l1.61,4.73c2.48-3.96,7.02-6.26,12.58-6.26h19.7c.78,0,1.49.39,1.91,1.05l7.7,12.16c.78,1.23,1.49,2.41,2.14,3.57v-11.75c0-.14-.11-.25-.25-.25h-5.15c-1.25,0-2.26-1.01-2.26-2.26v-.25c0-1.25,1.01-2.26,2.26-2.26h19.42c1.25,0,2.26,1.02,2.26,2.26v13.42c0,3.15.84,6.9,4.86,6.9,3.11,0,5.12-3.14,5.12-8v-12.31c0-1.25,1.01-2.26,2.26-2.26h5.03c3.74,0,6.19.71,7.96,2.3,1.49,1.3,2.31,3.26,2.31,5.5,0,3.18-1.71,4.66-3.71,5.57,1.39,1.44,2.19,3.78,2.64,5.74.73,3.1,1.38,5.74,1.85,6.61.17.31.16.69-.02.99-.18.3-.51.49-.86.49h-2.53ZM277.17,425.24c-.14,0-.25.11-.25.25v6.57c0,.14.11.25.25.25h7.5v-7.07h-7.5ZM268.72,414.59c-5.69,0-9.09,3.31-9.09,8.86s3.25,8.86,8.69,8.86h3.08c.14,0,.25-.11.25-.25v-6.57c0-.14-.11-.25-.25-.25h-2.6c-1.25,0-2.26-1.01-2.26-2.26v-.18c0-1.25,1.01-2.26,2.26-2.26h2.85v-5.95h-2.93ZM253.74,424.57l-2.3-6.78-2.29,6.78h4.59ZM334.2,420.54c3.92,0,4.66-.89,4.66-2.52s-.55-3.37-4.8-3.41h-2.19v5.93h2.33ZM277.17,414.59c-.14,0-.25.11-.25.25v5.45c0,.14.11.25.25.25h7.5v-5.95h-7.5Z"/>
    <path id="Agentur" class="cls-3" d="M333.85,410.86c3.48,0,5.72.63,7.29,2.04,1.27,1.11,1.98,2.82,1.98,4.75,0,3.3-2.09,4.39-4.75,5.28v.11c1.94.67,3.1,3.55,3.7,6.15.82,3.49,1.42,5.9,1.94,6.86h0s-2.53,0-2.53,0h0c-.53,0-1.01-.33-1.19-.84-.36-1.05-.8-2.83-1.33-5.13-.75-3.45-2.08-5.73-5.03-5.84h-3.09c0,7.6-4.08,11.81-9.53,11.81-5.16,0-9.04-2.9-9.04-10.59v-11.83h-6.44c-.69,0-1.26.56-1.26,1.26v19.91c0,.69-.56,1.26-1.26,1.26h-1.33c-.43,0-.84-.22-1.06-.59l-7.63-12.19c-1.76-2.8-3.44-5.68-4.71-8.41,0,0,.15,6.24.15,10.43v9.51c0,.69-.56,1.26-1.26,1.26h-19.36c-3.81,0-6.95-.95-9.42-3.26-1.08-1.03-1.95-2.37-2.56-3.93-.19-.48-.65-.79-1.16-.79,0,0,0,0,0,0l-7.17.05c-.54,0-1.01.35-1.18.86l-2.05,6.21c-.17.51-.65.86-1.19.86h-.7c-.86,0-1.47-.85-1.19-1.66l7.7-22.68c.17-.51.65-.85,1.19-.85h2.13c.54,0,1.02.34,1.19.85l2.39,7c1.81-4.73,6.33-7.85,12.75-7.85h19.7c.43,0,.83.22,1.06.58l7.7,12.16c1.61,2.54,2.91,4.85,4,7.09v-15.81c0-.69-.56-1.26-1.26-1.26h-5.15c-.69,0-1.26-.56-1.26-1.26v-.25c0-.69.56-1.26,1.26-1.26h19.42c.69,0,1.26.56,1.26,1.26v13.42c0,5.55,2.5,7.91,5.87,7.91,3.74,0,6.13-3.53,6.13-9.01v-12.32c0-.69.56-1.26,1.26-1.26h5.03M277.17,421.54h8.5v-7.96h-8.5c-.69,0-1.26.56-1.26,1.26v5.45c0,.69.56,1.26,1.26,1.26M268.32,433.32h3.08c.69,0,1.26-.56,1.26-1.26v-6.57c0-.69-.56-1.26-1.26-1.26h-2.6c-.69,0-1.26-.56-1.26-1.26v-.18c0-.69.56-1.26,1.26-1.26h3.86v-7.96h-3.93c-6.13,0-10.1,3.68-10.1,9.87s3.83,9.87,9.7,9.87M330.86,421.54h3.34c3.48,0,5.67-.67,5.67-3.53,0-3.23-2.36-4.38-5.8-4.42h-3.21v7.95M247.75,425.58h7.39l-1.36-4.01-1.1-3.24c-.02-.05-.03-.1-.05-.15l-1.19-3.52-3.69,10.92M277.17,433.32h8.5v-9.08h-8.5c-.69,0-1.26.56-1.26,1.26v6.57c0,.69.56,1.26,1.26,1.26M333.85,408.84h-5.03c-1.8,0-3.27,1.47-3.27,3.27v12.32c0,3.38-1.08,6.99-4.12,6.99-2.56,0-3.85-1.98-3.85-5.89v-13.42c0-1.8-1.47-3.27-3.27-3.27h-19.42c-1.46,0-2.7.96-3.12,2.28l-.48-.76c-.6-.95-1.63-1.52-2.76-1.52h-19.7c-5.13,0-9.45,1.85-12.25,5.12l-.99-2.91c-.45-1.32-1.69-2.21-3.09-2.21h-2.13c-1.4,0-2.64.89-3.09,2.22l-7.7,22.68c-.34,1-.17,2.1.44,2.95s1.61,1.37,2.66,1.37h.7c1.41,0,2.66-.9,3.1-2.24l1.88-5.69,6.11-.04c.71,1.65,1.66,3.05,2.85,4.17,2.74,2.57,6.27,3.81,10.8,3.81h19.36c1.8,0,3.27-1.47,3.27-3.27v-9.51c0-.73,0-1.52-.01-2.33.27.45.56.91.85,1.38l7.63,12.19c.6.96,1.64,1.53,2.77,1.53h1.33c1.8,0,3.27-1.47,3.27-3.27v-19.15h3.68v9.82c0,8.01,4.03,12.6,11.06,12.6,6.32,0,10.74-4.67,11.44-11.81h1.13c1.07.05,2.28.45,3.1,4.25.61,2.68,1.04,4.33,1.39,5.36.45,1.31,1.69,2.2,3.09,2.2h2.53c.71,0,1.37-.37,1.73-.98.36-.61.38-1.37.04-1.99-.45-.82-1.23-4.16-1.75-6.36-.39-1.69-1.03-3.64-2.08-5.18,1.65-1.03,3.18-2.77,3.18-5.89,0-2.5-.97-4.78-2.67-6.26-1.95-1.75-4.61-2.54-8.61-2.54h0ZM277.92,415.6h5.74v3.94h-5.74v-3.94h0ZM268.32,431.3c-4.88,0-7.68-2.86-7.68-7.85s2.95-7.85,8.09-7.85h1.92v3.94h-1.85c-1.8,0-3.27,1.47-3.27,3.27v.18c0,1.8,1.47,3.27,3.27,3.27h1.85v5.06h-2.33ZM332.87,415.61h1.2c3.78.04,3.78,1.52,3.78,2.41,0,.75,0,1.52-3.66,1.52h-1.33v-3.92h0ZM299.28,422.98c-.1-.15-.19-.31-.29-.46l-4.37-6.9c.09,0,.18.01.27.01h4.39v7.35h0ZM250.56,423.57l.89-2.63.44,1.28.46,1.35h-1.78ZM277.92,426.25h5.74v5.06h-5.74v-5.06h0Z"/>
    <path id="I-Punkt_Inneres_2" data-name="I-Punkt Inneres 2" class="cls-2" d="M259.39,372.25c-1.63,0-2.9-1.29-2.9-2.94s1.28-2.98,2.98-2.98,2.94,1.25,2.94,2.98c.03.76-.25,1.5-.78,2.05-.56.58-1.35.89-2.23.89Z"/>
    <path id="I-Punkt_Inneres_1" data-name="I-Punkt Inneres 1" class="cls-2" d="M361.56,372.25c-1.63,0-2.9-1.29-2.9-2.94s1.28-2.98,2.98-2.98,2.94,1.25,2.94,2.98c.03.76-.25,1.5-.78,2.05-.56.58-1.35.89-2.23.89Z"/>
    <path id="Videoschnitt_Inneres" data-name="Videoschnitt Inneres" class="cls-2" d="M325.53,400c-3.52,0-6.64-1.1-8.93-3.13-1.67,2-4.4,3.09-7.81,3.09h-32.62c-1.26,0-2.29-1.03-2.29-2.29v-.49c-2.49,1.83-6,2.78-10.27,2.78h-4.43c-1.26,0-2.29-1.03-2.29-2.29v-9.04l-3.39,9.79c-.32.92-1.19,1.54-2.17,1.54h-1.59c-1,0-1.88-.64-2.18-1.6l-7.17-22.67c-.22-.7-.1-1.45.34-2.04.44-.6,1.11-.94,1.85-.94h.65c1.01,0,1.89.65,2.19,1.62l3.53,11.53c.53,1.73,1.21,4.16,1.75,6.12.58-1.98,1.31-4.41,1.87-6.1l3.85-11.6c.31-.94,1.19-1.57,2.18-1.57h6c3.93,0,6.99.76,9.29,2.32v-.03c0-1.26,1.03-2.29,2.29-2.29h19.93c3.04,0,5.7.97,7.78,2.83,1.61-1.81,4.13-2.83,7.09-2.83h20.31c1.26,0,2.29,1.03,2.29,2.29v7.96c0,.18.15.33.33.33h9.22c.18,0,.33-.15.33-.33v-7.96c0-1.26,1.03-2.29,2.29-2.29h1.62c.79,0,1.54.42,1.95,1.09l7.47,12.17c.75,1.23,1.44,2.41,2.08,3.57v-11.89c0-.18-.15-.33-.33-.33h-4.83c-1.26,0-2.29-1.03-2.29-2.29s1.03-2.32,2.29-2.32h26.49c1.26,0,2.29,1.03,2.29,2.29s-1.03,2.32-2.29,2.32h-4.86c-.18,0-.33.15-.33.33v20.03c0,1.26-1.03,2.29-2.29,2.29h-.57c-1.26,0-2.29-1.03-2.29-2.29v-20.03c0-.18-.15-.33-.33-.33h-5.15c-.18,0-.33.15-.33.33v20.02c0,1.26-1.03,2.29-2.29,2.29h-1.15c-.79,0-1.54-.43-1.95-1.11l-7.4-12.21c-1.01-1.66-1.87-3.15-2.62-4.53v15.55c0,1.26-1.03,2.29-2.29,2.29h-.57c-1.26,0-2.29-1.03-2.29-2.29v-9.24c0-.18-.15-.33-.33-.33h-9.22c-.18,0-.33.15-.33.33v9.25c0,1.25-1.02,2.28-2.27,2.29-1.45.01-3.84.03-5.77.03ZM326.33,377.32c-5.37,0-8.58,3.42-8.58,9.16s3.15,8.9,8.44,8.9c.63,0,1.45.01,2.27.03v-18.09c-.72,0-1.47,0-2.12,0ZM309.01,395.37c2.6,0,4.15-1.2,4.15-3.21,0-1.57-.64-2.67-3.99-3.96-.39-.14-.78-.29-1.15-.44-.25,3-1.17,5.58-2.7,7.61,1.63,0,3.03,0,3.69,0ZM262.34,377.31c-.18,0-.33.15-.33.33v17.37c0,.18.15.33.33.33h1.89c6.18,0,9.45-3.29,9.45-9.52.02-2.7-.7-4.79-2.13-6.23-1.51-1.52-3.8-2.29-6.82-2.29h-2.39ZM295.94,377.31c-5.06,0-6.85,4.94-6.85,9.16s2.14,8.79,6.84,8.79,6.87-4.54,6.87-9.04-2.14-8.91-6.85-8.91ZM279.33,388.09c-.18,0-.33.15-.33.33v6.5c0,.18.15.33.33.33h7.01c-1.41-1.96-2.27-4.42-2.51-7.16h-4.5ZM310.86,377.31c-2.68,0-3.64,1.44-3.64,2.67,0,1.47.64,2.42,4.25,3.82.4.16.79.32,1.15.48.37-2.68,1.4-5.07,2.99-6.96h-4.75ZM279.33,377.31c-.18,0-.33.15-.33.33v5.46c0,.18.15.33.33.33h4.69c.41-2.36,1.28-4.43,2.58-6.12h-7.27Z"/>
    <path class="cls-3" d="M264.74,376.33h-2.39c-.73,0-1.31.59-1.31,1.31v17.37c0,.73.59,1.31,1.31,1.31h1.89c6.76,0,10.42-3.77,10.42-10.49.04-5.87-3.24-9.5-9.92-9.5ZM264.24,394.36h-1.25v-16.08h1.75c2.75,0,4.81.67,6.13,2,1.24,1.24,1.86,3.1,1.84,5.53,0,5.68-2.85,8.55-8.47,8.55Z"/>
    <path class="cls-3" d="M318.02,376.33h-7.15c-3.34,0-4.61,1.97-4.61,3.64,0,2.29,1.49,3.42,4.87,4.73.87.34,1.65.69,2.34,1.08.2-4.04,1.85-7.33,4.55-9.46ZM311.87,382.9s-.03-.01-.05-.02c-3.62-1.4-3.62-2.13-3.62-2.91,0-1.06.99-1.69,2.66-1.69h2.84c-.85,1.38-1.47,2.93-1.83,4.61Z"/>
    <path class="cls-3" d="M309.52,387.29c-.88-.31-1.69-.66-2.41-1.05-.04,4.58-1.6,7.97-4.03,10.09,2.49,0,4.97.01,5.93.01,3.23,0,5.12-1.71,5.12-4.19,0-2.29-1.31-3.6-4.62-4.88ZM309.01,394.4c-.4,0-1.07,0-1.89,0,.86-1.55,1.44-3.31,1.73-5.26,3.33,1.29,3.33,2.22,3.33,3.04,0,1.94-1.98,2.23-3.17,2.23Z"/>
    <path class="cls-3" d="M295.94,376.33c-5.23,0-7.83,4.76-7.83,10.14s2.83,9.76,7.81,9.76,7.85-4.46,7.85-10.02c0-4.87-2.56-9.89-7.83-9.89ZM295.92,394.28c-4.02,0-5.86-4.05-5.86-7.81s1.54-8.18,5.88-8.18c4.04,0,5.88,4.11,5.88,7.93s-1.54,8.06-5.89,8.06Z"/>
    <path class="cls-3" d="M279.33,384.41h5.54c.42-3.43,1.85-6.21,3.98-8.08h-9.51c-.72,0-1.31.59-1.31,1.31v5.46c0,.73.59,1.31,1.31,1.31ZM279.98,378.29h4.82c-.7,1.26-1.23,2.65-1.57,4.17h-3.25v-4.17Z"/>
    <path class="cls-3" d="M279.33,387.11c-.72,0-1.31.59-1.31,1.31v6.5c0,.73.59,1.31,1.31,1.31h9.16c-2.25-2.09-3.62-5.26-3.75-9.12h-5.42ZM279.98,394.28v-5.21h2.98c.26,1.9.81,3.66,1.63,5.21h-4.61Z"/>
    <path class="cls-3" d="M316.77,386.47c0,6.02,3.45,9.88,9.41,9.88.88,0,2.14.02,3.24.05v-20.07c-.97,0-2.14,0-3.1,0-5.74,0-9.56,3.68-9.56,10.14ZM327.47,394.41c-.5,0-.93-.01-1.29-.01-4.74,0-7.46-2.89-7.46-7.92s2.77-8.18,7.6-8.18c.36,0,.75,0,1.14,0v16.11Z"/>
    <path id="Dreieck_Klein_" data-name="Dreieck (Klein)" class="cls-3" d="M293.82,383.39v5.87c0,.58.67.91,1.13.56l3.87-2.94c.37-.28.37-.84,0-1.12l-3.87-2.94c-.46-.35-1.13-.02-1.13.56Z"/>
    <path id="Dreieck_Groß_" data-name="Dreieck (Groß)" class="cls-3" d="M194,378.16v53.46c0,5.31,6.22,8.33,10.55,5.12l36.09-26.73c3.47-2.57,3.47-7.67,0-10.24l-36.09-26.73c-4.33-3.21-10.55-.19-10.55,5.12Z"/>
    <path id="VK" class="cls-2" d="M215.08,392.59l-1.49,11.65h.1c.7-.75,1.38-1.46,2.03-2.1l7.76-7.33,3.5.46-9.14,8.24,6.88,13.71-3.34-.44-5.79-11.69-2.39,2.13-1.18,8.59-3.07.66-11.69-20.05,3.01-.65,5.65,9.9c1.41,2.45,2.65,4.69,3.71,6.87l1.92-14.55.56-4.77,2.98-.64M215.08,391.43c-.08,0-.16,0-.24.03l-2.98.64c-.48.1-.85.5-.91,1l-.56,4.77-1.43,10.87c-.62-1.14-1.29-2.33-2.04-3.63l-5.65-9.9c-.21-.37-.6-.59-1.01-.58-.08,0-.16,0-.24.03l-3.01.65c-.36.08-.67.33-.82.67-.15.34-.13.73.06,1.05l11.69,20.05c.21.36.6.58,1,.58.08,0,.16,0,.24-.03l3.07-.66c.48-.1.84-.49.9-.97l1.12-8.17.94-.83,5.12,10.33c.17.35.5.58.89.63l3.34.44c.05,0,.1.01.15,0,.37,0,.72-.18.94-.49.25-.35.28-.81.09-1.19l-6.48-12.92,8.48-7.65c.34-.3.46-.77.33-1.2-.13-.43-.51-.75-.96-.8l-3.5-.46c-.05,0-.1-.01-.15,0-.29,0-.58.11-.79.32l-7.52,7.1,1.06-8.33c.05-.37-.09-.75-.37-1-.22-.2-.5-.31-.79-.31h0ZM215.09,393.75h0s0,0,0,0h0Z"/>
    <g id="Vincent_Knörnschild" data-name="Vincent Knörnschild">
      <path class="cls-1" d="M194.17,446.53c0-.16,0-.31-.03-.44-.02-.13-.04-.25-.06-.36-.02-.11-.04-.22-.06-.33-.02-.11-.03-.23-.03-.36,0-.17.02-.34.05-.5s.08-.3.15-.43.17-.23.29-.31c.12-.08.28-.12.47-.12.27,0,.49.06.66.17s.29.27.38.45.15.39.18.62c.03.23.05.46.05.68,0,.2-.02.51-.06.92-.04.42-.08.94-.12,1.56s-.08,1.34-.12,2.17c-.04.82-.06,1.73-.06,2.72,0,.31.01.67.04,1.05.03.39.08.75.16,1.1.08.35.2.66.35.92s.35.43.61.51c.63-.59,1.21-1.22,1.73-1.91s1-1.38,1.42-2.07.81-1.38,1.15-2.05c.34-.67.65-1.28.92-1.84.26-.54.49-1.03.7-1.47s.4-.85.56-1.23.32-.73.44-1.05c.13-.32.24-.64.34-.94.03-.07.07-.17.13-.3s.16-.24.3-.34c.18-.13.46-.2.85-.2.24,0,.41.05.52.16.11.11.16.25.16.45,0,.07,0,.15,0,.24,0,.09-.02.18-.06.25-.16.42-.37.89-.63,1.43s-.53,1.11-.81,1.71c-.27.57-.54,1.15-.83,1.74-.29.59-.58,1.17-.88,1.74-.3.57-.6,1.12-.91,1.64-.3.52-.6,1-.9,1.44-.26.39-.62.89-1.07,1.5-.45.61-1.05,1.35-1.8,2.2-.12.13-.23.25-.35.37-.12.12-.24.23-.37.32-.13.1-.27.17-.42.23-.15.06-.32.09-.49.09-.27,0-.51-.06-.72-.17-.2-.12-.39-.26-.55-.44-.16-.17-.3-.37-.42-.58-.12-.21-.22-.42-.32-.62-.12-.25-.23-.52-.31-.81-.09-.29-.16-.6-.21-.92-.06-.32-.1-.64-.12-.97-.03-.33-.04-.66-.04-.98,0-.04,0-.16,0-.36,0-.2,0-.46.02-.78,0-.32.01-.68.02-1.08,0-.4.01-.83.02-1.27,0-.44.01-.89.02-1.35,0-.46,0-.9,0-1.33v-.49Z"/>
      <path class="cls-1" d="M205.76,456.27c.1-.4.23-.86.37-1.39s.3-1.08.46-1.67c.16-.59.32-1.19.49-1.81.16-.62.32-1.21.46-1.8,0-.03.03-.07.07-.14s.1-.13.18-.2c.07-.07.17-.12.29-.17.12-.05.25-.07.41-.07.12,0,.23.01.34.04.11.02.21.06.29.11.08.05.15.11.2.19s.08.17.08.27v.07s0,.05-.01.07l-.29,1.09c-.32,1.22-.65,2.44-.98,3.66s-.65,2.45-.97,3.68c-.01.04-.03.09-.06.15s-.06.12-.11.18c-.05.06-.11.11-.17.15-.07.04-.15.06-.25.06-.18,0-.33-.04-.47-.11-.14-.07-.25-.16-.35-.27-.1-.11-.17-.23-.22-.36-.05-.13-.07-.25-.07-.37v-.09s0-.06.02-.09l.3-1.2ZM208.44,445.64c.03-.14.1-.32.19-.52.09-.21.25-.39.47-.55.11-.06.24-.12.4-.17.16-.05.27-.08.34-.08s.14.02.21.07c.07.05.14.1.19.15.07.07.13.14.2.23.17.01.28.08.33.18.05.11.08.24.08.39,0,.11-.01.21-.03.3-.02.09-.04.16-.05.22-.04.14-.12.28-.24.4-.12.12-.25.22-.4.31s-.31.15-.47.2c-.16.05-.31.07-.43.07-.16,0-.28-.03-.36-.08-.09-.05-.19-.17-.32-.35-.07-.1-.12-.18-.13-.24-.01-.06-.02-.11-.02-.15,0-.08,0-.14.02-.2.01-.06.02-.11.04-.17Z"/>
      <path class="cls-1" d="M218.39,449.72c-.24,0-.5.06-.77.17-.27.11-.56.27-.85.46-.29.19-.59.41-.9.65-.31.24-.6.49-.9.75-.15.13-.29.25-.43.35-.14.11-.27.19-.41.24-.1.16-.2.36-.3.62-.11.26-.21.54-.31.84-.1.3-.2.62-.29.93-.09.32-.17.61-.23.89-.03.14-.06.28-.08.42s-.04.28-.07.44c-.03.15-.06.32-.1.5-.04.18-.08.38-.14.6-.03.13-.09.23-.16.31-.07.08-.15.14-.24.18s-.16.07-.24.08c-.07.01-.13.02-.17.02-.26,0-.47-.06-.64-.18-.16-.12-.25-.36-.25-.72,0-.1,0-.2.01-.3s.03-.22.06-.35c.15-.65.3-1.23.44-1.75.14-.52.28-1,.43-1.45.14-.44.29-.86.44-1.26s.3-.79.45-1.19c.15-.4.31-.81.48-1.24.17-.43.35-.9.54-1.42.04-.12.15-.21.32-.29.17-.08.36-.12.56-.12.26,0,.47.06.64.17.17.12.25.28.25.5,0,.02,0,.06-.02.11s-.03.11-.06.17l-.45,1.07c.29-.23.59-.45.9-.68s.63-.43.96-.61.66-.33.99-.44c.33-.11.66-.17.98-.17.66,0,1.17.18,1.54.53.37.35.55.9.55,1.64,0,.42-.07.91-.22,1.45-.15.54-.33,1.12-.55,1.74-.22.62-.46,1.27-.72,1.95-.26.68-.49,1.37-.71,2.08-.06.19-.12.35-.19.48-.07.13-.14.23-.23.31-.09.08-.19.14-.31.17s-.27.05-.44.05c-.27,0-.45-.05-.55-.15-.1-.1-.15-.26-.15-.48,0-.19.03-.43.09-.7.06-.28.14-.58.25-.91.11-.33.23-.69.37-1.06s.29-.76.46-1.15c.13-.31.26-.63.39-.94.13-.31.24-.62.34-.91.1-.29.18-.57.24-.84.06-.27.09-.51.09-.74,0-.21-.05-.4-.14-.56-.09-.16-.27-.24-.52-.24Z"/>
      <path class="cls-1" d="M222.74,454.13c.13-.53.32-1.08.58-1.65.26-.57.57-1.13.93-1.67s.77-1.03,1.24-1.49c.46-.46.97-.83,1.51-1.11.18-.1.37-.17.58-.22.21-.05.43-.07.65-.07s.44.02.63.06c.19.04.36.11.5.21s.25.22.33.37c.08.15.12.34.12.55,0,.16-.02.33-.07.5-.05.17-.12.32-.22.45-.1.13-.22.24-.36.32-.14.08-.31.12-.5.12-.15,0-.29-.03-.42-.08-.13-.05-.25-.12-.36-.18-.06-.04-.12-.08-.18-.11-.05-.03-.12-.06-.19-.09-.27.12-.53.29-.78.49s-.47.43-.68.67c-.21.25-.4.51-.58.79-.17.28-.33.56-.47.84s-.26.56-.36.83c-.1.27-.18.52-.24.74-.05.16-.09.35-.13.56-.04.21-.06.41-.06.61,0,.14.01.27.04.39.02.12.07.23.13.33s.14.17.25.23c.1.05.23.08.38.08.24,0,.48-.03.71-.09s.47-.14.69-.24c.23-.1.45-.21.66-.33.22-.13.43-.25.63-.38.13-.08.26-.17.39-.26.13-.09.25-.17.37-.24.12-.07.22-.12.32-.17.1-.04.19-.07.26-.07.1,0,.2.03.29.08s.13.14.13.26c0,.09-.02.19-.06.3-.1.27-.23.51-.39.72-.16.21-.35.4-.55.57-.2.17-.42.32-.65.45-.23.13-.46.25-.68.36-.42.23-.85.4-1.29.51-.43.11-.8.17-1.09.17-.1,0-.21-.01-.34-.03s-.24-.05-.34-.09c-.55-.24-.96-.56-1.21-.96-.25-.4-.38-.88-.38-1.44,0-.24.02-.49.06-.75.04-.26.09-.54.17-.83Z"/>
      <path class="cls-1" d="M231.49,454.18c0-.29.08-.54.24-.75.16-.2.37-.34.63-.41.07-.15.19-.35.35-.61.16-.26.35-.54.58-.84.23-.3.5-.6.8-.91.3-.3.63-.58.99-.83s.75-.45,1.16-.61c.41-.16.85-.24,1.32-.24.4,0,.74.05,1.04.14.29.1.54.23.73.4.19.17.33.37.43.61s.14.49.14.76c0,.23-.03.46-.09.67-.1.38-.27.72-.53,1.01s-.57.54-.92.75-.74.4-1.15.54c-.41.14-.83.26-1.24.36-.41.1-.81.17-1.2.22s-.71.09-1,.12c-.06.12-.11.28-.16.47-.05.19-.07.37-.07.55,0,.4.16.7.47.92.31.22.75.33,1.3.33.32,0,.63-.04.92-.11.29-.07.57-.16.84-.28.26-.11.51-.24.74-.37s.44-.27.64-.4c.25-.16.48-.3.7-.42.22-.11.42-.17.59-.17s.28.04.33.13c.05.09.07.18.07.27,0,.05,0,.11,0,.16,0,.05,0,.09-.02.13-.03.18-.1.36-.21.53-.1.18-.23.33-.39.46-.71.56-1.44.96-2.19,1.2-.75.24-1.55.36-2.4.36-.16,0-.36-.01-.58-.03s-.45-.06-.69-.12-.48-.15-.71-.27-.44-.27-.62-.46-.33-.43-.44-.71-.17-.62-.17-1.02c0-.32.04-.68.13-1.08-.09-.01-.17-.06-.25-.14-.08-.08-.12-.19-.12-.34ZM237.92,451.34s.02-.06.02-.09v-.09c0-.18-.07-.32-.2-.42-.14-.09-.3-.14-.49-.14-.3,0-.6.08-.89.24-.29.16-.57.35-.82.59-.26.24-.48.49-.68.76-.2.27-.35.52-.46.73.49-.04.94-.11,1.35-.2.41-.09.77-.21,1.07-.35.3-.14.55-.3.74-.47s.31-.36.36-.56Z"/>
      <path class="cls-1" d="M249.31,449.72c-.24,0-.5.06-.77.17-.27.11-.56.27-.85.46-.29.19-.59.41-.9.65-.31.24-.6.49-.9.75-.15.13-.29.25-.43.35-.14.11-.27.19-.41.24-.1.16-.2.36-.3.62-.11.26-.21.54-.31.84-.1.3-.2.62-.29.93-.09.32-.17.61-.23.89-.03.14-.06.28-.08.42s-.04.28-.07.44c-.03.15-.06.32-.1.5-.04.18-.08.38-.14.6-.03.13-.09.23-.16.31-.07.08-.15.14-.24.18s-.16.07-.24.08c-.07.01-.13.02-.17.02-.26,0-.47-.06-.64-.18-.16-.12-.25-.36-.25-.72,0-.1,0-.2.01-.3s.03-.22.06-.35c.15-.65.3-1.23.44-1.75.14-.52.28-1,.43-1.45.14-.44.29-.86.44-1.26s.3-.79.45-1.19c.15-.4.31-.81.48-1.24.17-.43.35-.9.54-1.42.04-.12.15-.21.32-.29.17-.08.36-.12.56-.12.26,0,.47.06.64.17.17.12.25.28.25.5,0,.02,0,.06-.02.11s-.03.11-.06.17l-.45,1.07c.29-.23.59-.45.9-.68s.63-.43.96-.61.66-.33.99-.44c.33-.11.66-.17.98-.17.66,0,1.17.18,1.54.53.37.35.55.9.55,1.64,0,.42-.07.91-.22,1.45-.15.54-.33,1.12-.55,1.74-.22.62-.46,1.27-.72,1.95-.26.68-.49,1.37-.71,2.08-.06.19-.12.35-.19.48-.07.13-.14.23-.23.31-.09.08-.19.14-.31.17s-.27.05-.44.05c-.27,0-.45-.05-.55-.15-.1-.1-.15-.26-.15-.48,0-.19.03-.43.09-.7.06-.28.14-.58.25-.91.11-.33.23-.69.37-1.06s.29-.76.46-1.15c.13-.31.26-.63.39-.94.13-.31.24-.62.34-.91.1-.29.18-.57.24-.84.06-.27.09-.51.09-.74,0-.21-.05-.4-.14-.56-.09-.16-.27-.24-.52-.24Z"/>
      <path class="cls-1" d="M255.1,454.95c0-.57.06-1.17.19-1.79.13-.62.27-1.21.41-1.78-.18,0-.36-.03-.54-.08-.19-.05-.35-.11-.5-.2-.15-.08-.27-.18-.37-.3-.1-.12-.14-.26-.14-.42,0-.06.01-.14.04-.24.03-.1.07-.19.12-.28s.12-.17.2-.24.18-.1.28-.1h1.38c.13,0,.22-.06.27-.17.05-.11.09-.22.11-.33.09-.4.17-.74.25-1.03s.15-.54.2-.74c.05-.2.1-.37.13-.49.03-.13.05-.23.05-.3,0-.09,0-.17-.01-.26s-.01-.2-.01-.34v-.1c0-.05,0-.13.02-.22.01-.09.04-.22.1-.38.04-.13.12-.25.23-.37s.27-.17.48-.17c.18,0,.34.04.47.11s.24.17.32.3c.08.12.14.26.18.42.04.16.06.31.06.47,0,.17-.02.33-.05.46l-.75,2.87c.37-.06.7-.12.99-.17.29-.05.58-.11.86-.16.32-.06.59-.12.82-.17s.43-.1.59-.14c.16-.04.3-.07.42-.09.11-.02.21-.04.28-.04.11,0,.22,0,.33.03.11.02.21.05.3.09.09.04.16.1.21.17.05.08.08.17.08.3,0,.16-.03.31-.1.44-.07.13-.15.24-.25.33-.1.09-.22.17-.35.23-.13.06-.26.1-.39.13-.11.02-.25.05-.43.09-.18.04-.37.09-.58.13-.21.05-.43.1-.65.15-.23.05-.44.11-.66.16-.32.08-.58.15-.81.21s-.41.1-.57.12c-.16.03-.29.05-.39.06-.1.01-.18.02-.24.02-.13.39-.24.77-.34,1.15-.1.38-.18.73-.24,1.05-.07.33-.11.62-.14.87s-.05.46-.05.6c0,.18.02.36.05.53.03.17.09.31.17.44.08.12.19.22.33.29s.32.11.53.11c.36,0,.72-.1,1.07-.3.35-.2.68-.45,1-.75.32-.3.62-.64.9-1,.28-.36.55-.71.79-1.04.08-.12.19-.18.32-.18.04,0,.09,0,.15.02.06.01.11.04.17.07.06.03.1.08.14.13.04.05.06.12.06.2,0,.05,0,.1-.01.12-.11.42-.28.85-.51,1.28s-.46.86-.7,1.29c-.08.15-.19.3-.32.44-.13.14-.28.28-.44.42-.16.13-.32.26-.49.38s-.33.23-.48.32c-.26.16-.54.28-.85.34-.31.06-.61.09-.89.09-.45,0-.84-.08-1.19-.24-.35-.16-.64-.38-.87-.66-.24-.28-.42-.6-.54-.97-.12-.37-.18-.77-.18-1.19Z"/>
      <path class="cls-1" d="M279.31,443.97c.18,0,.32.02.44.06.11.04.2.1.26.18.06.08.1.19.13.32.02.13.04.28.04.46,0,.16,0,.31-.02.45s-.03.28-.05.43c-.02.14-.05.29-.09.45-.03.16-.07.33-.11.51-.13.55-.29,1.09-.47,1.64-.18.54-.36,1.1-.54,1.68l-.38,1.25c.39-.1.76-.25,1.1-.43.35-.18.68-.4,1.01-.65.33-.25.65-.52.96-.83.31-.3.64-.62.96-.96.51-.53,1.02-1.07,1.53-1.64.51-.56,1-1.14,1.47-1.73.08-.1.15-.23.24-.41.08-.18.18-.36.29-.53.11-.18.24-.33.39-.46.15-.13.33-.2.54-.2.14,0,.26.05.36.13.11.09.19.2.26.33.07.13.12.28.15.44.03.16.05.31.05.45,0,.12-.01.22-.03.3-.38.57-.79,1.13-1.23,1.66-.44.53-.89,1.04-1.37,1.53-.48.49-.96.97-1.47,1.44-.5.47-1.01.93-1.52,1.38.7.24,1.35.55,1.93.93.59.38,1.1.85,1.55,1.39.45.54.83,1.18,1.13,1.89.31.72.53,1.53.68,2.43-.04.12-.1.24-.18.35-.07.11-.16.21-.27.3-.1.09-.22.16-.35.21-.13.05-.27.08-.42.08-.24,0-.43-.05-.56-.15s-.24-.22-.31-.37c-.07-.15-.12-.32-.15-.5-.03-.18-.06-.36-.09-.52l-.04-.26c-.08-.46-.21-.89-.42-1.29-.2-.4-.44-.76-.71-1.07s-.56-.58-.88-.81c-.32-.22-.63-.39-.94-.51l-.3-.11c-.12-.05-.26-.1-.41-.15-.15-.05-.31-.11-.47-.15-.16-.05-.32-.09-.47-.12-.15-.03-.28-.05-.4-.05-.07,0-.2.04-.4.12-.2.08-.42.17-.65.26-.24.1-.47.19-.69.28-.23.09-.39.15-.5.17l-.26,1.05c-.07.31-.13.6-.16.89-.03.28-.05.55-.07.81,0,.21-.02.44-.03.69s-.05.48-.11.69c-.06.21-.17.39-.31.53-.15.14-.36.22-.65.22-.18,0-.32-.05-.43-.15-.11-.1-.19-.23-.24-.39-.06-.15-.09-.32-.1-.49-.01-.17-.02-.33-.02-.48,0-.18.01-.38.04-.6.02-.22.05-.45.09-.68.04-.23.08-.46.13-.69.05-.23.1-.44.14-.63l2.39-9.63c.12-.49.44-.74.96-.74Z"/>
      <path class="cls-1" d="M296.74,449.72c-.24,0-.5.06-.77.17-.27.11-.56.27-.85.46-.29.19-.59.41-.9.65-.31.24-.6.49-.9.75-.15.13-.29.25-.43.35-.14.11-.27.19-.41.24-.1.16-.2.36-.3.62-.11.26-.21.54-.31.84-.1.3-.2.62-.29.93-.09.32-.17.61-.23.89-.03.14-.06.28-.08.42s-.04.28-.07.44c-.03.15-.06.32-.1.5-.04.18-.08.38-.14.6-.03.13-.09.23-.16.31-.07.08-.15.14-.24.18s-.16.07-.24.08c-.07.01-.13.02-.17.02-.26,0-.47-.06-.64-.18-.16-.12-.25-.36-.25-.72,0-.1,0-.2.01-.3s.03-.22.06-.35c.15-.65.3-1.23.44-1.75.14-.52.28-1,.43-1.45.14-.44.29-.86.44-1.26s.3-.79.45-1.19c.15-.4.31-.81.48-1.24.17-.43.35-.9.54-1.42.04-.12.15-.21.32-.29.17-.08.36-.12.56-.12.26,0,.47.06.64.17.17.12.25.28.25.5,0,.02,0,.06-.02.11s-.03.11-.06.17l-.45,1.07c.29-.23.59-.45.9-.68s.63-.43.96-.61.66-.33.99-.44c.33-.11.66-.17.98-.17.66,0,1.17.18,1.54.53.37.35.55.9.55,1.64,0,.42-.07.91-.22,1.45-.15.54-.33,1.12-.55,1.74-.22.62-.46,1.27-.72,1.95-.26.68-.49,1.37-.71,2.08-.06.19-.12.35-.19.48-.07.13-.14.23-.23.31-.09.08-.19.14-.31.17s-.27.05-.44.05c-.27,0-.45-.05-.55-.15-.1-.1-.15-.26-.15-.48,0-.19.03-.43.09-.7.06-.28.14-.58.25-.91.11-.33.23-.69.37-1.06s.29-.76.46-1.15c.13-.31.26-.63.39-.94.13-.31.24-.62.34-.91.1-.29.18-.57.24-.84.06-.27.09-.51.09-.74,0-.21-.05-.4-.14-.56-.09-.16-.27-.24-.52-.24Z"/>
      <path class="cls-1" d="M301.17,454.21c.1-.42.26-.86.48-1.33.22-.47.5-.94.85-1.42.35-.48.77-.95,1.26-1.41s1.06-.89,1.7-1.28c.1-.06.26-.13.47-.2.21-.07.43-.11.66-.13.27-.29.63-.43,1.08-.43.53,0,.98.14,1.35.41.37.27.67.64.91,1.1.07.15.15.3.21.44.07.14.12.3.16.46.05.16.08.33.11.52.03.18.04.39.04.63,0,.54-.09,1.09-.26,1.65-.17.56-.41,1.11-.73,1.64-.32.53-.7,1.04-1.14,1.53-.45.49-.95.93-1.49,1.32-.37.27-.78.47-1.23.62-.45.15-.95.22-1.5.22s-.98-.07-1.37-.21c-.39-.14-.71-.34-.96-.6-.26-.26-.45-.57-.57-.93-.13-.36-.19-.77-.19-1.21s.06-.89.19-1.39ZM302.87,454.35c-.04.16-.07.31-.09.45-.02.14-.03.28-.03.41,0,.23.03.44.09.63s.15.36.28.5.29.25.49.33c.19.08.43.12.71.12.52,0,1-.13,1.45-.4.45-.26.85-.59,1.2-.99.35-.4.64-.82.88-1.28.24-.45.4-.87.5-1.26.06-.24.11-.47.16-.68.04-.21.07-.41.07-.59s-.03-.34-.1-.5c-.07-.15-.15-.33-.25-.52-.06-.12-.12-.24-.18-.36-.06-.13-.12-.25-.16-.37-.05.1-.11.18-.17.25s-.15.14-.28.2c-.12.06-.29.11-.5.16-.21.05-.49.09-.83.12-.23.08-.45.19-.69.35-.23.16-.46.34-.68.55s-.43.44-.64.69-.38.5-.54.75-.3.51-.42.75c-.12.25-.2.47-.25.68ZM304.53,445.67c.03-.15.09-.33.18-.52.09-.2.23-.37.43-.52.14-.08.29-.14.46-.2.17-.06.28-.09.33-.09.12,0,.23.05.33.14.1.1.19.2.27.31.14.02.24.09.29.2s.07.23.07.37c0,.1,0,.19-.02.28-.01.09-.03.16-.04.22-.04.14-.12.28-.24.4-.12.12-.25.23-.39.31-.15.09-.3.15-.45.2-.15.05-.28.07-.39.07h-.25c-.09,0-.18-.05-.27-.14-.09-.1-.17-.19-.23-.28s-.1-.16-.11-.22c-.01-.06-.02-.11-.02-.15,0-.07,0-.13.02-.2.01-.06.03-.12.04-.17ZM308.77,445.67c.03-.15.09-.33.18-.52.08-.2.23-.37.42-.52.14-.08.29-.14.46-.2.17-.06.28-.09.33-.09.12,0,.23.05.33.14.1.1.19.2.27.31.14.02.24.09.29.2s.07.23.07.37c0,.1,0,.19-.02.28-.01.09-.03.16-.04.22-.04.14-.12.28-.24.4-.12.12-.25.23-.4.31-.15.09-.3.15-.45.2-.15.05-.28.07-.39.07h-.25c-.09,0-.18-.05-.27-.14s-.17-.19-.23-.28-.1-.16-.11-.22c-.01-.06-.02-.11-.02-.15,0-.07,0-.13.02-.2.01-.06.03-.12.04-.17Z"/>
      <path class="cls-1" d="M312.39,457.09c.09-.48.19-1.01.31-1.58.12-.57.24-1.16.36-1.74.12-.59.24-1.17.36-1.73.12-.57.22-1.09.3-1.56,0-.07-.01-.13-.01-.18v-.17c0-.21.01-.42.04-.64.03-.21.06-.41.11-.58.07-.26.16-.44.25-.53.09-.09.24-.14.45-.14s.36.04.48.12c.12.08.21.18.28.31s.11.28.13.45c.02.17.03.34.03.52,0,.1,0,.2-.01.32,0,.12-.01.21-.01.28.19-.2.39-.4.61-.61.22-.21.44-.4.69-.56.24-.17.5-.31.77-.42.27-.11.55-.16.85-.16.12,0,.23.01.34.03.11.02.23.05.34.08.14.03.28.08.43.14.15.06.29.14.43.24.23.17.42.39.57.64.15.26.23.52.23.78,0,.1-.02.21-.06.33s-.1.23-.17.33c-.07.1-.16.18-.25.25-.1.07-.2.1-.32.1s-.26-.03-.43-.09c-.17-.06-.31-.14-.42-.23-.05-.04-.1-.1-.15-.17-.05-.07-.1-.15-.14-.23-.05-.07-.09-.14-.12-.21-.04-.07-.07-.11-.09-.13-.03,0-.07-.01-.11-.02s-.08,0-.11,0c-.35,0-.68.09-1,.27-.32.18-.61.4-.88.65-.27.26-.53.53-.75.82-.23.29-.43.55-.6.79-.14.55-.29,1.14-.46,1.77-.17.63-.33,1.28-.5,1.97v.26c0,.21,0,.41-.02.63-.01.21-.06.4-.12.56-.07.1-.18.19-.32.26-.14.07-.3.11-.49.11-.29,0-.5-.09-.65-.28-.14-.19-.22-.41-.22-.66,0-.12.02-.24.05-.36Z"/>
      <path class="cls-1" d="M328.42,449.72c-.24,0-.5.06-.77.17-.27.11-.56.27-.85.46-.29.19-.59.41-.9.65-.31.24-.6.49-.9.75-.15.13-.29.25-.43.35-.14.11-.27.19-.41.24-.1.16-.2.36-.3.62-.11.26-.21.54-.31.84-.1.3-.2.62-.29.93-.09.32-.17.61-.23.89-.03.14-.06.28-.08.42s-.04.28-.07.44c-.03.15-.06.32-.1.5-.04.18-.08.38-.14.6-.03.13-.09.23-.16.31-.07.08-.15.14-.24.18s-.16.07-.24.08c-.07.01-.13.02-.17.02-.26,0-.47-.06-.64-.18-.16-.12-.25-.36-.25-.72,0-.1,0-.2.01-.3s.03-.22.06-.35c.15-.65.3-1.23.44-1.75.14-.52.28-1,.43-1.45.14-.44.29-.86.44-1.26s.3-.79.45-1.19c.15-.4.31-.81.48-1.24.17-.43.35-.9.54-1.42.04-.12.15-.21.32-.29.17-.08.36-.12.56-.12.26,0,.47.06.64.17.17.12.25.28.25.5,0,.02,0,.06-.02.11s-.03.11-.06.17l-.45,1.07c.29-.23.59-.45.9-.68s.63-.43.96-.61.66-.33.99-.44c.33-.11.66-.17.98-.17.66,0,1.17.18,1.54.53.37.35.55.9.55,1.64,0,.42-.07.91-.22,1.45-.15.54-.33,1.12-.55,1.74-.22.62-.46,1.27-.72,1.95-.26.68-.49,1.37-.71,2.08-.06.19-.12.35-.19.48-.07.13-.14.23-.23.31-.09.08-.19.14-.31.17s-.27.05-.44.05c-.27,0-.45-.05-.55-.15-.1-.1-.15-.26-.15-.48,0-.19.03-.43.09-.7.06-.28.14-.58.25-.91.11-.33.23-.69.37-1.06s.29-.76.46-1.15c.13-.31.26-.63.39-.94.13-.31.24-.62.34-.91.1-.29.18-.57.24-.84.06-.27.09-.51.09-.74,0-.21-.05-.4-.14-.56-.09-.16-.27-.24-.52-.24Z"/>
      <path class="cls-1" d="M332.98,456.33c.05,0,.1,0,.15.02.05.01.09.03.15.05.05.02.12.03.18.05s.16.02.27.02c.32,0,.68-.03,1.07-.1.39-.07.76-.16,1.11-.27.35-.11.65-.23.9-.37.25-.14.39-.29.43-.44.02-.08.03-.15.03-.22,0-.12-.06-.23-.17-.33s-.25-.21-.43-.3-.36-.18-.55-.27c-.2-.08-.38-.16-.55-.23l-.35-.14c-.18-.07-.35-.15-.52-.25s-.33-.21-.48-.34c-.15-.13-.28-.28-.39-.46-.11-.17-.2-.37-.25-.6-.03-.1-.05-.19-.07-.29s-.03-.2-.03-.31c0-.18.06-.38.18-.61.12-.23.28-.46.48-.68s.43-.44.69-.65.53-.38.81-.51c.2-.14.4-.27.59-.39s.39-.22.58-.3c.2-.08.39-.15.6-.2.2-.05.41-.07.64-.07.2,0,.43.01.67.03.24.02.46.07.66.14s.36.19.5.33c.13.15.2.34.2.59,0,.08-.01.17-.03.3-.02.12-.05.25-.1.37-.05.12-.11.23-.17.32-.07.09-.15.13-.25.13-.16,0-.29-.03-.39-.09-.1-.06-.19-.13-.28-.2-.08-.07-.17-.14-.26-.2s-.2-.09-.33-.09c-.16,0-.34.03-.55.09-.21.06-.42.14-.64.24s-.43.21-.64.34c-.21.13-.4.26-.56.4-.17.14-.3.27-.41.41-.1.13-.15.25-.15.36,0,.12.04.21.11.29.08.08.17.14.29.2.15.08.32.16.52.25.19.08.39.16.59.25.2.08.39.16.58.25.19.08.35.16.49.23.18.1.35.19.5.28.15.09.27.19.37.3.1.11.18.23.24.37.05.14.08.3.08.48,0,.09,0,.18-.02.27-.01.09-.03.19-.06.31-.02.1-.06.22-.11.36-.05.14-.11.27-.16.41-.06.13-.12.25-.18.36-.06.11-.11.18-.15.21-.27.25-.58.48-.94.69-.36.22-.74.4-1.13.56s-.79.29-1.18.39c-.39.1-.75.14-1.08.14-.16,0-.35-.03-.54-.1s-.38-.15-.55-.26-.31-.23-.42-.36c-.11-.14-.17-.27-.17-.41,0-.07.02-.14.06-.23.04-.09.09-.16.15-.24.06-.07.13-.13.2-.18.07-.05.14-.08.2-.08Z"/>
      <path class="cls-1" d="M341.46,454.13c.13-.53.32-1.08.58-1.65.26-.57.57-1.13.93-1.67s.77-1.03,1.24-1.49c.46-.46.97-.83,1.51-1.11.18-.1.37-.17.58-.22.21-.05.43-.07.65-.07s.44.02.63.06c.19.04.36.11.5.21s.25.22.33.37c.08.15.12.34.12.55,0,.16-.02.33-.07.5-.05.17-.12.32-.22.45-.1.13-.22.24-.36.32-.14.08-.31.12-.5.12-.15,0-.29-.03-.42-.08-.13-.05-.25-.12-.36-.18-.06-.04-.12-.08-.18-.11-.05-.03-.12-.06-.19-.09-.27.12-.53.29-.78.49s-.47.43-.68.67c-.21.25-.4.51-.58.79-.17.28-.33.56-.47.84s-.26.56-.36.83c-.1.27-.18.52-.24.74-.05.16-.09.35-.13.56-.04.21-.06.41-.06.61,0,.14.01.27.04.39.02.12.07.23.13.33s.14.17.25.23c.1.05.23.08.38.08.24,0,.48-.03.71-.09s.47-.14.69-.24c.23-.1.45-.21.66-.33.22-.13.43-.25.63-.38.13-.08.26-.17.39-.26.13-.09.25-.17.37-.24.12-.07.22-.12.32-.17.1-.04.19-.07.26-.07.1,0,.2.03.29.08s.13.14.13.26c0,.09-.02.19-.06.3-.1.27-.23.51-.39.72-.16.21-.35.4-.55.57-.2.17-.42.32-.65.45-.23.13-.46.25-.68.36-.42.23-.85.4-1.29.51-.43.11-.8.17-1.09.17-.1,0-.21-.01-.34-.03s-.24-.05-.34-.09c-.55-.24-.96-.56-1.21-.96-.25-.4-.38-.88-.38-1.44,0-.24.02-.49.06-.75.04-.26.09-.54.17-.83Z"/>
      <path class="cls-1" d="M357.44,458.73c-.42,0-.71-.09-.87-.28-.16-.18-.24-.44-.24-.76,0-.17.02-.36.05-.55.03-.2.08-.4.13-.62.1-.36.2-.72.32-1.08.12-.36.24-.72.36-1.09.12-.37.24-.73.35-1.1s.21-.73.3-1.1c0-.03.01-.08.01-.13,0-.1-.02-.17-.07-.23-.05-.05-.12-.08-.22-.08-.15,0-.31.03-.49.09-.17.06-.32.13-.44.21-.46.31-.86.61-1.21.91-.35.3-.66.62-.95.94-.29.33-.56.68-.82,1.05-.26.37-.53.78-.81,1.23-.24.44-.42.82-.53,1.13-.12.31-.22.56-.32.75-.1.19-.21.33-.33.42-.12.09-.31.13-.55.13-.27,0-.47-.08-.58-.24-.11-.16-.17-.36-.17-.62,0-.2.03-.42.09-.67l3.39-13.57c.02-.08.05-.17.1-.27s.11-.18.2-.27c.08-.08.18-.15.29-.21.11-.05.24-.08.39-.08.11,0,.23,0,.35.02s.23.03.33.06c.1.03.18.08.25.15.07.07.1.16.1.27,0,.03,0,.08-.02.17-.01.09-.03.18-.06.29-.37,1.48-.76,3.03-1.18,4.64-.42,1.61-.85,3.23-1.28,4.87.42-.51.85-.98,1.3-1.41s.91-.8,1.39-1.1c.48-.31.97-.55,1.48-.72s1.04-.26,1.59-.26c.35,0,.62.11.81.33.19.22.29.5.29.85,0,.16-.02.31-.06.46-.08.31-.18.62-.28.93-.1.3-.21.61-.32.92s-.22.62-.33.94c-.11.32-.21.65-.29.98-.11.43-.18.84-.23,1.23-.04.39-.07.7-.08.93-.01.2-.04.39-.09.57-.05.18-.12.35-.21.49-.09.14-.21.25-.35.34s-.31.13-.5.13Z"/>
      <path class="cls-1" d="M361.89,456.27c.1-.4.23-.86.37-1.39s.3-1.08.46-1.67c.16-.59.32-1.19.49-1.81.16-.62.32-1.21.46-1.8,0-.03.03-.07.07-.14s.1-.13.18-.2c.07-.07.17-.12.29-.17.12-.05.25-.07.41-.07.12,0,.23.01.34.04.11.02.21.06.29.11.08.05.15.11.2.19s.08.17.08.27v.07s0,.05-.01.07l-.29,1.09c-.32,1.22-.65,2.44-.98,3.66s-.65,2.45-.97,3.68c-.01.04-.03.09-.06.15s-.06.12-.11.18c-.05.06-.11.11-.17.15-.07.04-.15.06-.25.06-.18,0-.33-.04-.47-.11-.14-.07-.25-.16-.35-.27-.1-.11-.17-.23-.22-.36-.05-.13-.07-.25-.07-.37v-.09s0-.06.02-.09l.3-1.2ZM364.57,445.64c.03-.14.1-.32.19-.52.09-.21.25-.39.47-.55.11-.06.24-.12.4-.17.16-.05.27-.08.34-.08s.14.02.21.07c.07.05.14.1.19.15.07.07.13.14.2.23.17.01.28.08.33.18.05.11.08.24.08.39,0,.11-.01.21-.03.3-.02.09-.04.16-.05.22-.04.14-.12.28-.24.4-.12.12-.25.22-.4.31s-.31.15-.47.2c-.16.05-.31.07-.43.07-.16,0-.28-.03-.36-.08-.09-.05-.19-.17-.32-.35-.07-.1-.12-.18-.13-.24-.01-.06-.02-.11-.02-.15,0-.08,0-.14.02-.2.01-.06.02-.11.04-.17Z"/>
      <path class="cls-1" d="M370.36,444.07c.03-.27.09-.53.16-.76.07-.23.18-.43.3-.58.13-.15.29-.23.49-.23.11,0,.23.02.36.06s.26.1.38.17.22.16.3.26c.08.1.12.22.12.34,0,.06-.01.12-.03.19-.02.07-.04.14-.05.21l-2.57,10.28c-.1.41-.19.8-.26,1.18-.07.37-.12.68-.15.92v.25c0,.21-.01.43-.04.67-.03.24-.08.47-.15.68-.08.21-.18.38-.31.52-.13.14-.31.21-.52.21-.18,0-.35-.04-.48-.12-.14-.08-.25-.18-.34-.3-.09-.12-.15-.25-.19-.39s-.06-.27-.06-.4c0-.11.01-.24.03-.41s.05-.33.08-.5.06-.35.1-.52.07-.33.1-.46l2.65-10.51c.02-.23.05-.49.08-.76Z"/>
      <path class="cls-1" d="M372.41,454.62c.09-.37.21-.74.35-1.11.15-.37.33-.74.55-1.1.22-.36.48-.72.78-1.06.3-.35.65-.68,1.06-.99.27-.22.56-.43.87-.62.3-.19.61-.36.93-.51.31-.14.63-.26.95-.34s.63-.13.94-.13c.23,0,.43.02.6.06.18.04.34.09.5.16.07-.24.25-.88.55-1.93.3-1.05.66-2.5,1.09-4.37.08-.18.18-.34.32-.46.14-.12.3-.18.49-.18.14,0,.27.01.4.04s.25.07.35.14c.1.07.18.17.25.29.06.12.09.28.09.48l-2.06,8.24c-.06.23-.12.55-.18.94-.05.39-.11.81-.15,1.25-.05.44-.09.87-.11,1.3-.03.43-.04.8-.04,1.1,0,.38-.05.76-.13,1.14-.04.16-.08.3-.13.42-.04.11-.1.21-.18.28-.08.07-.17.12-.28.15-.11.03-.25.05-.43.05-.2,0-.35-.02-.46-.06-.11-.04-.19-.1-.25-.17-.06-.07-.09-.15-.1-.25-.01-.09-.02-.19-.02-.3,0-.11-.01-.22-.02-.33-.01-.11-.04-.22-.09-.32-.08.06-.19.13-.34.22-.14.09-.29.18-.44.27-.15.09-.29.18-.41.26-.13.08-.23.14-.29.17-.16.09-.34.18-.53.28-.2.1-.41.19-.64.28s-.47.16-.72.21-.5.08-.75.08c-.31,0-.61-.05-.9-.15-.29-.1-.55-.26-.78-.47-.23-.21-.41-.48-.55-.81-.14-.33-.2-.71-.2-1.14,0-.16,0-.31.03-.47s.05-.33.1-.52ZM374.19,454.54c-.06.21-.08.4-.08.6s.02.39.05.56c.03.17.1.33.19.46.09.13.22.23.37.31.15.08.35.12.6.12.14,0,.28-.02.44-.07.16-.05.31-.11.47-.18.15-.07.3-.15.43-.23.13-.08.25-.15.34-.21.26-.17.5-.34.72-.5s.42-.34.6-.53.33-.41.47-.64.24-.51.32-.82c.07-.27.13-.52.18-.75s.1-.45.14-.66c.04-.22.08-.44.11-.66.03-.23.07-.48.1-.75-.03-.04-.08-.08-.14-.12-.06-.04-.15-.06-.26-.06-.27,0-.57.05-.9.14-.33.09-.67.22-1.01.4-.35.17-.68.38-1.02.63-.33.25-.64.52-.92.83-.28.3-.53.64-.74,1-.21.36-.37.75-.46,1.15Z"/>
    </g>
    <g>
      <path class="cls-2" d="M361.56,372.26c-1.63,0-2.9-1.3-2.9-2.95s1.28-2.99,2.97-2.99,2.93,1.26,2.93,2.99c.03.77-.25,1.51-.78,2.06-.56.58-1.35.9-2.23.9Z"/>
      <path class="cls-3" d="M361.63,367.3c1.2,0,1.96.88,1.96,2.01.04,1.1-.76,1.97-2.03,1.97-1.12,0-1.92-.88-1.92-1.97s.83-2.01,1.99-2.01M361.63,365.33c-2.21,0-3.95,1.75-3.95,3.97s1.7,3.94,3.87,3.94c1.15,0,2.19-.42,2.93-1.2.71-.74,1.08-1.72,1.05-2.77-.02-2.25-1.69-3.94-3.91-3.94h0Z"/>
    </g>
    <path class="cls-3" d="M380.21,371.72h-26.49c-1.46,0-2.69.96-3.11,2.27l-.44-.71c-.59-.96-1.66-1.56-2.79-1.56h-1.62c-1.8,0-3.27,1.47-3.27,3.27v7.31h-7.93v-7.31c0-1.8-1.47-3.27-3.27-3.27h-20.31c-2.87,0-5.38.89-7.16,2.49-2.14-1.63-4.77-2.49-7.71-2.49h-19.94c-1.27,0-2.37.73-2.91,1.78-2.29-1.2-5.15-1.78-8.66-1.78h-2.01c.54-.69.83-1.54.81-2.45-.02-2.24-1.7-3.92-3.92-3.92s-3.96,1.74-3.96,3.96c0,1.19.51,2.23,1.32,2.94-.61.39-1.09.98-1.33,1.71,0,0-4.44,13.44-4.76,14.49-.29-1.03-4.38-14.41-4.38-14.41-.42-1.38-1.68-2.31-3.13-2.31h-.65c-1.04,0-2.02.5-2.64,1.34-.61.84-.79,1.93-.48,2.92l7.17,22.67c.43,1.37,1.68,2.28,3.12,2.28h1.59c1.39,0,2.63-.88,3.09-2.2l1.49-4.29v3.22c0,1.8,1.47,3.27,3.27,3.27h4.43c3.77,0,6.99-.72,9.5-2.12.47,1.23,1.66,2.12,3.06,2.12h32.62c3.3,0,6.02-.96,7.89-2.73,2.38,1.8,5.45,2.77,8.85,2.77,1.88,0,4.18-.02,5.78-.03,1.79-.02,3.24-1.48,3.24-3.27v-8.6h7.93v8.59c0,1.8,1.47,3.27,3.27,3.27h.57c1.8,0,3.27-1.47,3.27-3.27v-11.85c.26.44,8.2,13.55,8.2,13.55.59.97,1.66,1.57,2.79,1.58h1.15c1.81,0,3.28-1.46,3.28-3.27v-19.38h3.86v19.38c0,1.8,1.47,3.27,3.27,3.27h.57c1.8,0,3.27-1.47,3.27-3.27v-19.38h4.22c1.8,0,3.27-1.47,3.27-3.27s-1.47-3.3-3.27-3.3ZM259.47,367.31c1.2,0,1.96.87,1.96,2,.04,1.09-.76,1.96-2.04,1.96-1.13,0-1.93-.87-1.93-1.96s.84-2,2-2ZM381.52,375.02c0,.72-.59,1.31-1.31,1.31h-4.86c-.73,0-1.31.59-1.31,1.31v20.03c0,.73-.59,1.31-1.31,1.31h-.57c-.73,0-1.31-.59-1.31-1.31v-20.03c0-.73-.59-1.31-1.31-1.31h-5.15c-.73,0-1.31.59-1.31,1.31v20.02c0,.73-.59,1.31-1.31,1.31h-1.15c-.46,0-.88-.24-1.12-.63l-7.4-12.21c-1.64-2.71-3.22-5.49-4.43-8.13v19.66c0,.73-.59,1.31-1.31,1.31h-.57c-.73,0-1.31-.59-1.31-1.31v-9.24c0-.73-.59-1.31-1.31-1.31h-9.22c-.73,0-1.31.59-1.31,1.31v9.25c0,.72-.58,1.31-1.3,1.31-1.45.01-3.83.03-5.76.03-3.69,0-6.89-1.26-9.07-3.66-1.24,2.13-3.78,3.62-7.67,3.62h-32.62c-.73,0-1.31-.59-1.31-1.31v-2.73c-.14.16-.27.32-.41.46-2.29,2.33-6.07,3.58-10.83,3.58h-4.43c-.73,0-1.31-.59-1.31-1.31v-14.85l-5.29,15.28c-.18.53-.68.88-1.24.88h-1.59c-.57,0-1.08-.37-1.25-.92l-7.17-22.67c-.27-.85.36-1.71,1.25-1.71h.65c.58,0,1.09.38,1.26.93l3.53,11.53c1.05,3.42,2.65,9.46,2.65,9.46,0,0,1.74-6.12,2.83-9.42l3.85-11.6c.18-.54.68-.9,1.25-.9h5.99c4.54,0,7.78,1.07,9.92,3.1.12.11.23.24.34.35v-2.14c0-.73.59-1.31,1.31-1.31h19.94c3.27,0,5.97,1.23,7.88,3.34,1.27-2.03,3.76-3.34,6.99-3.34h20.31c.73,0,1.31.59,1.31,1.31v7.96c0,.73.59,1.31,1.31,1.31h9.22c.73,0,1.31-.59,1.31-1.31v-7.96c0-.73.59-1.31,1.31-1.31h1.62c.46,0,.88.24,1.12.63l7.47,12.17c1.56,2.55,2.83,4.88,3.89,7.12v-15.96c0-.73-.59-1.31-1.31-1.31h-4.83c-.73,0-1.31-.59-1.31-1.31v-.03c0-.73.59-1.31,1.31-1.31h26.49c.72,0,1.31.59,1.31,1.31v.03ZM353.21,378.25c.16.03.33.04.5.04h4.18v7.6c-.09-.14-.18-.29-.27-.44l-4.42-7.2Z"/>
  </g>
</svg>